<?xml version="1.0" encoding="utf-8"?>
<!-- Generator: Adobe Illustrator 22.1.0, SVG Export Plug-In . SVG Version: 6.00 Build 0)  -->
<svg version="1.1" id="レイヤー_1" xmlns="http://www.w3.org/2000/svg" xmlns:xlink="http://www.w3.org/1999/xlink" x="0px"
	 y="0px" viewBox="0 0 15.5 15.5" style="enable-background:new 0 0 15.5 15.5;" xml:space="preserve">
<style type="text/css">
	.st0{fill:#333333;}
</style>
<title>header-icon-global</title>
<g id="レイヤー_2_1_">
	<g id="module_header">
		<path class="st0" d="M3.8,9.7H0.3c-0.4-1.3-0.4-2.7,0-4h3.6c-0.1,0.7-0.1,1.3-0.1,2S3.8,9,3.8,9.7z M4,4.7H0.6c0.5-1,1.1-2,2-2.8
			c0.9-0.8,1.9-1.3,3-1.7C4.7,1.7,4.2,3.2,4,4.7L4,4.7z M4,10.7c0.2,1.6,0.7,3.1,1.6,4.4c-1.1-0.3-2.1-0.9-3-1.7
			c-0.9-0.8-1.5-1.7-2-2.8H4z M4.8,5.7h5.8c0.1,0.7,0.1,1.3,0.1,2s0,1.3-0.1,2H4.8c-0.1-0.7-0.1-1.3-0.1-2S4.8,6.4,4.8,5.7z M5,4.7
			c0.2-1.2,0.5-2.4,1.1-3.4C6.6,0.4,7.1,0,7.8,0s1.2,0.4,1.7,1.3c0.6,1.1,0.9,2.2,1.1,3.4H5z M10.5,10.7c-0.2,1.2-0.5,2.4-1.1,3.4
			c-0.5,0.9-1.1,1.3-1.7,1.3s-1.2-0.4-1.7-1.3C5.5,13.1,5.2,12,5,10.7H10.5z M11.5,4.7c-0.2-1.6-0.7-3.1-1.5-4.4
			c1.1,0.3,2.1,0.9,2.9,1.7c0.9,0.8,1.5,1.7,2,2.8L11.5,4.7z M11.5,10.7h3.4c-0.5,1.1-1.1,2-2,2.8c-0.8,0.8-1.8,1.3-2.9,1.7
			C10.8,13.8,11.4,12.3,11.5,10.7L11.5,10.7z M15.5,7.7c0,0.7-0.1,1.3-0.3,2h-3.6c0.1-0.7,0.1-1.4,0.1-2s0-1.3-0.1-2h3.6
			C15.4,6.4,15.5,7.1,15.5,7.7z"/>
	</g>
</g>
</svg>
