<svg xmlns="http://www.w3.org/2000/svg" viewBox="0 0 40 40"><defs><style>.cls-1{fill:#222;}.cls-2{fill:#d70c18;}</style></defs><title>logo</title><g id="レイヤー_2" data-name="レイヤー 2"><g id="module_header"><g id="logo"><polygon class="cls-1" points="13.38 30.62 16.12 30.62 16.12 34.64 16.14 34.64 17.58 30.62 20.6 30.62 18.92 35.04 20.84 40 17.77 40 16.14 35.98 16.12 35.98 16.12 40 13.38 40 13.38 30.62"/><rect class="cls-1" x="24.69" y="30.62" width="2.75" height="9.38"/><polygon class="cls-1" points="37.91 33.3 37.77 33.3 36.9 40 34.67 40 33.81 33.3 33.79 33.3 33.79 40 31.73 40 31.73 30.62 35.16 30.62 35.84 35.98 35.86 35.98 36.54 30.62 39.97 30.62 39.97 40 37.91 40 37.91 33.3"/><polygon class="cls-1" points="8.9 40 8.89 30.51 0 40 3.91 40 6.15 37.19 6.15 40 8.9 40"/><path class="cls-2" d="M40,0C39.18.68,18,19.46,10,29.16,14,27.61,16.46,26.81,20,26.87Z"/><path class="cls-2" d="M21.52,26.93a26.83,26.83,0,0,1,4.39.74c1.14.26,2.12.47,3.19.62L40,0Z"/><path class="cls-2" d="M30.49,28.44A63.29,63.29,0,0,0,40,28.7C40,25.17,40,1,40,0Z"/></g></g></g></svg>