<svg xmlns="http://www.w3.org/2000/svg" viewBox="0 0 559.43 235.49"><defs><style>.cls-1{fill:#d70c18;}</style></defs><title>mv-copy</title><g id="レイヤー_2" data-name="レイヤー 2"><g id="top-m"><g id="developingthechnology-intothefuture"><path class="cls-1" d="M0,.76H16.65c12.86-.21,19,6.05,18.64,19v11c.34,13-5.71,19.2-18.64,19.06H0ZM15.06,42.65c8.33.13,11.08-3,11.21-12.52V20.5C26.14,10.94,23.39,7.84,15.06,8H9V42.65Z"/><path class="cls-1" d="M43.4.76H73.67V8.12H52.34v13.2H70.43v7.36H52.34V42.51H73.87v7.36H43.4Z"/><path class="cls-1" d="M79.26.76h9L99.69,37.69,111,.76h9L103.54,49.87H95.77Z"/><path class="cls-1" d="M125.84.76h30.27V8.12H134.78v13.2h18.09v7.36H134.78V42.51h21.53v7.36H125.84Z"/><path class="cls-1" d="M164.48.76h9V42.51H195v7.36H164.48Z"/><path class="cls-1" d="M200.53,19.47c0-7.23,1.1-11.22,4.06-14.45,3.3-3.51,7.43-5,14.1-5,7.09,0,11.56,1.79,14.79,5.85,2.47,3.16,3.37,6.87,3.37,13.62V31.16c0,7.29-1.1,11.21-4.06,14.44-3.3,3.51-7.5,5-14.1,5-7.08,0-11.56-1.78-14.79-5.84-2.41-3.1-3.37-7-3.37-13.62Zm27.31.75c0-9.35-2.55-12.93-9.15-12.93s-9.15,3.58-9.15,12.93V30.4c0,9.36,2.55,12.93,9.15,12.93s9.15-3.57,9.15-12.93Z"/><path class="cls-1" d="M255.26,49.87h-9V.76h16.51c6.81,0,10.45,1.1,13.2,3.92,2.55,2.75,3.65,6.26,3.65,11.69,0,5.92-1.31,9.7-4.34,12.38-2.68,2.41-6.25,3.37-12.51,3.37h-7.5Zm7.5-25c5.64,0,7.91-2.48,7.91-8.46S268.4,8,262.76,8h-7.64V24.83Z"/><path class="cls-1" d="M287.28.76h9V49.87h-9Z"/><path class="cls-1" d="M306.42.76h8.74l19.6,34V.76h8.74V49.87h-8.74l-19.6-34v34h-8.74Z"/><path class="cls-1" d="M370.85,22.9h17.26v8.26c0,7-.89,10.59-3.44,13.76-3.16,3.92-7.7,5.7-14.51,5.7-7.36,0-11.9-1.85-15.07-6-2.33-3.09-3.23-7-3.23-14V20.15c0-7.63,1-11.62,3.92-14.85C359,1.72,363.21.14,369.61.14c10.93,0,16.57,4.61,17.06,13.89l-8.33.62c-.62-4.88-3.44-7.22-8.53-7.22-6.6,0-8.94,3.44-8.94,13.34V30c0,9.9,2.34,13.34,9.08,13.34,6.33,0,9.22-3.23,9.22-10.25V29.85h-8.32Z"/><path class="cls-1" d="M13.41,100.55H0V93.19H35.77v7.36H22.42V142.3h-9Z"/><path class="cls-1" d="M43,93.19H73.23v7.36H51.91v13.21H70v7.36H51.91v13.82H73.44v7.36H43Z"/><path class="cls-1" d="M114.81,129.51c-.48,9.08-6.19,13.55-17.2,13.55-6.8,0-11.28-1.93-14.23-6.05-2.27-3.17-3.17-7-3.17-14V112.59c0-7.64,1-11.63,3.85-14.86,3.1-3.58,7.23-5.16,13.55-5.16,10.6,0,16,4.54,16.51,13.9l-8.25.61c-.62-4.88-3.23-7.22-8.12-7.22-6.33,0-8.53,3.51-8.53,13.35v9.21c0,9.91,2.2,13.35,8.67,13.35,5,0,7.84-2.34,8.53-7.22Z"/><path class="cls-1" d="M122.05,93.19h9v20.57H147.7V93.19h9V142.3h-9V121.12H131.06V142.3h-9Z"/><path class="cls-1" d="M166,93.19h8.74l19.6,34v-34H203V142.3h-8.74l-19.6-34v34H166Z"/><path class="cls-1" d="M212.39,111.9c0-7.22,1.1-11.21,4.06-14.44,3.3-3.51,7.43-5,14.1-5,7.08,0,11.55,1.79,14.79,5.85,2.47,3.16,3.37,6.88,3.37,13.62v11.69c0,7.29-1.1,11.21-4.06,14.45-3.3,3.51-7.5,5-14.1,5-7.09,0-11.56-1.79-14.79-5.85-2.41-3.09-3.37-7-3.37-13.62Zm27.31.76c0-9.36-2.55-12.93-9.15-12.93s-9.15,3.57-9.15,12.93v10.18c0,9.35,2.55,12.93,9.15,12.93s9.15-3.58,9.15-12.93Z"/><path class="cls-1" d="M258.11,93.19h9v41.75h21.46v7.36H258.11Z"/><path class="cls-1" d="M294.16,111.9c0-7.22,1.1-11.21,4.06-14.44,3.3-3.51,7.42-5,14.1-5,7.08,0,11.55,1.79,14.78,5.85,2.48,3.16,3.37,6.88,3.37,13.62v11.69c0,7.29-1.1,11.21-4.05,14.45-3.31,3.51-7.5,5-14.1,5-7.09,0-11.56-1.79-14.79-5.85-2.41-3.09-3.37-7-3.37-13.62Zm27.3.76c0-9.36-2.54-12.93-9.14-12.93s-9.15,3.57-9.15,12.93v10.18c0,9.35,2.54,12.93,9.15,12.93s9.14-3.58,9.14-12.93Z"/><path class="cls-1" d="M357.85,115.34h17.27v8.25c0,7-.9,10.6-3.44,13.76-3.17,3.92-7.71,5.71-14.52,5.71-7.36,0-11.89-1.86-15.06-6.05-2.34-3.1-3.23-6.95-3.23-14V112.59c0-7.64,1-11.63,3.92-14.86,3.16-3.58,7.43-5.16,13.82-5.16,10.94,0,16.58,4.61,17.06,13.9l-8.32.61c-.62-4.88-3.44-7.22-8.53-7.22-6.6,0-8.94,3.44-8.94,13.35v9.21c0,9.91,2.34,13.35,9.08,13.35,6.33,0,9.22-3.23,9.22-10.25v-3.23h-8.33Z"/><path class="cls-1" d="M392.67,124.56l-15.2-31.37H387l10.25,22.49,10.18-22.49H417l-15.27,31.37V142.3h-9Z"/><path class="cls-1" d="M0,185.63H9v49.11H0Z"/><path class="cls-1" d="M18.14,185.63h8.74l19.6,34v-34h8.74v49.11H46.48l-19.6-34v34H18.14Z"/><path class="cls-1" d="M75.86,193H62.45v-7.36H98.22V193H84.87v41.75h-9Z"/><path class="cls-1" d="M103,204.33c0-7.22,1.1-11.21,4.06-14.44,3.3-3.51,7.43-5,14.1-5,7.08,0,11.55,1.79,14.79,5.85,2.47,3.16,3.37,6.87,3.37,13.61V216c0,7.29-1.1,11.21-4.06,14.44-3.3,3.51-7.5,5-14.1,5-7.09,0-11.56-1.79-14.79-5.84-2.41-3.1-3.37-7-3.37-13.62Zm27.31.76c0-9.35-2.55-12.93-9.15-12.93S112,195.74,112,205.09v10.18c0,9.36,2.55,12.93,9.15,12.93s9.15-3.57,9.15-12.93Z"/><path class="cls-1" d="M181.05,193H167.64v-7.36h35.77V193H190.06v41.75h-9Z"/><path class="cls-1" d="M210.57,185.63h9v20.56h16.65V185.63h9v49.11h-9V213.55H219.58v21.19h-9Z"/><path class="cls-1" d="M255.51,185.63h30.27V193H264.45v13.2h18.09v7.36H264.45v13.83H286v7.36H255.51Z"/><path class="cls-1" d="M317.62,185.63h29.85V193H326.63V206.6h17.54V214H326.63v20.78h-9Z"/><path class="cls-1" d="M363.74,185.63v30.81c0,4.33.34,6.4,1.3,8.12,1.45,2.61,3.51,3.57,7.43,3.57,4.13,0,6.33-1.17,7.71-4.19.68-1.59,1-3.65,1-7.5V185.63h9v30.81c0,7.22-.76,10.45-3,13.34-3.16,3.92-7.56,5.64-14.65,5.64-7.63,0-12.38-2-15.34-6.53-1.78-2.68-2.4-5.78-2.4-12.45V185.63Z"/><path class="cls-1" d="M410.67,193H397.26v-7.36H433V193H419.68v41.75h-9Z"/><path class="cls-1" d="M449.11,185.63v30.81c0,4.33.34,6.4,1.31,8.12,1.44,2.61,3.5,3.57,7.42,3.57,4.13,0,6.33-1.17,7.71-4.19.69-1.59,1-3.65,1-7.5V185.63h9v30.81c0,7.22-.75,10.45-3,13.34-3.17,3.92-7.57,5.64-14.66,5.64-7.63,0-12.38-2-15.33-6.53-1.79-2.68-2.41-5.78-2.41-12.45V185.63Z"/><path class="cls-1" d="M494.62,234.74h-9V185.63H503.7c6.33,0,9.77,1,12.38,3.57,2.41,2.48,3.51,5.71,3.51,10.66,0,8.26-2.75,12.38-9.29,14L521,234.74h-10l-9.49-20.09h-6.95Zm8.46-27.1c5.36,0,7.57-2.21,7.57-7.36,0-5.3-2.27-7.43-7.85-7.43h-8.32v14.79Z"/><path class="cls-1" d="M529,185.63h30.26V193H537.9v13.2H556v7.36H537.9v13.83h21.53v7.36H529Z"/></g></g></g></svg>