<?xml version="1.0" encoding="utf-8"?>
<!-- Generator: Adobe Illustrator 23.0.2, SVG Export Plug-In . SVG Version: 6.00 Build 0)  -->
<svg version="1.1" id="レイヤー_1" xmlns="http://www.w3.org/2000/svg" xmlns:xlink="http://www.w3.org/1999/xlink" x="0px"
	 y="0px" viewBox="0 0 230 230" style="enable-background:new 0 0 230 230;" xml:space="preserve">
<style type="text/css">
	.st0{fill:#FFFFFF;}
	.st1{fill:#EFEFEF;}
	.st2{fill:#D4E9D7;stroke:#FFFFFF;stroke-width:2.8347;stroke-linecap:round;stroke-linejoin:round;stroke-miterlimit:10;}
	.st3{opacity:0.5;fill:none;stroke:#FFFFFF;stroke-width:1.7008;stroke-linecap:round;stroke-linejoin:round;}
	.st4{fill:none;stroke:#121212;stroke-width:0.5135;}
	.st5{fill:none;stroke:#000000;stroke-width:0.3594;}
	.st6{fill:none;stroke:#949494;stroke-width:4.793;stroke-linecap:round;}
	.st7{fill:#231815;}
	.st8{fill:none;stroke:#C0AD5E;stroke-width:5.6693;stroke-linecap:round;stroke-linejoin:round;stroke-miterlimit:10;}
	.st9{fill:none;stroke:#C0AD5E;stroke-width:2.8347;stroke-linecap:round;stroke-linejoin:round;stroke-miterlimit:10;}
	.st10{fill:none;stroke:#C0AD5E;stroke-width:1.7008;stroke-linecap:round;stroke-linejoin:round;}
	.st11{fill:none;stroke:#231815;stroke-width:0.3555;}
	.st12{fill:none;stroke:#FFFFFF;stroke-width:0.237;}
	.st13{fill:none;stroke:#231815;stroke-width:0.1185;}
	.st14{fill:none;stroke:#000000;stroke-width:1.3694;stroke-miterlimit:10;}
	.st15{fill:none;stroke:#FFFFFF;stroke-width:1.0271;stroke-miterlimit:10;stroke-dasharray:4.1083,4.1083;}
	.st16{fill:none;stroke:#FFFFFF;stroke-width:1.0271;stroke-miterlimit:10;stroke-dasharray:4.793,4.793;}
	.st17{fill:none;stroke:#C0AD5E;stroke-width:5.6693;stroke-linecap:round;}
	.st18{fill:none;stroke:#937E28;stroke-width:5.6693;stroke-linecap:round;}
	.st19{fill:none;stroke:#FFFFFF;stroke-width:2.7388;stroke-linecap:round;}
	.st20{fill:none;stroke:#937E28;stroke-width:1.3694;stroke-linecap:round;}
	.st21{fill:none;stroke:#231815;stroke-width:0.1712;stroke-miterlimit:10;}
	.st22{fill:none;stroke:#FFFFFF;stroke-width:1.7607;stroke-linecap:round;}
	.st23{fill:none;stroke:#937E28;stroke-width:0.8803;stroke-linecap:round;}
	.st24{fill:none;stroke:#FFFFFF;stroke-width:4.1083;stroke-linecap:round;}
	.st25{fill:none;stroke:#937E28;stroke-width:2.0541;stroke-linecap:round;}
	.st26{fill:#937E28;}
	.st27{fill:none;stroke:#FFFFFF;stroke-width:1.7118;}
	.st28{fill:none;stroke:#231815;stroke-width:0.2054;}
	.st29{font-family:'HiraginoSansGB-W3-GBpc-EUC-H';}
	.st30{font-size:9.2126px;}
	.st31{letter-spacing:-4.4;}
	.st32{font-size:6.378px;}
	.st33{font-size:5.6693px;}
	.st34{letter-spacing:-3;}
	.st35{letter-spacing:-1;}
	.st36{letter-spacing:1;}
	.st37{clip-path:url(#SVGID_2_);}
	.st38{fill:#FDEBD1;}
	.st39{fill:#EBDF91;}
	.st40{fill:none;}
	.st41{opacity:0.5;clip-path:url(#SVGID_4_);fill:#FFFFFF;}
	.st42{opacity:0.5;fill:none;stroke:#FFFFFF;stroke-width:0.3424;}
	.st43{opacity:0.5;fill:none;stroke:#FFFFFF;stroke-width:0.6847;stroke-linecap:round;}
	.st44{fill:none;stroke:#231815;stroke-width:0.1712;}
	.st45{fill:none;stroke:#231815;stroke-width:0.1429;}
	.st46{opacity:0.5;fill:none;stroke:#FFFFFF;stroke-width:2.001;stroke-miterlimit:10;}
	.st47{fill:none;stroke:#C8C9CA;stroke-width:0.1429;}
	.st48{fill:none;stroke:#040000;stroke-width:0.2859;stroke-miterlimit:10;}
	.st49{fill:none;stroke:#231815;stroke-width:0.2514;}
	.st50{fill:none;stroke:#FFFFFF;stroke-width:0.1676;}
	.st51{fill:none;stroke:#231815;stroke-width:8.378500e-02;}
	.st52{fill:none;stroke:#FFFFFF;stroke-width:0.7386;stroke-linejoin:round;}
	.st53{fill:none;stroke:#231815;stroke-width:0.3313;}
	.st54{fill:none;stroke:#000000;stroke-width:0.1169;stroke-linejoin:round;}
	.st55{fill:#FFFFFF;stroke:#000000;stroke-width:0.1345;stroke-linejoin:round;}
	.st56{fill:none;stroke:#FFFFFF;stroke-width:0.5053;stroke-miterlimit:10;}
	.st57{fill:none;stroke:#595757;stroke-width:0.1263;stroke-miterlimit:10;}
	.st58{fill:#9E9E9F;}
	.st59{fill:none;stroke:#FFFFFF;stroke-width:0.6847;stroke-linejoin:round;}
	.st60{fill:none;stroke:#000000;stroke-width:0.1345;stroke-linejoin:round;}
	.st61{fill:none;stroke:#FFFFFF;stroke-width:0.3695;stroke-linecap:round;}
	.st62{font-family:'STXihei';}
	.st63{font-size:4.252px;}
	.st64{font-family:'STHeiti';}
	.st65{font-size:7.0866px;}
</style>
<g>
	<rect x="0.2" y="0.2" class="st0" width="229.5" height="219.5"/>
	<path class="st1" d="M229.5,0.5v219H0.5V0.5H229.5 M230,0H0v220h230V0L230,0z"/>
</g>
<title>greeting-companyinfo-jpn-map</title>
<path class="st2" d="M228,207.6c0,2.4-1.9,4.3-4.3,4.3H5.9c-2.4,0-4.3-1.9-4.3-4.3V10.9c0-2.4,1.9-4.3,4.3-4.3h217.8
	c2.4,0,4.3,1.9,4.3,4.3V207.6z"/>
<path class="st0" d="M228,207.6c0,2.4-1.9,4.3-4.3,4.3H5.9c-2.4,0-4.3-1.9-4.3-4.3V10.9c0-2.4,1.9-4.3,4.3-4.3h217.8
	c2.4,0,4.3,1.9,4.3,4.3V207.6z"/>
<polyline class="st3" points="124,82.1 113.6,87 15.3,87 "/>
<line class="st3" x1="132" y1="67.7" x2="16.6" y2="67.7"/>
<path class="st4" d="M58.3,129.8"/>
<path class="st5" d="M110.3,143c0,1-0.8,1.7-1.7,1.7c-1,0-1.7-0.8-1.7-1.7c0-1,0.8-1.7,1.7-1.7C109.5,141.3,110.3,142,110.3,143z"/>
<path d="M112.3,70.4c1.2,1.2,1.2,3,0,4.2c-1.2,1.2-3,1.2-4.2,0c-1.2-1.2-1.2-3,0-4.2C109.2,69.2,111.1,69.2,112.3,70.4z"/>
<path class="st6" d="M36,46.9"/>
<g>
	<path class="st7" d="M67.2,115.3h-0.6c-0.6,0-0.7-0.2-0.7-0.7v-4.4l0.3,0c0.1,0,0.2,0,0.2,0.1c0,0,0,0.1-0.2,0.1v2
		c0.7-0.4,1.1-0.9,1.6-1.4l0.3,0.2c0.1,0,0.1,0.1,0.1,0.1c0,0,0,0-0.1,0c0,0-0.1,0-0.1,0c-0.5,0.5-1,0.9-1.7,1.4v1.9
		c0,0.3,0.1,0.3,0.4,0.3h0.6c0.3,0,0.5,0,0.6-0.8c0.1,0.1,0.2,0.2,0.3,0.2C68,115.3,67.6,115.3,67.2,115.3z M64.8,110.4v5.2h-0.3
		V114c-0.7,0.3-0.9,0.3-1.5,0.6c0,0.1-0.1,0.2-0.1,0.2c-0.1,0-0.1-0.1-0.1-0.1l-0.1-0.4c0.7-0.2,1.1-0.3,1.8-0.6V112h-1.8v-0.3h1.8
		v-1.5l0.3,0c0.1,0,0.2,0,0.2,0.1C64.9,110.3,64.8,110.3,64.8,110.4"/>
	<path class="st7" d="M71.8,112.2c0.1,0.6,0.3,1.3,0.7,1.9c0.5-0.7,0.6-1.5,0.7-1.9H71.8z M73.9,115.6c-0.6-0.3-1-0.6-1.3-0.9
		c-0.3,0.3-0.7,0.6-1.4,1c-0.1-0.1-0.2-0.2-0.3-0.3c0.7-0.3,1.2-0.7,1.4-1c-0.5-0.6-0.8-1.6-0.8-2.2h-0.2c0,0.6-0.1,2.1-1.3,3.4
		c-0.1-0.1-0.1-0.2-0.2-0.2c1.1-1.3,1.2-2.2,1.2-3.9v-1.2h3.1v0.3h-2.8v1.2h2.1l0.2,0.1c-0.1,1.4-0.6,2.1-0.8,2.3
		c0.5,0.5,1.1,0.8,1.3,0.9C74,115.4,73.9,115.4,73.9,115.6 M69.7,112v2.1c0.3-0.1,0.5-0.2,0.8-0.3c0,0.1,0,0.2,0,0.3
		c-0.6,0.3-1.1,0.4-1.7,0.6c0,0.1,0,0.2-0.1,0.2c-0.1,0-0.1-0.1-0.1-0.1l0-0.3c0.2,0,0.4-0.1,0.8-0.2V112h-0.8v-0.3h0.8v-1.5l0.3,0
		c0.1,0,0.1,0,0.1,0.1c0,0.1-0.1,0.1-0.1,0.1v1.3h0.9v0.3H69.7"/>
	<path class="st7" d="M79,111.8h-3.2c0,0.2,0,1.1,0,1.3H79V111.8z M74.8,110.7v-0.3h4.9v0.3H74.8 M79,113.7v-0.3h-3.3
		c0,0.7-0.2,1.4-0.8,2.3c-0.1-0.1-0.2-0.2-0.3-0.2c0.7-0.9,0.8-1.9,0.8-2.7v-1.2h3.9v2.2H79"/>
</g>
<g>
	<path class="st7" d="M66.1,64h-1.5v0.6h1.5V64z M64.6,64.9v0.3h-0.3v-1.5h2.2v1.1H64.6 M66.5,61.8h-2.3v0.6h2.3V61.8 M63.9,62.7
		v-1.2h2.9v1.2H63.9 M66.7,65.7c0-0.2,0-0.2-0.1-0.4c0.1,0,0.2,0,0.4,0c0.3,0,0.3-0.1,0.3-0.4v-1.6h-3.9v2.4h-0.3V63h4.6v2
		C67.7,65.6,67.6,65.7,66.7,65.7 M62.7,61.1v-0.3h2.5v-0.5l0.3,0c0.1,0,0.2,0,0.2,0.1c0,0.1-0.1,0.1-0.2,0.1v0.3h2.6v0.3H62.7"/>
	<path class="st7" d="M71.9,62.3c0.1,0.6,0.3,1.3,0.7,1.9c0.5-0.7,0.6-1.5,0.7-1.9H71.9z M73.9,65.7c-0.6-0.3-1-0.6-1.3-0.9
		c-0.3,0.3-0.7,0.6-1.4,1c-0.1-0.1-0.2-0.2-0.3-0.3c0.7-0.3,1.2-0.7,1.4-1c-0.5-0.6-0.8-1.6-0.8-2.2h-0.2c0,0.6-0.1,2.1-1.3,3.4
		c-0.1-0.1-0.1-0.1-0.2-0.2c1.1-1.3,1.2-2.2,1.2-3.9v-1.2h3.1v0.3h-2.8V62h2.1l0.2,0.1c-0.1,1.4-0.6,2.1-0.8,2.4
		c0.5,0.5,1.1,0.8,1.3,0.9C74,65.5,74,65.6,73.9,65.7 M69.8,62.1v2.1c0.3-0.1,0.5-0.2,0.8-0.3c0,0.1,0,0.2,0,0.3
		c-0.6,0.3-1.1,0.4-1.7,0.6c0,0.1,0,0.2-0.1,0.2c-0.1,0-0.1-0.1-0.1-0.1l0-0.3c0.2,0,0.4-0.1,0.8-0.2v-2.2h-0.8v-0.3h0.8v-1.5l0.3,0
		c0.1,0,0.1,0,0.1,0.1c0,0.1-0.1,0.1-0.1,0.1v1.3h0.9v0.3H69.8"/>
</g>
<g>
	<path class="st7" d="M74.7,163.8c0.1,0.6,0.3,1.3,0.7,1.9c0.5-0.7,0.6-1.5,0.7-1.9H74.7z M76.8,167.1c-0.6-0.3-1-0.6-1.3-1
		c-0.3,0.3-0.7,0.6-1.4,1c-0.1-0.1-0.2-0.2-0.3-0.3c0.7-0.3,1.1-0.7,1.4-1c-0.5-0.6-0.8-1.6-0.8-2.2h-0.2c0,0.6-0.1,2.1-1.3,3.4
		c-0.1-0.1-0.1-0.1-0.3-0.2c1.1-1.3,1.2-2.2,1.2-3.9v-1.2H77v0.3h-2.8v1.2h2.1l0.2,0.1c-0.1,1.4-0.6,2.1-0.8,2.4
		c0.5,0.5,1.1,0.8,1.3,0.9C76.9,167,76.8,167,76.8,167.1 M72.6,163.6v2.1c0.3-0.1,0.5-0.2,0.8-0.3c0,0.1,0,0.2,0,0.3
		c-0.6,0.3-1.1,0.4-1.7,0.6c0,0.1,0,0.2-0.1,0.2c-0.1,0-0.1-0.1-0.1-0.1l0-0.3c0.2,0,0.4-0.1,0.8-0.2v-2.2h-0.8v-0.3h0.8v-1.5l0.3,0
		c0.1,0,0.1,0,0.1,0.1c0,0.1-0.1,0.1-0.1,0.1v1.3h0.9v0.3H72.6"/>
	<path class="st7" d="M81.9,163.4h-3.2c0,0.2,0,1.1,0,1.2h3.2V163.4z M77.7,162.3V162h4.9v0.3H77.7 M81.9,165.3V165h-3.3
		c0,0.7-0.2,1.4-0.8,2.3c-0.1-0.1-0.2-0.2-0.3-0.2c0.7-0.9,0.8-1.9,0.8-2.7v-1.2h3.9v2.2H81.9"/>
</g>
<g>
	<path class="st7" d="M174.8,176.3c0,0.2,0,0.5,0,0.5l-0.3,0.1c0-0.3,0-0.5-0.1-0.7l0.3-0.1c0,0,0.1,0,0.1,0
		C174.9,176.2,174.8,176.2,174.8,176.3z M174.5,177.4l-0.3,0.3c0,0.2,0.1,0.3,0.1,0.5l0.7-0.5C174.7,177.5,174.6,177.4,174.5,177.4
		 M176.8,177.9c-0.4,0-0.9,0-1.5-0.2l-1,0.8c0,0.1,0,0.2,0,0.4l1.3-1l0.7,0.9l-0.2,0.2l-0.1-0.1l-0.9,0.7l0.1,0.2
		c0.1,0.2,0.1,0.2,0.3,0.1l0.9-0.7c0.2-0.2,0.3-0.2,0-0.7c0.1,0,0.2,0,0.3,0c0.2,0.6,0.2,0.7-0.2,1l-0.9,0.7c-0.2,0.1-0.4,0.3-0.6,0
		l-0.4-0.5l1.2-0.9l-0.3-0.3l-1.1,0.8l-0.1-0.2c0,0.5-0.1,0.8-0.1,1.1c-0.2,0-0.2,0-0.3,0c0.1-0.3,0.2-0.8,0.2-1.3l-0.7,0.5
		l-0.2-0.2l0.8-0.7c0-0.3-0.1-0.4-0.1-0.5l-0.8,0.6l-0.2-0.2l0.8-0.6c-0.1-0.4-0.2-0.6-0.3-0.7l0.3-0.1c0,0,0.1,0,0.1,0
		c0,0.1,0,0.1-0.1,0.2c0.1,0.2,0.1,0.3,0.2,0.5l1.2-1l0.2,0.2l-0.8,0.6c0.1,0,0.2,0.1,0.5,0.2l0.8-0.6l0.2,0.2l-0.7,0.5
		c0.3,0.1,0.7,0.1,1.3,0.1C176.8,177.7,176.8,177.8,176.8,177.9 M173.5,177.8c-0.2-0.1-0.4-0.2-0.6-0.2l0.1-0.2
		c0.2,0.1,0.5,0.2,0.6,0.2C173.5,177.7,173.5,177.7,173.5,177.8 M175.2,175.3l-3.3,2.5l2.6,3.4l3.2-2.5L175.2,175.3 M178.2,179.2
		l-0.2-0.3l-3.3,2.5l0.2,0.3l-0.3,0.2l-3.2-4.2l3.8-2.9l3.2,4.2L178.2,179.2"/>
	<path class="st7" d="M180.2,172.5l-1.3,1l0.4,0.5c0.2,0.2,0.4,0.5,0.5,0.8l1.3-1L180.2,172.5z M178.7,173.7l-1.3,1l0.9,1.2l1.2-1
		c-0.1-0.3-0.4-0.5-0.5-0.8L178.7,173.7 M183.3,175.2c-0.7,0.2-2.1,0.6-3.3,0c0.5,1.4-0.4,2.6-0.8,3.2c-0.1,0-0.1-0.1-0.4-0.1
		c0.3-0.4,1.4-1.7,0.9-3.1l-1.9,1.5l-0.2-0.2l0.5-0.4l-1.1-1.4l1.5-1.2l-0.7-0.9l0.3-0.2c0.1,0,0.1-0.1,0.2,0c0,0.1,0,0.1-0.1,0.2
		l0.6,0.7l1.5-1.2l1.1,1.4l0.5-0.4l0.2,0.2l-2,1.5c1.2,0.6,2.5,0.1,3.2-0.1C183.2,175,183.3,175,183.3,175.2"/>
	<path class="st7" d="M186.3,170.4l-1.8,1.4l0.3,0.4l1.8-1.4L186.3,170.4z M185.8,169.7l-1.8,1.4l0.3,0.4l1.8-1.4L185.8,169.7
		 M185.3,169.2l-1.8,1.4l0.3,0.4l1.8-1.4L185.3,169.2 M184,169.1c0.1,0.2,0.1,0.5,0.2,0.6l1.3-1l1.8,2.3l-0.2,0.2l-0.2-0.3l-1.8,1.4
		l0.2,0.3l-0.2,0.2l-1.8-2.3l0.7-0.6c0-0.2-0.1-0.4-0.2-0.6l-1.3,1l-0.2-0.2l0.8-0.7c-0.2-0.1-0.5-0.2-0.8-0.2l0.1-0.3
		c0.3,0.1,0.6,0.2,0.8,0.3c-0.1,0.1-0.1,0.2-0.1,0.2l1-0.8c-0.1-0.5-0.1-0.5-0.2-0.9l0.4-0.1c0,0,0.1,0,0.1,0c0,0.1,0,0.1-0.1,0.2
		c0,0.3,0.1,0.4,0.1,0.6l0.9-0.7l0.2,0.2L184,169.1 M188,171.4l-1.9,1.5c-0.8,0.6-1.2,0.9-1.9,0.6c0,0.2-0.2,0.8-0.2,0.9
		c0,0,0,0,0.1,0.1c0,0,0,0.1,0,0.1c0,0-0.1,0-0.1,0l-0.3-0.1c0.1-0.3,0.3-0.7,0.3-1l-1.1-1.4l-0.7,0.5l-0.2-0.2l1-0.8l1.1,1.4
		c0.1,0.1,0.2,0.3,0.4,0.3c0.5,0.1,0.9-0.2,1.4-0.5c1.6-1.3,1.8-1.4,2.1-1.7C187.9,171.1,187.9,171.2,188,171.4 M182.3,170.8
		c-0.6-0.1-1-0.1-1.5-0.2l0-0.3c0.4,0,0.9,0.1,1.5,0.1C182.3,170.6,182.3,170.7,182.3,170.8"/>
</g>
<g>
	<path class="st7" d="M12.4,75h-1.5v0.6h1.5V75z M10.9,75.9v0.3h-0.3v-1.5h2.2v1.1H10.9 M12.8,72.8h-2.3v0.6h2.3V72.8 M10.2,73.7
		v-1.2h3v1.2H10.2 M13,76.7c0-0.2,0-0.2-0.1-0.4c0.1,0,0.2,0,0.4,0c0.3,0,0.3-0.1,0.3-0.4v-1.6H9.7v2.4H9.4v-2.6h4.6v2
		C13.9,76.6,13.8,76.7,13,76.7 M9,72.1v-0.3h2.5v-0.5l0.3,0c0.1,0,0.2,0,0.2,0.1c0,0.1-0.1,0.1-0.2,0.1v0.3h2.6v0.3H9"/>
	<path class="st7" d="M18.2,73.4c0.1,0.6,0.3,1.3,0.7,1.9c0.5-0.7,0.6-1.5,0.7-1.9H18.2z M20.2,76.7c-0.6-0.3-1-0.6-1.3-0.9
		c-0.3,0.3-0.7,0.6-1.4,1c-0.1-0.1-0.2-0.2-0.3-0.3c0.7-0.3,1.1-0.7,1.4-1c-0.5-0.6-0.8-1.6-0.8-2.2h-0.2c0,0.6-0.1,2.1-1.3,3.4
		c-0.1-0.1-0.1-0.2-0.2-0.2c1.1-1.3,1.2-2.2,1.2-3.9v-1.2h3.1v0.3h-2.8v1.2h2.1l0.2,0.1c-0.1,1.4-0.6,2.1-0.8,2.4
		c0.5,0.5,1.1,0.8,1.3,0.9C20.3,76.6,20.2,76.6,20.2,76.7 M16,73.2v2.1c0.3-0.1,0.5-0.2,0.8-0.3c0,0.1,0,0.2,0,0.3
		c-0.6,0.3-1.1,0.4-1.7,0.6c0,0.1,0,0.2-0.1,0.2C15,76,15,76,15,75.9l0-0.3c0.2,0,0.4-0.1,0.8-0.2v-2.2h-0.8v-0.3h0.8v-1.5l0.3,0
		c0.1,0,0.1,0,0.1,0.1c0,0.1-0.1,0.1-0.1,0.1v1.3h0.9v0.3H16"/>
	<path class="st7" d="M23.9,72.9c0-0.6-0.3-1.1-1.2-1.1c-0.2,0-1.2,0-1.2,0.9c0,0.6,0.5,0.8,1.3,1c1.2,0.4,1.6,0.7,1.6,1.4
		c0,0.9-0.8,1.3-1.7,1.3c-0.5,0-1.2-0.2-1.5-0.7c-0.2-0.3-0.2-0.7-0.3-0.9h0.4c0,0.1,0,0.4,0.1,0.7c0.2,0.3,0.7,0.5,1.2,0.5
		c0.7,0,1.3-0.4,1.3-1c0-0.6-0.5-0.7-1.2-1c-1.1-0.3-1.7-0.5-1.7-1.3c0-0.7,0.6-1.3,1.5-1.3c1.1,0,1.6,0.5,1.6,1.4H23.9z"/>
	<path class="st7" d="M27,71.9l-1.1,2.8H28L27,71.9z M27.2,71.6l1.8,4.7h-0.4l-0.4-1.1h-2.5l-0.4,1.1h-0.4l1.8-4.7H27.2"/>
</g>
<g>
	<path class="st7" d="M32.3,84.6h-1.4V85h1.4V84.6z M32.3,83.9h-1.4v0.4h1.4V83.9 M31.6,88.9c0-0.1-0.1-0.3-0.1-0.4
		c0.1,0,0.2,0,0.4,0c0.3,0,0.4-0.1,0.4-0.3v-2.9h-1.7v-1.7h2v4.6C32.6,88.8,32.4,88.9,31.6,88.9 M30.4,87.3c0.1,0.3,0.4,0.7,1.2,1.1
		c0,0-0.1,0.1-0.2,0.3c-0.6-0.3-0.9-0.7-1.2-1.3c-0.3,0.9-1.2,1.2-1.4,1.3c-0.1-0.2-0.2-0.2-0.2-0.3c0.3-0.1,1.2-0.4,1.4-1.2h-1.3
		V87H30c0-0.3,0-0.4,0-0.5h-1.2v-0.3h0.7c-0.1-0.1-0.2-0.3-0.4-0.6l0.3-0.1c0.1,0.1,0.3,0.3,0.4,0.6l-0.3,0.1h1
		c0.1-0.1,0.3-0.5,0.4-0.7l0.3,0.1c0.1,0,0.1,0,0.1,0.1c0,0.1-0.1,0.1-0.2,0.1c-0.1,0.2-0.2,0.4-0.3,0.5h0.8v0.3h-1.2
		c0,0.2,0,0.4,0,0.5h1.4v0.3H30.4 M29.5,84.6h-1.4V85h1.4V84.6 M29.5,83.9h-1.4v0.4h1.4V83.9 M28.1,85.3v3.6h-0.3v-5.3h2v1.7H28.1"
		/>
	<path class="st7" d="M32.3,90.4c-0.2-0.3-0.3-0.5-0.6-0.7l0.2-0.2c0.3,0.3,0.4,0.5,0.6,0.7C32.4,90.3,32.4,90.3,32.3,90.4z
		 M32.3,93.9c-0.2,0-0.4-0.1-0.7-0.7c-0.2,0.3-0.3,0.4-0.6,0.7c0,0-0.1-0.1-0.3-0.2c0.2-0.2,0.5-0.4,0.8-0.8c-0.3-0.9-0.3-1.6-0.3-2
		h-0.7V93c0.3-0.1,0.5-0.2,0.6-0.3c0,0.2,0,0.2,0.1,0.3c-0.6,0.3-1,0.5-1.3,0.6c0,0.1,0,0.2-0.1,0.2c-0.1,0-0.1-0.1-0.1-0.1
		l-0.1-0.4c0.2-0.1,0.4-0.1,0.6-0.2v-2.6h1v-1.2l0.4,0c0.1,0,0.1,0,0.1,0.1c0,0.1-0.1,0.1-0.2,0.1c0,0.1,0,0.7,0,1h1.3v0.3h-1.3
		c0,0.9,0.1,1.3,0.2,1.7c0.3-0.5,0.4-1,0.5-1.3l0.3,0.2c0.1,0,0.1,0.1,0.1,0.1c0,0.1-0.1,0.1-0.1,0.1c0,0-0.1,0-0.1,0
		c-0.1,0.3-0.3,0.8-0.6,1.3c0.1,0.2,0.3,0.7,0.4,0.7c0.2,0,0.3-0.8,0.3-0.8c0.1,0.1,0.2,0.1,0.3,0.2C32.8,93.3,32.7,93.9,32.3,93.9
		 M32.9,94.7h-1.8c-1.3,0-2.4-0.1-3-1.3c-0.1,0.7-0.2,0.9-0.4,1.4c-0.1,0-0.2-0.1-0.3-0.1c0.2-0.4,0.5-1.1,0.6-2.4l0.3,0
		c0.1,0,0.1,0,0.1,0.1c0,0.1-0.1,0.1-0.2,0.1c0,0.3-0.1,0.5-0.1,0.5c0.1,0.3,0.3,0.5,0.5,0.7v-2.1h-1.2v-0.3h1.2v-0.9h-1v-0.3h1
		v-0.8l0.3,0c0,0,0.1,0,0.1,0.1c0,0.1-0.1,0.1-0.1,0.1v0.6h1v0.3h-1v0.9H30v0.3H29v0.9h0.9v0.3H29v1.2c0.6,0.4,1.4,0.4,2.6,0.4
		c0.6,0,0.6,0,1.4-0.1C32.9,94.4,32.9,94.5,32.9,94.7"/>
	<path class="st7" d="M31.8,99h-3.3v1h3.3V99z M31.8,97.8h-3.3v0.9h3.3V97.8 M31.8,96.5h-3.3v0.9h3.3V96.5 M31.8,100.8v-0.5h-3.3
		v0.5h-0.3v-4.5h1.2c0.2-0.4,0.2-0.5,0.4-1l0.3,0.1c0.1,0,0.2,0.1,0.2,0.1c0,0.1-0.1,0.1-0.2,0.1c-0.1,0.2-0.2,0.5-0.3,0.7h2.4v4.5
		H31.8"/>
	<path class="st7" d="M32.4,106.2c-0.2,0.5-0.5,0.5-1,0.5c0-0.2-0.1-0.3-0.1-0.4c0.3,0,0.4,0,0.5,0c0.2,0,0.4,0,0.5-0.8
		c0.1-0.8,0.2-2,0.2-2.5h-0.8c0,1.7-0.6,2.8-1.2,3.7c-0.1-0.1-0.2-0.1-0.3-0.2c0.9-1.2,1.2-2.2,1.2-3.6h-0.7v-0.3h0.7v-1.4l0.3,0
		c0.1,0,0.2,0,0.2,0.1c0,0.1-0.1,0.1-0.1,0.1v1.2h1.2C32.7,103.4,32.7,105.4,32.4,106.2z M29.9,104h-0.8v0.5h0.8V104 M29.9,103.3
		h-0.8v0.5h0.8V103.3 M28.9,104h-0.7v0.5h0.7V104 M28.9,103.3h-0.7v0.5h0.7V103.3 M29.2,102.7v0.4h1.1v1.7h-1.1v0.5h1v0.3h-1v0.6
		c0.6-0.1,0.7-0.1,1.2-0.2c0,0.1-0.1,0.2-0.1,0.3c-0.6,0.1-1.1,0.2-2.4,0.4c0,0.1,0,0.1-0.1,0.1c-0.1,0-0.1-0.1-0.1-0.1l-0.1-0.3
		c0.7-0.1,1.2-0.1,1.3-0.1v-0.6h-1v-0.3h1v-0.5h-1v-1.7h1v-0.4h-1.3v-0.3h1.3v-0.5c-0.5,0.1-0.8,0.1-1.1,0.1c0-0.1-0.1-0.2-0.1-0.3
		c0.1,0,1.4,0,2.4-0.4l0.2,0.2c0,0,0,0.1,0,0.1c0,0,0,0,0,0c0,0-0.1,0-0.1,0c-0.4,0.1-0.7,0.2-0.9,0.2v0.5h1.4v0.3H29.2"/>
	<path class="st7" d="M31.7,109.8h-1.4v0.6h1.4V109.8z M31.7,109h-1.4v0.6h1.4V109 M30,109.8h-1.4v0.6H30V109.8 M30,109h-1.4v0.6H30
		V109 M30.3,111.6v1.2H30v-1.2h-2.6v-0.3H30v-0.6h-1.7v-2H30v-0.6h-2.3v-0.3H30v-0.6l0.3,0c0.1,0,0.2,0,0.2,0.1
		c0,0.1-0.1,0.1-0.2,0.1v0.4h2.3v0.3h-2.3v0.6h1.8v2h-1.8v0.6h2.6v0.3H30.3"/>
	<path class="st7" d="M32.1,116.7h-2.3v0.5h2.3V116.7z M32.1,115.9h-2.3v0.5h2.3V115.9 M32.1,115.2h-2.3v0.5h2.3V115.2 M31,114.3
		c-0.1,0.2-0.2,0.5-0.2,0.6h1.6v2.9h-0.3v-0.3h-2.3v0.3h-0.3v-2.9h0.9c0.1-0.1,0.2-0.4,0.2-0.6H29V114h1.1c-0.1-0.2-0.3-0.4-0.4-0.7
		l0.3-0.1c0.2,0.3,0.4,0.5,0.4,0.7c-0.1,0-0.2,0.1-0.3,0.1h1.2c0.2-0.4,0.3-0.5,0.4-0.8l0.4,0.1c0,0,0.1,0,0.1,0.1
		c0,0.1-0.1,0.1-0.2,0.1c-0.1,0.2-0.2,0.3-0.3,0.5h1.2v0.3H31 M28.6,114.6c-0.4-0.5-0.7-0.7-1.1-1l0.2-0.2c0.3,0.2,0.7,0.6,1.1,1
		C28.8,114.4,28.7,114.5,28.6,114.6 M32.8,118.5h-2.4c-1,0-1.5-0.1-1.9-0.7c-0.1,0.2-0.6,0.5-0.7,0.6c0,0,0,0.1,0,0.1
		c0,0.1,0,0.1-0.1,0.1c0,0-0.1,0-0.1-0.1l-0.2-0.3c0.3-0.2,0.6-0.4,0.9-0.6v-1.8h-0.9v-0.3h1.2v1.8c0,0.1,0,0.3,0.1,0.5
		c0.3,0.4,0.8,0.4,1.4,0.4c2,0,2.3,0,2.7-0.1C32.8,118.3,32.8,118.4,32.8,118.5"/>
</g>
<line class="st8" x1="87.3" y1="10.8" x2="167.5" y2="36.2"/>
<line class="st9" x1="129.2" y1="24.8" x2="16.9" y2="24.8"/>
<line class="st9" x1="104.6" y1="56.6" x2="7.3" y2="56.6"/>
<line class="st9" x1="103.7" y1="80.2" x2="7.6" y2="80.2"/>
<line class="st9" x1="117.9" y1="138.7" x2="7.3" y2="138.7"/>
<line class="st10" x1="119.6" y1="92" x2="104.6" y2="92"/>
<line class="st10" x1="119.6" y1="120.4" x2="85" y2="120.4"/>
<line class="st10" x1="119.6" y1="129.4" x2="104.6" y2="129.4"/>
<line class="st9" x1="91.8" y1="152" x2="7.6" y2="152"/>
<g>
	<path class="st0" d="M126.4,22.3c-1.1-1.9-0.2-3.5,2-3.5h6.8c2.2,0,3.2,1.6,2,3.5l-3.4,5.8c-1.1,1.9-3,1.9-4.1,0L126.4,22.3z"/>
	<path class="st0" d="M126.4,22.3c-1.1-1.9-0.2-3.5,2-3.5h6.8c2.2,0,3.2,1.6,2,3.5l-3.4,5.8c-1.1,1.9-3,1.9-4.1,0L126.4,22.3z"/>
	<path class="st11" d="M126.4,22.3c-1.1-1.9-0.2-3.5,2-3.5h6.8c2.2,0,3.2,1.6,2,3.5l-3.4,5.8c-1.1,1.9-3,1.9-4.1,0L126.4,22.3z"/>
	<path class="st12" d="M126.4,22.3c-1.1-1.9-0.2-3.5,2-3.5h6.8c2.2,0,3.2,1.6,2,3.5l-3.4,5.8c-1.1,1.9-3,1.9-4.1,0L126.4,22.3z"/>
	<path class="st12" d="M126.4,22.3c-1.1-1.9-0.2-3.5,2-3.5h6.8c2.2,0,3.2,1.6,2,3.5l-3.4,5.8c-1.1,1.9-3,1.9-4.1,0L126.4,22.3z"/>
	<path class="st13" d="M126.4,22.3c-1.1-1.9-0.2-3.5,2-3.5h6.8c2.2,0,3.2,1.6,2,3.5l-3.4,5.8c-1.1,1.9-3,1.9-4.1,0L126.4,22.3z"/>
	<path class="st13" d="M126.4,22.3c-1.1-1.9-0.2-3.5,2-3.5h6.8c2.2,0,3.2,1.6,2,3.5l-3.4,5.8c-1.1,1.9-3,1.9-4.1,0L126.4,22.3z"/>
	<path class="st7" d="M130.3,24.3v0.5h-2.4c0-0.7,0.3-1,1.2-1.7c0.5-0.4,0.6-0.6,0.6-0.8c0-0.4-0.3-0.5-0.6-0.5
		c-0.5,0-0.6,0.4-0.7,0.8h-0.6c0-0.3,0.1-1.4,1.2-1.4c0.7,0,1.1,0.5,1.1,1c0,0.5-0.2,0.8-0.8,1.2c-0.5,0.4-0.7,0.6-0.9,0.8H130.3z"
		/>
	<path class="st7" d="M132.8,21.3v0.5h-1.4l-0.1,0.9c0.2-0.2,0.4-0.2,0.6-0.2c0.6,0,1,0.4,1,1.2c0,0.3-0.1,1.3-1.2,1.3
		c-1,0-1.2-0.8-1.2-1.1h0.6c0.1,0.5,0.5,0.5,0.6,0.5c0.4,0,0.6-0.3,0.6-0.7c0-0.3-0.1-0.7-0.6-0.7c-0.3,0-0.5,0.1-0.6,0.2h-0.6
		l0.3-1.9H132.8z"/>
	<path class="st7" d="M134.7,23.5V22l-0.9,1.5H134.7z M135.3,23.5h0.5V24h-0.5v0.8h-0.5V24h-1.4v-0.5l1.4-2.2h0.5V23.5"/>
</g>
<g>
	<g>
		<polyline class="st14" points="59.1,10.7 59.1,157.6 135.1,158.1 		"/>
		<polyline class="st15" points="59.1,10.7 59.1,157.6 135.1,158.1 		"/>
	</g>
	<g>
		<line class="st14" x1="66.6" y1="158.1" x2="66.6" y2="184.8"/>
		<line class="st16" x1="66.6" y1="159.1" x2="66.6" y2="184.8"/>
	</g>
	<g>
		<rect x="61.4" y="155.8" class="st0" width="13.6" height="5.6"/>
		<rect x="56.6" y="109" class="st0" width="5.6" height="7.4"/>
		<rect x="56.6" y="58.7" class="st0" width="5.6" height="7.4"/>
		<path d="M75,155.7H61.1v6H75V155.7z M74.7,156v5.3H61.5V156H74.7"/>
		<path d="M62.2,108.8h-6v7.8h6V108.8z M61.8,109.2v7h-5.2v-7H61.8"/>
		<path d="M62.2,58.5h-6v7.8h6V58.5z M61.8,58.9v7h-5.2v-7H61.8"/>
	</g>
</g>
<g>
	<path class="st7" d="M121.4,176.6c0-0.3-0.1-0.5-0.1-0.7l0.2-0.1c0.1,0.3,0.1,0.5,0.1,0.7C121.5,176.5,121.5,176.5,121.4,176.6z
		 M120.9,176.8c0-0.3,0-0.6-0.1-0.9l0.2,0c0.1,0.5,0.1,0.7,0.1,0.9C121,176.7,120.9,176.8,120.9,176.8 M120.3,177c0-0.1,0-0.3,0-0.5
		c0-0.3,0-0.4,0-0.5l0.2,0c0.1,0.5,0.1,0.8,0.1,1C120.5,176.9,120.4,176.9,120.3,177 M121.6,173.5h-1.5v0.5h1.5V173.5 M121.6,172.7
		h-1.5v0.5h1.5V172.7 M120.1,174.9v0.4h2.1c-0.1,2.1-0.3,2.1-1.1,2.1h-0.1c0-0.1-0.1-0.3-0.1-0.4c0.1,0,0.3,0.1,0.4,0.1
		c0.2,0,0.3-0.1,0.4-0.3c0.1-0.3,0.1-0.4,0.2-1.2h-2.1v-3.1h0.8c0.1-0.2,0.1-0.4,0.2-0.6l0.3,0c0.1,0,0.1,0,0.1,0.1
		c0,0.1-0.1,0.1-0.2,0.1c-0.1,0.2-0.1,0.3-0.2,0.4h1v1.8h-1.8v0.4h2.2v0.3H120.1 M120,176c-0.1,0.4-0.1,0.7-0.3,1.1
		c-0.1-0.1-0.2-0.1-0.3-0.1c0.2-0.4,0.3-0.8,0.3-1.2l0.3,0.1c0,0,0.1,0,0.1,0.1C120.1,176,120,176,120,176 M118.4,176h-0.6v0.6h0.6
		V176 M118.4,175.1h-0.6v0.6h0.6V175.1 M118.4,174.2h-0.6v0.6h0.6V174.2 M118.7,174.2v0.6h0.7v0.3h-0.7v0.6h0.7v0.3h-0.7v0.6h0.8
		v0.3h-1.7v0.4h-0.3v-2.7c-0.2,0.2-0.3,0.4-0.4,0.5c-0.1-0.1-0.2-0.2-0.2-0.2c0.9-0.7,1.2-1.6,1.3-2.1h-0.7v0.7H117v-1h1.1
		c0-0.2,0-0.4,0-0.6l0.3,0c0.1,0,0.1,0,0.1,0.1c0,0.1-0.1,0.1-0.2,0.1c0,0.2,0,0.3,0,0.4h1.1v1h-0.3v-0.7h-0.9
		c-0.1,0.5-0.2,0.8-0.4,1.1h0.5c0.1-0.3,0.2-0.4,0.3-0.7l0.3,0.1c0.1,0,0.1,0,0.1,0.1c0,0,0,0.1-0.2,0.1c-0.1,0.2-0.2,0.3-0.2,0.4
		h0.8v0.3H118.7"/>
	<path class="st7" d="M125.6,174.4c0,0.5-0.1,1.2-0.6,1.9c-0.2,0.3-0.5,0.7-1.1,1c-0.1-0.1-0.1-0.1-0.2-0.2c0.7-0.4,1.6-1,1.6-2.6
		h-1.3c-0.1,0.2-0.5,0.7-0.9,1.2c-0.1-0.1-0.2-0.2-0.2-0.2c0.6-0.6,1.2-1.4,1.5-2.5l0.3,0.1c0.1,0,0.1,0,0.1,0.1c0,0,0,0.1-0.1,0.1
		c-0.1,0.2-0.2,0.5-0.5,1h2.7v0.3H125.6z"/>
	<path class="st7" d="M131.5,173.5h-3v0.5h3V173.5z M131.5,172.8h-3v0.5h3V172.8 M128.5,175v0.4h4c0,0.5-0.1,1.4-0.4,1.7
		c-0.2,0.2-0.5,0.2-0.9,0.2c0-0.2-0.1-0.3-0.1-0.4c0.1,0,0.2,0,0.4,0c0.2,0,0.3,0,0.4-0.2c0.1-0.2,0.2-0.7,0.2-1.2h-2.5
		c0,0.1,0,0.1-0.2,0.1v0.7h1.2v-0.7l0.3,0c0.1,0,0.2,0,0.2,0.1c0,0.1-0.1,0.1-0.2,0.1v0.8h-3.1v0.4h-0.3v-1.4l0.3,0
		c0.1,0,0.2,0,0.2,0.1c0,0.1-0.1,0.1-0.2,0.1v0.5h1.2v-0.9h-0.9v-3.2h1.1c0.1-0.2,0.2-0.4,0.3-0.6l0.4,0c0,0,0.1,0,0.1,0.1
		c0,0.1-0.1,0.1-0.2,0.1c-0.1,0.2-0.1,0.3-0.2,0.4h2.2v1.8h-3.3v0.4h4.3v0.3H128.5"/>
	<rect x="133.6" y="172.3" class="st7" width="0.4" height="4.7"/>
	<path class="st7" d="M138.4,173.9c-0.1-1.3-1.1-1.4-1.4-1.4c-1.1,0-1.7,1-1.7,2.2c0,1.8,1.1,2.1,1.6,2.1c0.2,0,1.4-0.1,1.5-1.5h0.4
		c-0.2,1.5-1.2,1.8-1.8,1.8c-1.6,0-2-1.5-2-2.4c0-1.3,0.6-2.5,2-2.5c0.8,0,1.3,0.5,1.6,1c0.1,0.3,0.2,0.6,0.2,0.8H138.4z"/>
</g>
<line class="st17" x1="103.4" y1="11" x2="103.4" y2="201.8"/>
<g>
	<path class="st0" d="M98.9,102.3c-1.1-2-0.2-3.5,2-3.5h6.7c2.2,0,3.2,1.6,2,3.5l-3.4,5.8c-1.1,1.9-3,1.9-4.1,0L98.9,102.3z"/>
	<g>
		<path class="st0" d="M98.9,102.3c-1.1-2-0.2-3.5,2-3.5h6.7c2.2,0,3.2,1.6,2,3.5l-3.4,5.8c-1.1,1.9-3,1.9-4.1,0L98.9,102.3z"/>
		<path class="st11" d="M98.9,102.3c-1.1-2-0.2-3.5,2-3.5h6.7c2.2,0,3.2,1.6,2,3.5l-3.4,5.8c-1.1,1.9-3,1.9-4.1,0L98.9,102.3z"/>
		<path class="st11" d="M98.9,102.3c-1.1-2-0.2-3.5,2-3.5h6.7c2.2,0,3.2,1.6,2,3.5l-3.4,5.8c-1.1,1.9-3,1.9-4.1,0L98.9,102.3z"/>
		<path class="st12" d="M98.9,102.3c-1.1-2-0.2-3.5,2-3.5h6.7c2.2,0,3.2,1.6,2,3.5l-3.4,5.8c-1.1,1.9-3,1.9-4.1,0L98.9,102.3z"/>
		<path class="st12" d="M98.9,102.3c-1.1-2-0.2-3.5,2-3.5h6.7c2.2,0,3.2,1.6,2,3.5l-3.4,5.8c-1.1,1.9-3,1.9-4.1,0L98.9,102.3z"/>
		<path class="st13" d="M98.9,102.3c-1.1-2-0.2-3.5,2-3.5h6.7c2.2,0,3.2,1.6,2,3.5l-3.4,5.8c-1.1,1.9-3,1.9-4.1,0L98.9,102.3z"/>
		<path class="st13" d="M98.9,102.3c-1.1-2-0.2-3.5,2-3.5h6.7c2.2,0,3.2,1.6,2,3.5l-3.4,5.8c-1.1,1.9-3,1.9-4.1,0L98.9,102.3z"/>
		<path class="st7" d="M101.7,103.5V102l-0.9,1.5H101.7z M102.2,103.5h0.5v0.5h-0.5v0.8h-0.5V104h-1.4v-0.5l1.4-2.2h0.5V103.5"/>
		<path class="st7" d="M103.6,103c0,0.2,0,1.3,0.6,1.3c0.6,0,0.6-1.1,0.6-1.3c0-0.2,0-1.3-0.6-1.3
			C103.6,101.8,103.6,102.8,103.6,103z M105.4,103c0,0.6-0.1,1.8-1.2,1.8c-1.1,0-1.2-1.2-1.2-1.8c0-0.6,0.1-1.8,1.2-1.8
			C105.3,101.2,105.4,102.4,105.4,103"/>
		<path class="st7" d="M108.1,101.3v0.5c-0.4,0.3-0.7,1.1-0.8,1.3c-0.2,0.7-0.3,1.2-0.3,1.7h-0.6c0-1.7,0.9-2.8,1.1-3h-1.8v-0.5
			H108.1z"/>
	</g>
</g>
<line class="st18" x1="36.2" y1="10.7" x2="36.2" y2="162.9"/>
<line class="st18" x1="220.4" y1="138.8" x2="118.3" y2="208"/>
<g>
	<path class="st0" d="M210.9,148.1c0,2.2-1.8,4-4,4c-2.2,0-4-1.8-4-4c0-2.2,1.8-4,4-4C209.1,144.2,210.9,146,210.9,148.1z"/>
	<path class="st19" d="M210.9,148.1c0,2.2-1.8,4-4,4c-2.2,0-4-1.8-4-4c0-2.2,1.8-4,4-4C209.1,144.2,210.9,146,210.9,148.1z"/>
	<path class="st20" d="M210.9,148.1c0,2.2-1.8,4-4,4c-2.2,0-4-1.8-4-4c0-2.2,1.8-4,4-4C209.1,144.2,210.9,146,210.9,148.1z"/>
	<g>
		<path class="st7" d="M202,161.9c0.1,0.6,0.3,1.3,0.7,1.9c0.5-0.7,0.6-1.5,0.7-1.9H202z M204,165.3c-0.6-0.3-1-0.6-1.3-0.9
			c-0.3,0.3-0.7,0.6-1.4,1c-0.1-0.1-0.2-0.2-0.3-0.3c0.7-0.3,1.2-0.7,1.4-1c-0.5-0.6-0.8-1.6-0.8-2.2h-0.2c0,0.6-0.1,2.1-1.3,3.4
			c-0.1-0.1-0.1-0.2-0.2-0.2c1.1-1.3,1.2-2.2,1.2-3.9v-1.2h3.1v0.3h-2.8v1.2h2.1l0.2,0.1c-0.1,1.4-0.6,2.1-0.8,2.3
			c0.5,0.5,1.1,0.8,1.3,0.9C204.1,165.1,204.1,165.2,204,165.3 M199.9,161.7v2.1c0.3-0.1,0.5-0.2,0.8-0.3c0,0.1,0,0.2,0,0.3
			c-0.6,0.3-1.1,0.4-1.7,0.6c0,0.1,0,0.2-0.1,0.2c-0.1,0-0.1-0.1-0.1-0.1l0-0.3c0.2,0,0.4-0.1,0.8-0.2v-2.2h-0.8v-0.3h0.8v-1.5
			l0.3,0c0.1,0,0.1,0,0.1,0.1s-0.1,0.1-0.1,0.1v1.3h0.9v0.3H199.9"/>
		<path class="st7" d="M209.2,161.6h-3.2c0,0.2,0,1.1,0,1.3h3.3V161.6z M205,160.4v-0.3h4.9v0.3H205 M209.2,163.4v-0.3h-3.3
			c0,0.7-0.2,1.4-0.8,2.3c-0.1-0.1-0.2-0.2-0.3-0.2c0.7-0.9,0.8-1.9,0.8-2.7v-1.2h3.9v2.2H209.2"/>
		<rect x="211" y="160.1" class="st7" width="0.4" height="4.7"/>
		<path class="st7" d="M215.7,161.8c-0.1-1.3-1.1-1.4-1.4-1.4c-1.1,0-1.7,1-1.7,2.2c0,1.8,1.1,2.1,1.6,2.1c0.2,0,1.4-0.1,1.5-1.5
			h0.4c-0.2,1.5-1.2,1.8-1.8,1.8c-1.6,0-2-1.5-2-2.4c0-1.3,0.6-2.5,2-2.5c0.8,0,1.3,0.5,1.6,0.9c0.1,0.3,0.2,0.6,0.2,0.8H215.7z"/>
	</g>
	<line class="st21" x1="206.8" y1="152.5" x2="206.6" y2="159.4"/>
</g>
<rect x="33" y="142.1" class="st0" width="7" height="4.5"/>
<rect x="33" y="142.1" class="st22" width="7" height="4.5"/>
<rect x="33" y="142.1" class="st23" width="7" height="4.5"/>
<line class="st21" x1="35.8" y1="142.9" x2="23.3" y2="133.3"/>
<g>
	<path class="st0" d="M41.5,24.6c0,3.3-2.7,6-6,6c-3.3,0-6-2.7-6-6c0-3.3,2.7-6,6-6C38.8,18.6,41.5,21.3,41.5,24.6z"/>
	<path class="st24" d="M41.5,24.6c0,3.3-2.7,6-6,6c-3.3,0-6-2.7-6-6c0-3.3,2.7-6,6-6C38.8,18.6,41.5,21.3,41.5,24.6z"/>
	<path class="st25" d="M41.5,24.6c0,3.3-2.7,6-6,6c-3.3,0-6-2.7-6-6c0-3.3,2.7-6,6-6C38.8,18.6,41.5,21.3,41.5,24.6z"/>
	<g>
		<path class="st7" d="M9.7,17h1.5v-0.6H9.7V17z M9.7,16.1h1.5v-0.6H9.7V16.1 M9.4,16.4H7.9V17h1.5V16.4 M9.4,15.5H7.9v0.6h1.5V15.5
			 M9.7,19.2H9.4v-1.8c-0.7,0.8-1.4,1.3-2.3,1.7c-0.1-0.1-0.2-0.2-0.3-0.3c0.4-0.2,1.4-0.5,2.3-1.5H7.6v-2h1.8v-0.5H6.8v-0.3h2.6
			v-0.8l0.3,0c0.1,0,0.2,0,0.2,0.1c0,0,0,0.1-0.2,0.1v0.5h2.6v0.3H9.7v0.5h1.8v2H9.9c0.7,0.7,1.5,1.1,2.4,1.5
			c-0.1,0.1-0.2,0.2-0.2,0.3c-1.2-0.6-1.9-1.2-2.4-1.7V19.2"/>
		<path class="st7" d="M18.1,16.5c-0.8-0.8-1.1-1.7-1.1-2.2h-0.6V14h0.9c0,0.8,0.4,1.6,1.1,2.3C18.2,16.3,18.2,16.4,18.1,16.5z
			 M15.9,14.5c-0.2,0.9-0.6,1.5-0.9,2c-0.1-0.1-0.2-0.1-0.3-0.2c0.3-0.4,0.8-1,0.9-2.1l0.3,0.1c0.1,0,0.1,0,0.1,0.1
			C16.1,14.4,16,14.5,15.9,14.5 M17.9,19.1c-0.1-0.3-0.1-0.4-0.2-0.7c-0.8,0.2-1.8,0.4-2.6,0.6c0,0.1-0.1,0.1-0.1,0.1
			c-0.1,0-0.1-0.1-0.1-0.1l-0.1-0.4c0.2,0,0.4,0,0.6-0.1c0.2-0.5,0.6-1.5,0.9-2.9l0.4,0.1c0.1,0,0.1,0,0.1,0.1
			c0,0.1-0.1,0.1-0.2,0.1c-0.2,0.9-0.5,1.6-0.8,2.5c0.7-0.1,1.3-0.2,1.9-0.4c0-0.1-0.2-0.6-0.6-1.3l0.3-0.2c0.5,0.9,0.8,1.6,1,2.2
			C18.1,18.9,17.9,19,17.9,19.1 M14.9,17.3c-0.4-0.6-0.7-1.2-0.7-1.4v3.3h-0.3v-3.3c-0.1,0.3-0.3,1.3-0.9,2.2
			c-0.1-0.1-0.1-0.2-0.3-0.2c0.6-0.7,1-1.8,1.2-2.6h-1V15h1.1v-1.3l0.3,0c0.1,0,0.1,0,0.1,0.1s0,0.1-0.2,0.1V15h0.9v0.3h-0.9v0.2
			c0.2,0.4,0.5,0.9,1,1.5C15,17.1,14.9,17.2,14.9,17.3"/>
		<path class="st7" d="M23.8,15.1v4.1h-0.3v-0.7h-4.1v0.7h-0.3v-4.3l0.3,0c0,0,0.2,0,0.2,0.1c0,0.1-0.1,0.1-0.2,0.1v3.1h1.8v-4.5
			l0.3,0c0,0,0.2,0,0.2,0.1c0,0.1-0.1,0.1-0.2,0.1v4.2h1.9v-3.3l0.3,0c0,0,0.2,0,0.2,0.1C24,15.1,23.9,15.1,23.8,15.1z"/>
		<rect x="25" y="14.1" class="st7" width="0.4" height="4.7"/>
		<path class="st7" d="M29.8,15.7c-0.1-1.3-1.1-1.4-1.4-1.4c-1.1,0-1.7,1-1.7,2.2c0,1.8,1.1,2.1,1.6,2.1c0.2,0,1.4-0.1,1.5-1.5h0.4
			c-0.2,1.5-1.2,1.8-1.8,1.8c-1.6,0-2-1.5-2-2.4c0-1.3,0.6-2.5,2-2.5c0.8,0,1.3,0.5,1.6,0.9c0.1,0.3,0.2,0.6,0.2,0.8H29.8z"/>
	</g>
</g>
<line class="st18" x1="36.5" y1="162.9" x2="165.2" y2="201.9"/>
<g>
	<path class="st0" d="M109.3,183.2c0,3.3-2.7,6-6,6c-3.3,0-6-2.7-6-6c0-3.3,2.7-6,6-6C106.6,177.3,109.3,179.9,109.3,183.2z"/>
	<path class="st24" d="M109.3,183.2c0,3.3-2.7,6-6,6c-3.3,0-6-2.7-6-6c0-3.3,2.7-6,6-6C106.6,177.3,109.3,179.9,109.3,183.2z"/>
	<path class="st25" d="M109.3,183.2c0,3.3-2.7,6-6,6c-3.3,0-6-2.7-6-6c0-3.3,2.7-6,6-6C106.6,177.3,109.3,179.9,109.3,183.2z"/>
	<line class="st21" x1="116.1" y1="176" x2="109.6" y2="180.3"/>
</g>
<path class="st26" d="M40.8,73.5c0,2.7-2.2,4.8-4.8,4.8c-2.7,0-4.8-2.2-4.8-4.8c0-2.7,2.2-4.8,4.8-4.8
	C38.7,68.7,40.8,70.8,40.8,73.5z"/>
<path class="st27" d="M29.1,40.6c1.3,0,1.3,0.8,2.6,0.8c1.3,0,1.3-0.8,2.6-0.8c1.3,0,1.3,0.8,2.6,0.8c1.3,0,1.3-0.8,2.6-0.8
	c1.3,0,1.3,0.8,2.6,0.8"/>
<path class="st27" d="M29.1,38.8c1.3,0,1.3,0.8,2.6,0.8c1.3,0,1.3-0.8,2.6-0.8c1.3,0,1.3,0.8,2.6,0.8c1.3,0,1.3-0.8,2.6-0.8
	c1.3,0,1.3,0.8,2.6,0.8"/>
<g>
	<path class="st28" d="M29.1,40.6c1.3,0,1.3,0.8,2.6,0.8c1.3,0,1.3-0.8,2.6-0.8c1.3,0,1.3,0.8,2.6,0.8c1.3,0,1.3-0.8,2.6-0.8
		c1.3,0,1.3,0.8,2.6,0.8"/>
	<path class="st28" d="M29.1,38.8c1.3,0,1.3,0.8,2.6,0.8c1.3,0,1.3-0.8,2.6-0.8c1.3,0,1.3,0.8,2.6,0.8c1.3,0,1.3-0.8,2.6-0.8
		c1.3,0,1.3,0.8,2.6,0.8"/>
</g>
<path class="st27" d="M52,40.6c1.3,0,1.3,0.8,2.6,0.8c1.3,0,1.3-0.8,2.6-0.8c1.3,0,1.3,0.8,2.6,0.8c1.3,0,1.3-0.8,2.6-0.8
	c1.3,0,1.3,0.8,2.6,0.8"/>
<path class="st27" d="M52,38.8c1.3,0,1.3,0.8,2.6,0.8c1.3,0,1.3-0.8,2.6-0.8c1.3,0,1.3,0.8,2.6,0.8c1.3,0,1.3-0.8,2.6-0.8
	c1.3,0,1.3,0.8,2.6,0.8"/>
<g>
	<path class="st28" d="M52,40.6c1.3,0,1.3,0.8,2.6,0.8c1.3,0,1.3-0.8,2.6-0.8c1.3,0,1.3,0.8,2.6,0.8c1.3,0,1.3-0.8,2.6-0.8
		c1.3,0,1.3,0.8,2.6,0.8"/>
	<path class="st28" d="M52,38.8c1.3,0,1.3,0.8,2.6,0.8c1.3,0,1.3-0.8,2.6-0.8c1.3,0,1.3,0.8,2.6,0.8c1.3,0,1.3-0.8,2.6-0.8
		c1.3,0,1.3,0.8,2.6,0.8"/>
</g>
<path class="st27" d="M96.7,40.6c1.3,0,1.3,0.8,2.6,0.8c1.3,0,1.3-0.8,2.6-0.8c1.3,0,1.3,0.8,2.6,0.8c1.3,0,1.3-0.8,2.6-0.8
	c1.3,0,1.3,0.8,2.6,0.8"/>
<path class="st27" d="M96.7,38.8c1.3,0,1.3,0.8,2.6,0.8c1.3,0,1.3-0.8,2.6-0.8c1.3,0,1.3,0.8,2.6,0.8c1.3,0,1.3-0.8,2.6-0.8
	c1.3,0,1.3,0.8,2.6,0.8"/>
<g>
	<path class="st28" d="M96.7,40.6c1.3,0,1.3,0.8,2.6,0.8c1.3,0,1.3-0.8,2.6-0.8c1.3,0,1.3,0.8,2.6,0.8c1.3,0,1.3-0.8,2.6-0.8
		c1.3,0,1.3,0.8,2.6,0.8"/>
	<path class="st28" d="M96.7,38.8c1.3,0,1.3,0.8,2.6,0.8c1.3,0,1.3-0.8,2.6-0.8c1.3,0,1.3,0.8,2.6,0.8c1.3,0,1.3-0.8,2.6-0.8
		c1.3,0,1.3,0.8,2.6,0.8"/>
</g>
<g>
	<path class="st7" d="M54.9,74.3h1.5v-0.6h-1.5V74.3z M54.9,73.4h1.5v-0.6h-1.5V73.4 M54.6,73.7h-1.5v0.6h1.5V73.7 M54.6,72.9h-1.5
		v0.6h1.5V72.9 M54.9,76.5h-0.3v-1.8c-0.7,0.8-1.4,1.3-2.3,1.7c-0.1-0.1-0.2-0.2-0.3-0.3c0.4-0.1,1.4-0.5,2.3-1.5h-1.5v-2h1.8v-0.5
		h-2.6v-0.3h2.6V71l0.3,0c0.1,0,0.2,0,0.2,0.1c0,0,0,0.1-0.2,0.1v0.5h2.6v0.3h-2.6v0.5h1.8v2h-1.6c0.7,0.7,1.5,1.1,2.4,1.5
		c-0.1,0.1-0.2,0.2-0.2,0.3c-1.3-0.6-1.9-1.2-2.4-1.7V76.5"/>
	<path class="st7" d="M57,78.3c-0.2-0.3-0.5-0.8-0.7-1l0.2-0.2c0.3,0.4,0.7,0.9,0.8,1C57.1,78.1,57.1,78.2,57,78.3z M52.6,77.9v-0.3
		h2.4v0.3H52.6 M56.9,82.4c-0.4,0-0.7-0.5-1-1.2c-0.4-1-0.5-1.9-0.5-2.4h-3.2v-0.3h3.2c0-0.5,0-0.8,0-1.5l0.4,0c0,0,0.1,0,0.1,0.1
		c0,0.1-0.1,0.1-0.1,0.1c0,0.9,0,1,0,1.3h1.9v0.3h-1.9c0.2,2,0.9,3.3,1.2,3.3c0.2,0,0.4-0.6,0.4-1.2c0.1,0.1,0.2,0.1,0.3,0.2
		C57.5,81.9,57.2,82.4,56.9,82.4 M55.2,81.5C55.2,81.6,55.2,81.6,55.2,81.5c-0.8,0.3-1.8,0.5-2.8,0.7c0,0.1-0.1,0.2-0.1,0.2
		c0,0-0.1,0-0.1-0.1l-0.1-0.4c0.2,0,0.3,0,0.5-0.1v-2.4l0.3,0c0.1,0,0.2,0,0.2,0.1c0,0.1-0.1,0.1-0.2,0.1v2.1c0.2,0,0.4-0.1,0.7-0.1
		V79l0.4,0c0,0,0.1,0,0.1,0.1c0,0.1-0.1,0.1-0.2,0.1V80h1.1v0.3H54v1.2c0.2,0,1.1-0.3,1.3-0.3C55.3,81.3,55.2,81.4,55.2,81.5"/>
	<path class="st7" d="M54.9,86.2h1.5v-0.6h-1.5V86.2z M54.9,85.4h1.5v-0.6h-1.5V85.4 M54.6,85.6h-1.5v0.6h1.5V85.6 M54.6,84.8h-1.5
		v0.6h1.5V84.8 M54.9,88.4h-0.3v-1.8c-0.7,0.8-1.4,1.3-2.3,1.7c-0.1-0.1-0.2-0.2-0.3-0.3c0.4-0.1,1.4-0.5,2.3-1.5h-1.5v-2h1.8V84
		h-2.6v-0.3h2.6V83l0.3,0c0.1,0,0.2,0,0.2,0.1c0,0,0,0.1-0.2,0.1v0.5h2.6V84h-2.6v0.5h1.8v2h-1.6c0.7,0.7,1.5,1.1,2.4,1.5
		c-0.1,0.1-0.2,0.2-0.2,0.3c-1.3-0.6-1.9-1.2-2.4-1.7V88.4"/>
	<path class="st7" d="M52.1,94v-0.3h2.4V89l0.4,0c0.1,0,0.2,0,0.2,0.1c0,0.1-0.1,0.1-0.2,0.1v1.8h2.3v0.3h-2.3v2.4h2.7V94H52.1z"/>
	<path class="st7" d="M56.9,96.6h-1.8v0.6h1.8V96.6z M56.9,95.8h-1.8v0.6h1.8V95.8 M57.4,100.1c-0.8-0.8-1.2-1.5-1.3-1.8v1.1
		c0,0.4,0,0.5-0.1,0.6c-0.1,0.2-0.5,0.2-0.9,0.2c0-0.1,0-0.2-0.1-0.3c0.2,0,0.3,0,0.4,0c0.3,0,0.3-0.1,0.3-0.3v-2.2h-1v-1.9h0.8
		c0.2-0.3,0.2-0.4,0.3-0.7l0.3,0c0.1,0,0.1,0,0.1,0.1c0,0.1-0.1,0.1-0.1,0.1c-0.1,0.2-0.2,0.4-0.3,0.5h1.4v1.9h-1v0.4
		c0.1,0.2,0.1,0.3,0.3,0.6c0.3-0.3,0.5-0.5,0.8-0.7l0.2,0.2c0.1,0.1,0.1,0.1,0.1,0.1c0,0,0,0.1-0.1,0.1c0,0,0,0-0.1,0
		c-0.2,0.2-0.5,0.5-0.8,0.6c0.4,0.7,0.9,1.1,1.1,1.2C57.5,100,57.5,100,57.4,100.1 M54.4,100.2c-0.1-0.1-0.1-0.1-0.3-0.2
		c0.5-0.5,0.8-0.9,1-1.6h-0.8v-0.3h0.9l0.2,0.1C55.5,98.3,55.3,99.2,54.4,100.2 M53.9,99.3c-0.1-0.5-0.2-0.8-0.2-1.2l0.3-0.1
		c0.1,0.4,0.2,0.7,0.3,1.1C54.1,99.2,54.1,99.3,53.9,99.3 M52.7,98.4c-0.1,0.5-0.1,0.9-0.3,1.3c-0.1-0.1-0.3-0.1-0.3-0.1
		c0.2-0.4,0.3-1,0.4-1.5l0.3,0c0,0,0.1,0,0.1,0.1C52.8,98.4,52.7,98.4,52.7,98.4 M54.2,98c0-0.1-0.1-0.2-0.1-0.4
		c-0.2,0-0.3,0.1-0.7,0.1v2.6h-0.3v-2.6c-0.4,0-0.5,0.1-0.8,0.1c0,0,0,0.1-0.1,0.1c0,0-0.1,0-0.1-0.2l0-0.3c0.1,0,0.2,0,0.5,0
		c0.1-0.1,0.1-0.2,0.5-0.7c-0.1-0.1-0.5-0.5-1-0.9l0.2-0.3c0.1,0.1,0.2,0.1,0.4,0.3c0.4-0.6,0.4-0.7,0.7-1.2l0.3,0.1
		c0,0,0.1,0,0.1,0.1c0,0.1-0.1,0.1-0.2,0.1c-0.2,0.4-0.4,0.7-0.7,1.1c0.1,0.1,0.2,0.2,0.4,0.4c0.5-0.7,0.5-0.8,0.7-1.1l0.3,0.1
		c0,0,0.1,0.1,0.1,0.1c0,0,0,0.1-0.1,0.1c0,0,0,0-0.1,0c-0.7,1.1-1.1,1.6-1.1,1.7c0,0,0.5,0,1.1-0.1c-0.1-0.3-0.2-0.5-0.2-0.5
		l0.3-0.1c0.2,0.5,0.3,0.7,0.5,1.1C54.3,97.9,54.3,97.9,54.2,98"/>
</g>
<text transform="matrix(0.9 0 0 1 190.5421 23.9096)"><tspan x="0" y="0" class="st7 st29 st30">【導引圖</tspan><tspan x="35" y="0" class="st7 st29 st30 st31">】</tspan></text>
<text transform="matrix(1 0 0 1 4.2027 125.8598)"><tspan x="0" y="0" class="st7 st29 st32">坂戸西</tspan><tspan x="0" y="7" class="st7 st29 st32">智</tspan><tspan x="6.1" y="7" class="st7 st29 st32">能IC</tspan></text>
<text transform="matrix(1 0 0 1 110.8702 145.7778)" class="st7 st29 st32">坂戸市政廳</text>
<text transform="matrix(1 0 0 1 0.5816 179.4814)"><tspan x="0" y="0" class="st29 st33">【来訪線路方法</tspan><tspan x="37.7" y="0" class="st29 st33 st34">】</tspan><tspan x="1.4" y="8" class="st29 st33 st35">・</tspan><tspan x="5.7" y="8" class="st29 st33">從鶴</tspan><tspan x="17" y="8" class="st29 st33">島IC</tspan><tspan x="30.1" y="8" class="st29 st33">約5.0Ｋｍ  </tspan><tspan x="2.8" y="16" class="st29 st33">  南地区体育館交差路口右轉</tspan><tspan x="1.4" y="24" class="st29 st33 st35">・</tspan><tspan x="5.7" y="24" class="st29 st33">從坂戸西智</tspan><tspan x="34" y="24" class="st29 st33 st36">能</tspan><tspan x="40.8" y="24" class="st29 st33">IC</tspan><tspan x="47.7" y="24" class="st29 st33">約5.2Ｋｍ</tspan><tspan x="1.4" y="32" class="st29 st33 st35">・</tspan><tspan x="5.7" y="32" class="st29 st33">從東松</tspan><tspan x="22.7" y="32" class="st29 st33 st36">山</tspan><tspan x="29.5" y="32" class="st29 st33">IC</tspan><tspan x="36.3" y="32" class="st29 st33">約6.1Ｋｍ</tspan></text>
<g>
	<defs>
		<path id="SVGID_1_" d="M171.3,21.6c-23.7,0-43.4,20.9-48.2,48.6l-8.3,2.6l7.5,3.9c-0.2,2.1-0.3,4.2-0.3,6.3
			c0,33.9,22,61.5,49.2,61.5c27.2,0,49.2-27.5,49.2-61.5C220.5,49.1,198.5,21.6,171.3,21.6z"/>
	</defs>
	<clipPath id="SVGID_2_">
		<use xlink:href="#SVGID_1_"  style="overflow:visible;"/>
	</clipPath>
	<g class="st37">
		<path class="st38" d="M171.3,21.8c-23.7,0-43.4,20.9-48.2,48.6l-8.3,2.6l7.5,3.9c-0.2,2.1-0.3,4.2-0.3,6.3
			c0,33.9,22,61.5,49.2,61.5c27.2,0,49.2-27.5,49.2-61.5C220.6,49.4,198.5,21.8,171.3,21.8z"/>
		<path class="st39" d="M171.3,21.8c-23.7,0-43.4,20.9-48.2,48.6l-8.3,2.6l7.5,3.9c-0.2,2.1-0.3,4.2-0.3,6.3
			c0,33.9,22,61.5,49.2,61.5c27.2,0,49.2-27.5,49.2-61.5C220.6,49.4,198.5,21.8,171.3,21.8z"/>
		<path class="st40" d="M171.3,21.8c-23.7,0-43.4,20.9-48.2,48.6l-8.3,2.6l7.5,3.9c-0.2,2.1-0.3,4.2-0.3,6.3
			c0,33.9,22,61.5,49.2,61.5c27.2,0,49.2-27.5,49.2-61.5C220.6,49.4,198.5,21.8,171.3,21.8z"/>
		<g>
			<defs>
				<path id="SVGID_3_" d="M171.1,21.6c-23.7,0-43.4,20.9-48.2,48.6l-8.3,2.6l7.5,3.9c-0.2,2.1-0.3,4.2-0.3,6.3
					c0,33.9,22,61.5,49.2,61.5c27.2,0,49.2-27.5,49.2-61.5C220.4,49.1,198.3,21.6,171.1,21.6z"/>
			</defs>
			<clipPath id="SVGID_4_">
				<use xlink:href="#SVGID_3_"  style="overflow:visible;"/>
			</clipPath>
			<path class="st41" d="M121.3,136.1l9.9,0.8l8.5,0.6l9.6-0.8l5-1.1l9.3-1.4h5h1.5h4.4l5.2-0.6l6.7-3.9l3.5-4.8l3.5-5.9l2.6-4.8
				l1.7-5l3.2-5.3l1.8-5.6c0,0,1.5-2.2,3.5-2.2c0,0,2.6,0.6,5.5-0.8c2.9-1.4,8.7-7.6,10.8-7.3c2,0.3,3.2,0.8,4.7,0.8
				c1.5,0,12.8-8.7,12.8-8.7l13.4-11.8l0.3,3.6c0,0-11.1,10.7-14.9,12.6c-3.8,2-13.4,5.9-16.3,7.3c-2.9,1.4-9.9,6.4-9.9,6.4
				s-3.8-2-5.5,0c-1.8,2-5.8,7-6.7,9.5c-0.9,2.5-2.9,8.7-2.3,9.3c0.6,0.6,1.7,2.8,1.7,2.8s-10.8,12.9-14.3,14.6
				c-3.5,1.7-2.3,3.6-10.8,3.9c-8.5,0.3-17.8,1.1-23.3,1.7c-5.5,0.6-22.1,1.7-24.5,1.1c-2.3-0.6-4.7-2.8-4.7-2.8s-8.5,0.3-12.8,1.1
				c-4.4,0.8-7.9,2.8-7.9,2.8l-0.9-2.8C100.7,139.4,116.4,135.8,121.3,136.1z"/>
		</g>
		<line class="st42" x1="158.4" y1="55.3" x2="176.2" y2="45.4"/>
		<line class="st43" x1="165.3" y1="36.5" x2="199.1" y2="65.2"/>
		<path class="st7" d="M173,41l-4.1,16.8l0.9,1.1l7.9-1.4l7-2.2c0,0,5-1.1,5.2-1.4c0.3-0.3,0-0.8,0-0.8l-15.4-17.4L173,41z"/>
		<path class="st44" d="M204.1,75.2l-0.2,0l-12.9-21c4.1-1.1,8.2-2.5,12.2-3.6l7.3,22.8L204.1,75.2z M185.6,76.3l-1-20.4
			c2-0.5,3.8-1.1,5.8-1.7l12.8,21.1L185.6,76.3 M172.4,77l-1-17c1.8-0.5,3.6-1,6.2-1.6c0,0,0-0.6,0-0.6c0.1,0,1.7-0.5,1.7-0.6
			c1.7-0.5,2.7-0.7,4.4-1.1l1.3,20.1L172.4,77 M165.6,77.4c1.1-5.6,2.4-11.6,3.5-16.8c0.5-0.1,1.1-0.3,1.7-0.4l1,16.9L165.6,77.4
			 M162.3,77.6l-2.8,0.2c-0.4-5-0.8-10.1-1.2-14.2c2.5-0.7,4.8-1.3,7.4-2C164.6,66.6,163.4,72.3,162.3,77.6 M161.5,81.6l-1.9-1.6
			c0-0.6-0.1-1.2-0.1-1.7l2.7-0.2C162,79.3,161.7,80.5,161.5,81.6 M148.1,122l-0.7-10.1h4.2v5h0.6v-5h6.2c0,2.4,0,5,0.1,8.1
			L148.1,122 M136.5,112h10.4l0.7,10.2l-10.9,2.1L136.5,112 M136.4,97.9l9.5-0.4l0.8,12.2h-10.2L136.4,97.9 M136.3,91.6l9.2-0.4
			l0.4,5.8l-9.5,0.4L136.3,91.6 M136.9,70.1l7.3-0.3l1.3,20.8l-9.1,0.4l-0.2-20.7C136.4,70.3,136.7,70.2,136.9,70.1 M144.1,67.7
			l0.1,1.5l-5.3,0.2C140.6,68.9,142.3,68.3,144.1,67.7 M143.4,48.1c2-1.2,5.7-3.5,8.6-5.3c1.6,5.2,3.2,10.6,3.9,14.3
			c0.2,1.1,0.4,2.6,0.6,4.4l0-0.1l-12,3.7L143.4,48.1 M141.3,44.4c1.4-0.8,3-1.6,4.6-2.6c1.5-0.9,3.1-1.9,4.8-3
			c0.4,1.1,0.8,2.3,1.1,3.5c-2.8,1.8-6.5,4-8.6,5.3L141.3,44.4 M156.2,35c2.2-1.5,4.2-2.9,5.5-3.6c2.8-1.7,6.9-3.1,7.9-3.4l1.9,3.4
			c-1.5,0.4-2.5,0.8-2.5,0.8l-0.1,0c-0.1,0.1-11.1,6.2-14,8.1c-0.4,0.3-1,0.7-1.8,1.1c-0.4-1.2-0.8-2.4-1.2-3.5
			C153.4,37,154.8,36,156.2,35 M175.3,24.6c-0.6,1.6-1.3,3.7-2.1,6.3c-0.4,0.1-0.8,0.2-1.2,0.3l-2.5-4.6
			C170.3,26.4,172.7,25.4,175.3,24.6 M172.3,31.8c0.2-0.1,0.5-0.1,0.7-0.2c-0.1,0.3-0.2,0.6-0.3,0.9L172.3,31.8 M171.6,49.2
			c1-4.7,2.2-9,3.2-12.7l15,17.1c-3.2,0.9-6.4,1.7-9.6,2.6l-0.6-0.3l-7.9,2.2l-1.8-1.3C170.6,53.8,171.2,51.2,171.6,49.2
			 M162.4,44.5l-0.5,0.4l-7.7,0.4c-0.3-1.1-0.7-2.1-1-3.2c0.8-0.5,1.4-0.9,1.9-1.2c2.8-1.9,13.3-7.8,13.9-8.1
			c0.2-0.1,1.1-0.3,2.4-0.7v1.6l-2.6,0.3l0,0c-1.9,0.9-6.2,3.2-6.5,3.8C162.1,38.2,162.2,42.3,162.4,44.5 M157.3,56.9
			c-0.5-2.9-1.7-6.9-2.9-11l9.8-0.5l0-0.6l-0.8,0L163,44c-0.2-3-0.3-5.8-0.1-6.1c0.2-0.4,3.4-2.1,6.2-3.5l1.3-0.1l0.8,0.3l0.7,0.7
			l0,0c-1.1,3.8-2.3,8.3-3.4,13.3c-0.6,2.6-1.3,6.1-2.2,10.1l-1.2,1.2l-5.5,1.1l-1.2-0.6l-0.6-1.1C157.6,58.4,157.5,57.5,157.3,56.9
			 M144.7,69.2l-0.1-1.6c3.5-1.1,7-2.2,10.4-3.2c0.6-0.2,1.2-0.3,1.7-0.5c0.2,1.5,0.3,3.1,0.5,4.8L144.7,69.2 M146.1,90.5l-1.3-20.8
			l12.5-0.5c0.6,6.8,1.1,14.6,1.5,20.7L146.1,90.5 M159,96.4l-12.5,0.5l-0.4-5.8l12.8-0.6c0.1,1.7,0.2,3.2,0.3,4.5
			C159.1,95.5,159,95.9,159,96.4 M147.3,109.7l-0.8-12.2l12.4-0.5c-0.3,3.3-0.4,7-0.5,12.7H147.3 M159.8,81.8l1.5,1.1
			c-0.4,2-0.7,3.9-1.1,5.6C160.1,86.4,159.9,84.1,159.8,81.8 M176.7,30.5c2.1-0.6,4.3-1.1,5.8-1.4c0.1,0,0.3-0.1,0.4-0.1l0.1,0.4
			l7,23.4l-15-17C175.6,33.9,176.1,32.1,176.7,30.5 M219.4,71.3l-0.2-0.5l-8.1,2.4l-7.2-22.6c2.4-0.7,4.9-1.4,10.2-2.8l-0.2-0.8
			c-5.3,1.4-7.7,2.1-10.1,2.8l-2.1-6.7l11-3.5l-0.2-0.5l-10.9,3.5l-5-16l-0.6,0.2l7.3,23.2c-4.1,1.2-8.2,2.3-12.4,3.5l-7.1-24
			l-0.1-0.4c4.5-0.7,11.7-1.2,11.8-1.2l0-0.6c-0.1,0-8.5,0.6-12.9,1.4c-1.5,0.3-3.5,0.8-5.5,1.3c1-3.2,1.9-5.4,2.3-6.4
			c0.9-0.2,1.7-0.3,2.3-0.4l0-0.6c-0.6,0-1.3,0.2-2,0.3c0,0,0,0,0,0l-3-1.1c0,0-0.3,0.8-0.9,2.2c-2.8,0.9-5.5,2-6.3,2.3l-4.2-7.3
			l0.6,1.5l3.5,6.8c-1.2,0.4-5.2,1.7-7.9,3.4c-1.3,0.8-3.2,2.1-5.5,3.7c-1.3,0.9-2.7,1.8-4.1,2.8c-1.8-5.5-3.3-9.7-3.4-9.8l-1.4,0.5
			c0,0.1,1.6,4.5,3.5,10.2c-0.6,0.4-1.3,0.8-1.9,1.2l-2.8-7.6l-0.8,0.3l2.9,7.8c-0.8,0.5-1.6,1-2.3,1.4c-0.1,0.1-0.3,0.2-0.4,0.2
			l-3.2-8.9l-0.8,0.3l3.2,9c-1,0.6-2,1.1-2.9,1.6l-3-7.9l-0.8,0.3l3,8c-2,1.1-3.7,1.9-4.5,2.3l-1.5-10.8l-0.9,0.1l1.6,11.4
			c-2.2,0.8-5.9,1.4-5.9,1.4l0.1,0.6c0.2,0,5-0.9,6.9-1.9l-0.1-0.1c0.7-0.4,2.3-1.2,4.3-2.2l2,3.2c-0.5,0.3-0.9,0.5-1,0.6L129,52.7
			l-3.2,1.6L142,49l0.1,0c0,0,0.3-0.2,0.8-0.5l1,16.8l-7.2,2.2l0.3,1c-1.4,0.5-2.8,0.9-4.2,1.4l-0.3-5.9l-5.5-11.6l-0.6-0.4
			l5.4,12.1l0.2,5.1l-11.9,4.9l-3.7,2.8c-0.1,0,1.1,1.1,1,1.1l3.1-2.3c4.9-1.9,9.9-3.6,14.8-5.3l0.2,20.5l-2.9,0.1
			c0,0-0.3-0.1-0.3,0.3c0,0.4,0.3,0.3,0.3,0.3l2.9-0.1l0.1,5.8l-2.9,0.1c0,0-0.3,0-0.3,0.3c0,0.3,0.3,0.3,0.3,0.3l2.9-0.1l0.1,11.8
			h-1.1v2.2h1.2l0.1,12.3l-1.3,0.2v1.2l1.3-0.2l0,2.2l0.6,0l0-2.3l21.9-4.1c0,2.9,0.1,6.2,0.1,9.9l-28.4,2.3l0.1,1.1l28.4-2.3
			c0.1,8.2,0.2,18.5,0.4,31.6l3.2-0.1c-0.1-12.8-0.3-23.2-0.4-31.8l15.3-1.4l-0.1-1.1l-15.2,1.4c-0.1-8.1-0.2-14.5-0.1-19.7h0.5
			l3.6,9.1l0.8-0.3l-3.4-8.8h8.4v-0.8h-9.8c0-8.1,0.3-13.1,0.9-16.9c0.6-3.8,1.7-9.4,2.9-15.5l6.3-0.4l1.9,31.4l0.6,0l-1.9-31.4
			l12.7-0.7l1.1,21.8l0.6,0l-1.1-21.8l8.8-0.5l4.4,6.9l0.8,18.5l0.6,0l-0.7-17.5l6.6,10.4l0.5-0.3l-11.4-18l8.4-0.5l7.7,12.6
			l0.5-0.3l-7.6-12.3l6.5-1.9l3.2,10.3l0.6-0.2l-3.2-10.3L219.4,71.3"/>
		<polygon class="st45" points="163.7,29.4 160.7,21.6 159.8,21.8 162.9,29.7 		"/>
		<path class="st0" d="M219.4,71.3l-0.2-0.5l-8.1,2.4l-7.2-22.6c2.4-0.7,4.9-1.4,10.2-2.8l-0.2-0.8c-5.3,1.4-7.7,2.1-10.1,2.8
			l-2.1-6.7l11-3.5l-0.2-0.5l-10.9,3.5l-5-16l-0.6,0.2l7.3,23.2c-4.1,1.2-8.2,2.3-12.4,3.5l-7.1-24l-0.1-0.4
			c4.5-0.7,11.7-1.2,11.8-1.2l0-0.6c-0.1,0-8.5,0.6-12.9,1.4c-1.5,0.3-3.5,0.8-5.5,1.3c1-3.2,1.9-5.4,2.3-6.4
			c0.9-0.2,1.7-0.3,2.3-0.4l0-0.6c-0.6,0-1.3,0.2-2,0.3c0,0,0,0,0,0l-3-1.1c0,0-0.3,0.8-0.9,2.2c-2.8,0.9-5.5,2-6.3,2.3l-4.2-7.3
			l0.6,1.5l3.5,6.8c-0.9,0.3-3.2,1.1-5.4,2.1l-3.1-7.7l-0.9,0.2l3.1,7.8l0.8-0.3c-0.9,0.4-1.8,0.9-2.5,1.3c-1.3,0.8-3.2,2.1-5.5,3.7
			c-1.3,0.9-2.7,1.8-4.1,2.8c-1.8-5.5-3.3-9.7-3.4-9.8l-1.4,0.5c0,0.1,1.6,4.5,3.5,10.2c-0.6,0.4-1.3,0.8-1.9,1.2l-2.8-7.6l-0.8,0.3
			l2.9,7.8c-0.8,0.5-1.6,1-2.3,1.4c-0.1,0.1-0.3,0.2-0.4,0.2l-3.2-8.9l-0.8,0.3l3.2,9c-1,0.6-2,1.1-2.9,1.6l-3-7.9l-0.8,0.3l3,8
			c-2,1.1-3.7,1.9-4.5,2.3l-1.5-10.8l-0.9,0.1l1.6,11.4c-2.2,0.8-5.9,1.4-5.9,1.4l0.1,0.6c0.2,0,5-0.9,6.9-1.9l-0.1-0.1
			c0.7-0.4,2.3-1.2,4.3-2.2l2,3.2c-0.5,0.3-0.9,0.5-1,0.6L129,52.7l-1.4,0.7l-0.4-0.9l-0.6-0.4l0.6,1.4l-1.4,0.7l1.5-0.5l4.7,10.4
			l0.2,5.1l-11.9,4.9l-3.7,2.8c-0.1,0,1.1,1.1,1,1.1l3.1-2.3c4.9-1.9,9.9-3.6,14.8-5.3l0.2,20.5l-2.9,0.1c0,0-0.3-0.1-0.3,0.3
			c0,0.4,0.3,0.3,0.3,0.3l2.9-0.1l0.1,5.8l-2.9,0.1c0,0-0.3,0-0.3,0.3c0,0.3,0.3,0.3,0.3,0.3l2.9-0.1l0.1,11.8h-1.1v2.2h1.2
			l0.1,12.3l-1.3,0.2v1.2l1.3-0.2l0,2.2l0.6,0l0-2.3l21.9-4.1c0,2.9,0.1,6.2,0.1,9.9l-28.4,2.3l0.1,1.1l28.4-2.3
			c0.1,8.2,0.2,18.5,0.4,31.6l3.2-0.1c-0.1-12.8-0.3-23.2-0.4-31.8l15.3-1.4l-0.1-1.1l-15.2,1.4c-0.1-8.1-0.2-14.5-0.1-19.7h0.5
			l3.6,9.1l0.8-0.3l-3.4-8.8h8.4v-0.8h-9.8c0-8.1,0.3-13.1,0.9-16.9c0.6-3.8,1.7-9.4,2.9-15.5l6.3-0.4l1.9,31.4l0.6,0l-1.9-31.4
			l12.7-0.7l1.1,21.8l0.6,0l-1.1-21.8l8.8-0.5l4.4,6.9l0.8,18.5l0.6,0l-0.7-17.5l6.6,10.4l0.5-0.3l-11.4-18l8.4-0.5l7.7,12.6
			l0.5-0.3l-7.6-12.3l6.5-1.9l3.2,10.3l0.6-0.2l-3.2-10.3L219.4,71.3z M176.7,30.5c2.1-0.6,4.3-1.1,5.8-1.4c0.1,0,0.3-0.1,0.4-0.1
			l0.1,0.4l7,23.4l-15-17C175.6,33.9,176.1,32.1,176.7,30.5z M143.4,48.1c2-1.2,5.7-3.5,8.6-5.3c1.6,5.2,3.2,10.6,3.9,14.3
			c0.2,1.1,0.4,2.6,0.6,4.4l0-0.1l-12,3.7L143.4,48.1z M144.2,69.2l-5.3,0.2c1.7-0.6,3.5-1.1,5.3-1.7L144.2,69.2z M162.4,44.5
			l-0.5,0.4l-7.7,0.4c-0.3-1.1-0.7-2.1-1-3.2c0.8-0.5,1.4-0.9,1.9-1.2c2.8-1.9,13.3-7.8,13.9-8.1c0.2-0.1,1.1-0.3,2.4-0.7v1.6
			l-2.6,0.3l0,0c-1.9,0.9-6.2,3.2-6.5,3.8C162.1,38.2,162.2,42.3,162.4,44.5z M155.1,64.4c0.6-0.2,1.2-0.3,1.7-0.5
			c0.2,1.5,0.3,3.1,0.5,4.8l-12.5,0.5l-0.1-1.6C148.1,66.5,151.6,65.4,155.1,64.4z M157.3,69.2c0.6,6.8,1.1,14.6,1.5,20.7l-12.8,0.6
			l-1.3-20.8L157.3,69.2z M157.3,56.9c-0.5-2.9-1.7-6.9-2.9-11l9.8-0.5l0-0.6l-0.8,0L163,44c-0.2-3-0.3-5.8-0.1-6.1
			c0.2-0.4,3.4-2.1,6.2-3.5l1.3-0.1l0.8,0.3l0.7,0.7l0,0c-1.1,3.8-2.3,8.3-3.4,13.3c-0.6,2.6-1.3,6.1-2.2,10.1l-1.2,1.2l-5.5,1.1
			l-1.2-0.6l-0.6-1.1C157.6,58.4,157.5,57.5,157.3,56.9z M171.6,49.2c1-4.7,2.2-9,3.2-12.7l15,17.1c-3.2,0.9-6.4,1.7-9.6,2.6
			l-0.6-0.3l-7.9,2.2l-1.8-1.3C170.6,53.8,171.2,51.2,171.6,49.2z M172.3,31.8c0.2-0.1,0.5-0.1,0.7-0.2c-0.1,0.3-0.2,0.6-0.3,0.9
			L172.3,31.8z M175.3,24.6c-0.6,1.6-1.3,3.7-2.1,6.3c-0.4,0.1-0.8,0.2-1.2,0.3l-2.5-4.6C170.3,26.4,172.7,25.4,175.3,24.6z
			 M156.2,35c2.2-1.5,4.2-2.9,5.5-3.6c2.8-1.7,6.9-3.1,7.9-3.4l1.9,3.4c-1.5,0.4-2.5,0.8-2.5,0.8l-0.1,0c-0.1,0.1-11.1,6.2-14,8.1
			c-0.4,0.3-1,0.7-1.8,1.1c-0.4-1.2-0.8-2.4-1.2-3.5C153.4,37,154.8,36,156.2,35z M141.3,44.4c1.4-0.8,3-1.6,4.6-2.6
			c1.5-0.9,3.1-1.9,4.8-3c0.4,1.1,0.8,2.3,1.1,3.5c-2.8,1.8-6.5,4-8.6,5.3L141.3,44.4z M132.9,70l-0.3-5.9l-4.9-10.4L142,49l0.1,0
			c0,0,0.3-0.2,0.8-0.5l1,16.8l-7.2,2.2l0.3,1C135.6,69,134.2,69.5,132.9,70z M136.2,70.4c0.2-0.1,0.5-0.2,0.7-0.2l7.3-0.3l1.3,20.8
			l-9.1,0.4L136.2,70.4z M136.3,91.6l9.2-0.4l0.4,5.8l-9.5,0.4L136.3,91.6z M136.4,97.9l9.5-0.4l0.8,12.2h-10.2L136.4,97.9z
			 M136.6,124.2l-0.1-12.2h10.4l0.7,10.2L136.6,124.2z M148.1,122l-0.7-10.1h4.2v5h0.6v-5h6.2c0,2.4,0,5,0.1,8.1L148.1,122z
			 M158.5,109.7h-11.1l-0.8-12.2l12.4-0.5C158.6,100.3,158.5,104,158.5,109.7z M159,96.4l-12.5,0.5l-0.4-5.8l12.8-0.6
			c0.1,1.7,0.2,3.2,0.3,4.5C159.1,95.5,159,95.9,159,96.4z M160.2,88.5c-0.1-2.1-0.3-4.4-0.4-6.7l1.5,1.1
			C160.9,84.9,160.5,86.8,160.2,88.5z M161.5,81.6l-1.9-1.6c0-0.6-0.1-1.2-0.1-1.7l2.7-0.2C162,79.3,161.7,80.5,161.5,81.6z
			 M162.3,77.6l-2.8,0.2c-0.4-5-0.8-10.1-1.2-14.2c2.5-0.7,4.8-1.3,7.4-2C164.6,66.6,163.4,72.3,162.3,77.6z M165.6,77.4
			c1.1-5.6,2.4-11.6,3.5-16.8c0.5-0.1,1.1-0.3,1.7-0.4l1,16.9L165.6,77.4z M172.4,77l-1-17c1.8-0.5,3.6-1,6.2-1.6c0,0,0-0.6,0-0.6
			c0.1,0,1.7-0.5,1.7-0.6c1.7-0.5,2.7-0.7,4.4-1.1l1.3,20.1L172.4,77z M185.6,76.3l-1-20.4c2-0.5,3.8-1.1,5.8-1.7l12.8,21.1
			L185.6,76.3z M204.1,75.2l-0.2,0l-12.9-21c4.1-1.1,8.2-2.5,12.2-3.6l7.3,22.8L204.1,75.2z"/>
		<path class="st46" d="M127,50.7c0,0,7.3-0.6,11.7-2.8c4.4-2.2,15.6-9.1,19.7-11.9c4.1-2.8,7.3-4.5,14.1-7.2
			c6.2-2.4,16.3-3.1,19.8-3.6"/>
		<path class="st0" d="M157.4,65.3c-0.3,0-2.9-1.4-2.9-1.4l1.5-1.4l1.7,1.1L157.4,65.3z"/>
		<path class="st47" d="M137.1,68.5c0,0,12-4.2,18.7-5.9"/>
		<path class="st0" d="M157.8,63.2"/>
		<path class="st0" d="M157.8,62"/>
		<path class="st0" d="M159.6,62.6c0,0.3-0.3,0.6-0.6,0.6c-0.3,0-0.6-0.3-0.6-0.6c0-0.3,0.3-0.6,0.6-0.6
			C159.4,62,159.6,62.3,159.6,62.6z"/>
		<path class="st48" d="M133.3,142.2c0,0,0.4-78.9,0.4-84c0-5-1.8-22.2-1.8-22.2"/>
		<path class="st0" d="M170.7,30.4c-0.8-1.4-0.1-2.5,1.4-2.5h4.8c1.6,0,2.2,1.1,1.4,2.5l-2.4,4.1c-0.8,1.4-2.1,1.4-2.9,0L170.7,30.4
			z"/>
		<path class="st0" d="M170.7,30.4c-0.8-1.4-0.1-2.5,1.4-2.5h4.8c1.6,0,2.2,1.1,1.4,2.5l-2.4,4.1c-0.8,1.4-2.1,1.4-2.9,0L170.7,30.4
			z"/>
		<path class="st49" d="M170.7,30.4c-0.8-1.4-0.1-2.5,1.4-2.5h4.8c1.6,0,2.2,1.1,1.4,2.5l-2.4,4.1c-0.8,1.4-2.1,1.4-2.9,0
			L170.7,30.4z"/>
		<path class="st49" d="M170.7,30.4c-0.8-1.4-0.1-2.5,1.4-2.5h4.8c1.6,0,2.2,1.1,1.4,2.5l-2.4,4.1c-0.8,1.4-2.1,1.4-2.9,0
			L170.7,30.4z"/>
		<path class="st50" d="M170.7,30.4c-0.8-1.4-0.1-2.5,1.4-2.5h4.8c1.6,0,2.2,1.1,1.4,2.5l-2.4,4.1c-0.8,1.4-2.1,1.4-2.9,0
			L170.7,30.4z"/>
		<path class="st50" d="M170.7,30.4c-0.8-1.4-0.1-2.5,1.4-2.5h4.8c1.6,0,2.2,1.1,1.4,2.5l-2.4,4.1c-0.8,1.4-2.1,1.4-2.9,0
			L170.7,30.4z"/>
		<path class="st51" d="M170.7,30.4c-0.8-1.4-0.1-2.5,1.4-2.5h4.8c1.6,0,2.2,1.1,1.4,2.5l-2.4,4.1c-0.8,1.4-2.1,1.4-2.9,0
			L170.7,30.4z"/>
		<path class="st51" d="M170.7,30.4c-0.8-1.4-0.1-2.5,1.4-2.5h4.8c1.6,0,2.2,1.1,1.4,2.5l-2.4,4.1c-0.8,1.4-2.1,1.4-2.9,0
			L170.7,30.4z"/>
		<path class="st7" d="M172.7,31.3v-1l-0.7,1H172.7z M173.1,31.3h0.3v0.4h-0.3v0.6h-0.4v-0.6h-1v-0.4l1-1.6h0.4V31.3"/>
		<path class="st7" d="M174.1,30.9c0,0.1,0,0.9,0.5,0.9c0.5,0,0.5-0.8,0.5-0.9c0-0.1,0-0.9-0.5-0.9C174.1,30,174.1,30.8,174.1,30.9z
			 M175.4,30.9c0,0.4-0.1,1.3-0.8,1.3c-0.8,0-0.8-0.9-0.8-1.3c0-0.4,0.1-1.3,0.8-1.3C175.3,29.6,175.4,30.5,175.4,30.9"/>
		<path class="st7" d="M177.3,29.7v0.4c-0.3,0.2-0.5,0.8-0.5,0.9c-0.2,0.5-0.2,0.9-0.2,1.2h-0.4c0-1.2,0.7-2,0.8-2.1h-1.2v-0.4
			H177.3z"/>
		<path d="M146.3,51.9c0-0.2-0.1-0.3-0.2-0.4l0.3-0.1c0.1,0.2,0.1,0.3,0.2,0.5h0.5c0.1-0.2,0.1-0.4,0.2-0.5l0.3,0.1
			c0,0.2-0.1,0.3-0.2,0.5h0.5v0.3H147v0.4h0.9v0.3H147v0.7h-0.3v-0.7h-0.8v-0.3h0.8v-0.4h-0.8v-0.3H146.3z M147,50.1v0.3h1.6v0.3
			H147v0.4h1.4v2.2c0,0.3-0.2,0.3-0.3,0.3h-0.6l-0.1-0.3l0.6,0c0,0,0.1,0,0.1-0.1v-1.9h-2.5v2.3h-0.3v-2.5h1.4v-0.4H145v-0.3h1.6
			v-0.3H147"/>
		<path d="M151.1,51.1v-1h0.3V51l0.9-0.2c0,0.6,0,1.4-0.1,1.5c0,0.2-0.1,0.3-0.4,0.3h-0.3l0-0.3l0.3,0c0.1,0,0.1-0.1,0.2-0.1
			c0-0.1,0-0.3,0-1l-0.6,0.2v1.4h-0.3v-1.4l-0.5,0.1v1.6c0,0.1,0,0.1,0.1,0.1h1.2c0.1,0,0.1,0,0.2-0.1c0-0.1,0-0.3,0.1-0.5l0.3,0.1
			c0,0.7-0.2,0.8-0.4,0.8h-1.4c-0.2,0-0.4-0.1-0.4-0.3v-1.7l-0.3,0.1l-0.1-0.3l0.4-0.1v-0.9h0.3v0.8L151.1,51.1z M150.1,52.8
			c-0.3,0.1-0.9,0.3-1.2,0.4l0-0.3c0.1,0,0.2,0,0.5-0.1v-1.4h-0.5V51h0.5v-0.9h0.3V51h0.4v0.3h-0.4v1.3c0.2-0.1,0.3-0.1,0.4-0.1
			L150.1,52.8"/>
		<path d="M155.6,50.7c-0.1,0.2-0.3,0.6-0.6,1c0.5,0.3,0.8,0.6,1,0.8l-0.2,0.3c-0.5-0.5-0.8-0.7-1-0.8c-0.4,0.4-0.8,0.7-1.3,1
			l-0.2-0.3c0.3-0.2,0.8-0.4,1.2-0.9c-0.4-0.3-0.8-0.5-1.1-0.6l0.2-0.3c0.6,0.3,0.9,0.5,1.1,0.6c0.3-0.4,0.5-0.8,0.6-0.9L155.6,50.7
			z M156.2,50.2v0.3h-3v2.6h3.1v0.3h-3.1v0.2h-0.3v-3.4H156.2"/>
		<path d="M157.4,52.7c0.5-0.4,0.9-1,1.2-1.6h-1v-0.3h1.1v-0.7h0.3v0.7h1.1v0.3h-1c0.3,0.6,0.7,1.2,1.1,1.5l-0.2,0.3
			c-0.4-0.4-0.8-0.8-1-1.5v1.2h0.6V53H159v0.7h-0.3V53h-0.6v-0.3h0.6v-1.2c-0.3,0.6-0.6,1.1-1.1,1.5L157.4,52.7z M157.3,53.6H157v-2
			c-0.2,0.2-0.3,0.3-0.3,0.4l-0.2-0.4c0.5-0.5,0.7-1.1,0.8-1.6l0.3,0.1c0,0.1-0.1,0.4-0.3,0.9V53.6"/>
		<path d="M163.1,52.4h-1.9v0.3h1.9V52.4z M163.1,51.8h-1.9v0.3h1.9V51.8 M163.4,53.3c0,0.2-0.1,0.3-0.3,0.3h-0.6l-0.1-0.3l0.6,0
			c0.1,0,0.1,0,0.1-0.1v-0.3h-1.9v0.7h-0.3v-2.1h2.5V53.3 M162.8,50.6c0.3,0.1,0.7,0.4,0.9,0.6l-0.2,0.2c-0.1-0.1-0.2-0.2-0.4-0.3
			c-1.7,0.1-1.9,0.1-2.6,0.1l0-0.3c0.1,0,0.5,0,0.7,0c0.2-0.2,0.2-0.3,0.3-0.4h-1.1v-0.3h1.6v-0.3h0.3v0.3h1.6v0.3h-2
			c0,0.1-0.1,0.2-0.3,0.4c0.2,0,1,0,1.2,0c-0.1-0.1-0.1-0.1-0.3-0.2L162.8,50.6"/>
		<path d="M167.4,52.6h-1v0.5h1V52.6z M167.2,51.2h-0.9v0.5h0.9V51.2 M166.1,51h1.4v-0.3h-1.4V51 M165.4,51.9h-0.6v0.3h0.6V51.9
			 M165.4,51.3h-0.6v0.3h0.6V51.3 M165.4,52.6c0.2,0.2,0.3,0.5,0.5,0.8l-0.3,0.1c-0.1-0.1-0.1-0.2-0.1-0.3c-0.4,0.1-0.8,0.2-1.1,0.3
			l-0.1-0.3c0.1,0,0.2,0,0.2,0v-2.1h0.5v-0.3h0.3v0.3h0.5v1.3h-0.9v0.7c0.2-0.1,0.4-0.1,0.6-0.2c-0.1-0.1-0.1-0.2-0.2-0.3
			L165.4,52.6 M165.8,50.4h0.8v-0.3h0.3v0.3h0.9v0.8h-0.3V52h-1.1v0.3h1.3v1.3h-0.3v-0.2h-1v0.2H166v-2.4h-0.3v-0.6l-0.2,0.3
			c-0.2-0.2-0.4-0.4-0.5-0.6c-0.2,0.3-0.5,0.6-0.8,0.9l-0.1-0.3c0.3-0.2,0.6-0.5,0.7-0.8h0.3c0.2,0.3,0.3,0.4,0.5,0.5V50.4"/>
		<path class="st52" d="M146.3,51.9c0-0.2-0.1-0.3-0.2-0.4l0.3-0.1c0.1,0.2,0.1,0.3,0.2,0.5h0.5c0.1-0.2,0.1-0.4,0.2-0.5l0.3,0.1
			c0,0.2-0.1,0.3-0.2,0.5h0.5v0.3H147v0.4h0.9v0.3H147v0.7h-0.3v-0.7h-0.8v-0.3h0.8v-0.4h-0.8v-0.3H146.3z M147,50.1v0.3h1.6v0.3
			H147v0.4h1.4v2.2c0,0.3-0.2,0.3-0.3,0.3h-0.6l-0.1-0.3l0.6,0c0,0,0.1,0,0.1-0.1v-1.9h-2.5v2.3h-0.3v-2.5h1.4v-0.4H145v-0.3h1.6
			v-0.3H147"/>
		<path class="st52" d="M151.1,51.1v-1h0.3V51l0.9-0.2c0,0.6,0,1.4-0.1,1.5c0,0.2-0.1,0.3-0.4,0.3h-0.3l0-0.3l0.3,0
			c0.1,0,0.1-0.1,0.2-0.1c0-0.1,0-0.3,0-1l-0.6,0.2v1.4h-0.3v-1.4l-0.5,0.1v1.6c0,0.1,0,0.1,0.1,0.1h1.2c0.1,0,0.1,0,0.2-0.1
			c0-0.1,0-0.3,0.1-0.5l0.3,0.1c0,0.7-0.2,0.8-0.4,0.8h-1.4c-0.2,0-0.4-0.1-0.4-0.3v-1.7l-0.3,0.1l-0.1-0.3l0.4-0.1v-0.9h0.3v0.8
			L151.1,51.1z M150.1,52.8c-0.3,0.1-0.9,0.3-1.2,0.4l0-0.3c0.1,0,0.2,0,0.5-0.1v-1.4h-0.5V51h0.5v-0.9h0.3V51h0.4v0.3h-0.4v1.3
			c0.2-0.1,0.3-0.1,0.4-0.1L150.1,52.8"/>
		<path class="st52" d="M155.6,50.7c-0.1,0.2-0.3,0.6-0.6,1c0.5,0.3,0.8,0.6,1,0.8l-0.2,0.3c-0.5-0.5-0.8-0.7-1-0.8
			c-0.4,0.4-0.8,0.7-1.3,1l-0.2-0.3c0.3-0.2,0.8-0.4,1.2-0.9c-0.4-0.3-0.8-0.5-1.1-0.6l0.2-0.3c0.6,0.3,0.9,0.5,1.1,0.6
			c0.3-0.4,0.5-0.8,0.6-0.9L155.6,50.7z M156.2,50.2v0.3h-3v2.6h3.1v0.3h-3.1v0.2h-0.3v-3.4H156.2"/>
		<path class="st52" d="M157.4,52.7c0.5-0.4,0.9-1,1.2-1.6h-1v-0.3h1.1v-0.7h0.3v0.7h1.1v0.3h-1c0.3,0.6,0.7,1.2,1.1,1.5l-0.2,0.3
			c-0.4-0.4-0.8-0.8-1-1.5v1.2h0.6V53H159v0.7h-0.3V53h-0.6v-0.3h0.6v-1.2c-0.3,0.6-0.6,1.1-1.1,1.5L157.4,52.7z M157.3,53.6H157v-2
			c-0.2,0.2-0.3,0.3-0.3,0.4l-0.2-0.4c0.5-0.5,0.7-1.1,0.8-1.6l0.3,0.1c0,0.1-0.1,0.4-0.3,0.9V53.6"/>
		<path class="st52" d="M163.1,52.4h-1.9v0.3h1.9V52.4z M163.1,51.8h-1.9v0.3h1.9V51.8 M163.4,53.3c0,0.2-0.1,0.3-0.3,0.3h-0.6
			l-0.1-0.3l0.6,0c0.1,0,0.1,0,0.1-0.1v-0.3h-1.9v0.7h-0.3v-2.1h2.5V53.3 M162.8,50.6c0.3,0.1,0.7,0.4,0.9,0.6l-0.2,0.2
			c-0.1-0.1-0.2-0.2-0.4-0.3c-1.7,0.1-1.9,0.1-2.6,0.1l0-0.3c0.1,0,0.5,0,0.7,0c0.2-0.2,0.2-0.3,0.3-0.4h-1.1v-0.3h1.6v-0.3h0.3v0.3
			h1.6v0.3h-2c0,0.1-0.1,0.2-0.3,0.4c0.2,0,1,0,1.2,0c-0.1-0.1-0.1-0.1-0.3-0.2L162.8,50.6"/>
		<path class="st52" d="M167.4,52.6h-1v0.5h1V52.6z M167.2,51.2h-0.9v0.5h0.9V51.2 M166.1,51h1.4v-0.3h-1.4V51 M165.4,51.9h-0.6v0.3
			h0.6V51.9 M165.4,51.3h-0.6v0.3h0.6V51.3 M165.4,52.6c0.2,0.2,0.3,0.5,0.5,0.8l-0.3,0.1c-0.1-0.1-0.1-0.2-0.1-0.3
			c-0.4,0.1-0.8,0.2-1.1,0.3l-0.1-0.3c0.1,0,0.2,0,0.2,0v-2.1h0.5v-0.3h0.3v0.3h0.5v1.3h-0.9v0.7c0.2-0.1,0.4-0.1,0.6-0.2
			c-0.1-0.1-0.1-0.2-0.2-0.3L165.4,52.6 M165.8,50.4h0.8v-0.3h0.3v0.3h0.9v0.8h-0.3V52h-1.1v0.3h1.3v1.3h-0.3v-0.2h-1v0.2H166v-2.4
			h-0.3v-0.6l-0.2,0.3c-0.2-0.2-0.4-0.4-0.5-0.6c-0.2,0.3-0.5,0.6-0.8,0.9l-0.1-0.3c0.3-0.2,0.6-0.5,0.7-0.8h0.3
			c0.2,0.3,0.3,0.4,0.5,0.5V50.4"/>
		<path d="M146.3,51.9c0-0.2-0.1-0.3-0.2-0.4l0.3-0.1c0.1,0.2,0.1,0.3,0.2,0.5h0.5c0.1-0.2,0.1-0.4,0.2-0.5l0.3,0.1
			c0,0.2-0.1,0.3-0.2,0.5h0.5v0.3H147v0.4h0.9v0.3H147v0.7h-0.3v-0.7h-0.8v-0.3h0.8v-0.4h-0.8v-0.3H146.3z M147,50.1v0.3h1.6v0.3
			H147v0.4h1.4v2.2c0,0.3-0.2,0.3-0.3,0.3h-0.6l-0.1-0.3l0.6,0c0,0,0.1,0,0.1-0.1v-1.9h-2.5v2.3h-0.3v-2.5h1.4v-0.4H145v-0.3h1.6
			v-0.3H147"/>
		<path d="M151.1,51.1v-1h0.3V51l0.9-0.2c0,0.6,0,1.4-0.1,1.5c0,0.2-0.1,0.3-0.4,0.3h-0.3l0-0.3l0.3,0c0.1,0,0.1-0.1,0.2-0.1
			c0-0.1,0-0.3,0-1l-0.6,0.2v1.4h-0.3v-1.4l-0.5,0.1v1.6c0,0.1,0,0.1,0.1,0.1h1.2c0.1,0,0.1,0,0.2-0.1c0-0.1,0-0.3,0.1-0.5l0.3,0.1
			c0,0.7-0.2,0.8-0.4,0.8h-1.4c-0.2,0-0.4-0.1-0.4-0.3v-1.7l-0.3,0.1l-0.1-0.3l0.4-0.1v-0.9h0.3v0.8L151.1,51.1z M150.1,52.8
			c-0.3,0.1-0.9,0.3-1.2,0.4l0-0.3c0.1,0,0.2,0,0.5-0.1v-1.4h-0.5V51h0.5v-0.9h0.3V51h0.4v0.3h-0.4v1.3c0.2-0.1,0.3-0.1,0.4-0.1
			L150.1,52.8"/>
		<path d="M155.6,50.7c-0.1,0.2-0.3,0.6-0.6,1c0.5,0.3,0.8,0.6,1,0.8l-0.2,0.3c-0.5-0.5-0.8-0.7-1-0.8c-0.4,0.4-0.8,0.7-1.3,1
			l-0.2-0.3c0.3-0.2,0.8-0.4,1.2-0.9c-0.4-0.3-0.8-0.5-1.1-0.6l0.2-0.3c0.6,0.3,0.9,0.5,1.1,0.6c0.3-0.4,0.5-0.8,0.6-0.9L155.6,50.7
			z M156.2,50.2v0.3h-3v2.6h3.1v0.3h-3.1v0.2h-0.3v-3.4H156.2"/>
		<path d="M157.4,52.7c0.5-0.4,0.9-1,1.2-1.6h-1v-0.3h1.1v-0.7h0.3v0.7h1.1v0.3h-1c0.3,0.6,0.7,1.2,1.1,1.5l-0.2,0.3
			c-0.4-0.4-0.8-0.8-1-1.5v1.2h0.6V53H159v0.7h-0.3V53h-0.6v-0.3h0.6v-1.2c-0.3,0.6-0.6,1.1-1.1,1.5L157.4,52.7z M157.3,53.6H157v-2
			c-0.2,0.2-0.3,0.3-0.3,0.4l-0.2-0.4c0.5-0.5,0.7-1.1,0.8-1.6l0.3,0.1c0,0.1-0.1,0.4-0.3,0.9V53.6"/>
		<path d="M163.1,52.4h-1.9v0.3h1.9V52.4z M163.1,51.8h-1.9v0.3h1.9V51.8 M163.4,53.3c0,0.2-0.1,0.3-0.3,0.3h-0.6l-0.1-0.3l0.6,0
			c0.1,0,0.1,0,0.1-0.1v-0.3h-1.9v0.7h-0.3v-2.1h2.5V53.3 M162.8,50.6c0.3,0.1,0.7,0.4,0.9,0.6l-0.2,0.2c-0.1-0.1-0.2-0.2-0.4-0.3
			c-1.7,0.1-1.9,0.1-2.6,0.1l0-0.3c0.1,0,0.5,0,0.7,0c0.2-0.2,0.2-0.3,0.3-0.4h-1.1v-0.3h1.6v-0.3h0.3v0.3h1.6v0.3h-2
			c0,0.1-0.1,0.2-0.3,0.4c0.2,0,1,0,1.2,0c-0.1-0.1-0.1-0.1-0.3-0.2L162.8,50.6"/>
		<path d="M167.4,52.6h-1v0.5h1V52.6z M167.2,51.2h-0.9v0.5h0.9V51.2 M166.1,51h1.4v-0.3h-1.4V51 M165.4,51.9h-0.6v0.3h0.6V51.9
			 M165.4,51.3h-0.6v0.3h0.6V51.3 M165.4,52.6c0.2,0.2,0.3,0.5,0.5,0.8l-0.3,0.1c-0.1-0.1-0.1-0.2-0.1-0.3c-0.4,0.1-0.8,0.2-1.1,0.3
			l-0.1-0.3c0.1,0,0.2,0,0.2,0v-2.1h0.5v-0.3h0.3v0.3h0.5v1.3h-0.9v0.7c0.2-0.1,0.4-0.1,0.6-0.2c-0.1-0.1-0.1-0.2-0.2-0.3
			L165.4,52.6 M165.8,50.4h0.8v-0.3h0.3v0.3h0.9v0.8h-0.3V52h-1.1v0.3h1.3v1.3h-0.3v-0.2h-1v0.2H166v-2.4h-0.3v-0.6l-0.2,0.3
			c-0.2-0.2-0.4-0.4-0.5-0.6c-0.2,0.3-0.5,0.6-0.8,0.9l-0.1-0.3c0.3-0.2,0.6-0.5,0.7-0.8h0.3c0.2,0.3,0.3,0.4,0.5,0.5V50.4"/>
		<path class="st7" d="M164,56.5c0,0.7-0.6,1.3-1.3,1.3c-0.7,0-1.3-0.6-1.3-1.3c0-0.7,0.6-1.3,1.3-1.3C163.4,55.2,164,55.8,164,56.5
			z"/>
		<polyline class="st53" points="163.6,79.5 167.7,59.8 174.3,58 		"/>
		<polygon class="st7" points="174.3,59 175.7,57.6 173.8,57.1 		"/>
		<line class="st0" x1="163.9" y1="82.1" x2="171.6" y2="94.2"/>
		<line class="st54" x1="163.9" y1="82.1" x2="171.6" y2="94.2"/>
		<rect x="164.5" y="91.9" class="st55" width="19.6" height="5.6"/>
		<g>
			<path d="M168.7,95.3h-1.2v0.4h1.2V95.3z M168.9,95.8h-1.5v-0.7h1.5V95.8 M169,93.9h-1.7v0.4h1.7V93.9 M169.2,94.5h-2.1v-0.7h2.1
				V94.5 M169.6,96c0,0.2-0.1,0.2-0.2,0.2h-0.5l0-0.2l0.5,0c0,0,0.1,0,0.1-0.1v-1.1h-2.5v1.4h-0.2v-1.5h2.8V96 M169.7,93.5h-3.1
				v-0.2h1.5v-0.3h0.2v0.3h1.5V93.5"/>
			<path d="M171.3,96.1c0.2-0.1,0.5-0.3,0.8-0.6c-0.4-0.5-0.5-0.9-0.5-1.1l0.2-0.1c0.1,0.5,0.3,0.7,0.4,1c0.4-0.4,0.5-1,0.5-1.1
				h-1.3v0.4c0,0.4-0.1,1.1-0.6,1.6l-0.2-0.1c0.2-0.2,0.6-0.5,0.6-1.5v-1.4h1.8v0.2h-1.7V94h1.5c0,0.2-0.1,0.9-0.6,1.4
				c0.3,0.3,0.6,0.5,0.8,0.6l-0.1,0.2c-0.2-0.1-0.5-0.3-0.8-0.6c-0.4,0.4-0.7,0.5-0.8,0.6L171.3,96.1z M171.1,95.4
				c-0.5,0.2-1,0.3-1.1,0.3l0-0.2c0.2,0,0.3-0.1,0.5-0.1v-1.3H170v-0.2h0.5v-0.9h0.2v0.9h0.4v0.2h-0.4v1.3c0.2-0.1,0.3-0.1,0.4-0.1
				L171.1,95.4"/>
			<path d="M175.8,95.3h-0.7v0.4h0.7V95.3z M175.9,94.2H175v0.3h0.9V94.2 M175.3,93.7c-0.1,0.1-0.2,0.2-0.3,0.3h0.9
				c-0.1-0.1-0.2-0.2-0.2-0.3H175.3 M176,95.9H175v-0.7h1.1V95.9 M176.4,96c0,0.2-0.1,0.2-0.3,0.2h-0.2l0-0.2l0.2,0
				c0.1,0,0.1,0,0.1-0.1v-1h-1.5v1.3h-0.2v-1.4h1.9V96 M174.3,94.3c0.2-0.1,0.5-0.3,0.7-0.6h-0.6v-0.2h0.7c0.1-0.1,0.1-0.2,0.1-0.3
				c-0.1,0-0.6,0-0.7,0l-0.1-0.2c0.3,0,1.2,0,1.7-0.1l0.1,0.1c-0.1,0-0.3,0.1-0.9,0.1c0,0.1,0,0.1-0.1,0.3h1.2v0.2h-0.7
				c0.2,0.3,0.3,0.4,0.7,0.6l-0.1,0.1c-0.1,0-0.3-0.1-0.5-0.3v0.4h-1.2v-0.4c-0.2,0.1-0.3,0.2-0.4,0.2L174.3,94.3 M174.3,94.9
				c-0.1-0.1-0.1-0.2-0.2-0.4v1.7h-0.2v-1.8c-0.1,0.4-0.3,0.7-0.4,0.8l-0.1-0.2c0.3-0.4,0.4-0.8,0.5-1.2h-0.5v-0.2h0.5v-0.7h0.2v0.7
				h0.3V94h-0.3v0.2c0.1,0.3,0.3,0.5,0.4,0.6L174.3,94.9"/>
			<path d="M178,93c-0.4,0.4-0.8,0.8-0.8,1.6c0,0.8,0.3,1.2,0.8,1.6h-0.2c-0.7-0.6-0.8-1.2-0.8-1.6c0-0.5,0.1-1.1,0.8-1.6H178z"/>
			<path d="M180.3,93.1v1.2c0.6-0.3,0.8-0.5,1-0.7l0.1,0.2c-0.5,0.4-0.9,0.6-1.1,0.7v1.4c0,0.1,0,0.1,0.1,0.1h0.6
				c0.2,0,0.2,0,0.2-0.3c0-0.1,0-0.4,0-0.4l0.2,0.1c0,0.1,0,0.4,0,0.5c0,0.3-0.1,0.4-0.4,0.4h-0.7c-0.1,0-0.3,0-0.3-0.2v-2.9H180.3z
				 M178.3,95.8c0.4-0.1,0.7-0.2,1.1-0.3v-1.3h-1.1V94h1.1v-0.9h0.2v3.1h-0.2v-0.5c0,0-0.6,0.2-1,0.3L178.3,95.8"/>
			<path d="M182,93c0.7,0.6,0.8,1.2,0.8,1.6c0,0.5-0.1,1.1-0.8,1.6h-0.2c0.4-0.4,0.8-0.8,0.8-1.6c0-0.8-0.3-1.2-0.8-1.6H182z"/>
		</g>
		<path class="st56" d="M165.3,82.8H162c-0.5,0-0.9-0.4-0.9-0.9c0-0.5,0.4-0.9,0.9-0.9h3.3c0.5,0,0.9,0.4,0.9,0.9
			C166.3,82.4,165.8,82.8,165.3,82.8z"/>
		<path class="st57" d="M165.3,82.8H162c-0.5,0-0.9-0.4-0.9-0.9c0-0.5,0.4-0.9,0.9-0.9h3.3c0.5,0,0.9,0.4,0.9,0.9
			C166.3,82.4,165.8,82.8,165.3,82.8z"/>
		<path class="st58" d="M165.3,82.8H162c-0.5,0-0.9-0.4-0.9-0.9c0-0.5,0.4-0.9,0.9-0.9h3.3c0.5,0,0.9,0.4,0.9,0.9
			C166.3,82.4,165.8,82.8,165.3,82.8z"/>
		<path class="st0" d="M162.8,81.9c0,0.4-0.3,0.8-0.8,0.8c-0.4,0-0.8-0.3-0.8-0.8c0-0.4,0.3-0.8,0.8-0.8
			C162.5,81.2,162.8,81.5,162.8,81.9z"/>
		<path class="st0" d="M164.4,81.9c0,0.4-0.3,0.8-0.8,0.8c-0.4,0-0.8-0.3-0.8-0.8c0-0.4,0.3-0.8,0.8-0.8
			C164.1,81.2,164.4,81.5,164.4,81.9z"/>
		<path class="st0" d="M166,81.9c0,0.4-0.3,0.8-0.8,0.8c-0.4,0-0.8-0.3-0.8-0.8c0-0.4,0.3-0.8,0.8-0.8C165.7,81.2,166,81.5,166,81.9
			z"/>
		<path class="st56" d="M161.4,110.8h-3.3c-0.5,0-0.9-0.4-0.9-0.9c0-0.5,0.4-0.9,0.9-0.9h3.3c0.5,0,0.9,0.4,0.9,0.9
			C162.3,110.4,161.9,110.8,161.4,110.8z"/>
		<path class="st57" d="M161.4,110.8h-3.3c-0.5,0-0.9-0.4-0.9-0.9c0-0.5,0.4-0.9,0.9-0.9h3.3c0.5,0,0.9,0.4,0.9,0.9
			C162.3,110.4,161.9,110.8,161.4,110.8z"/>
		<path class="st58" d="M161.4,110.8h-3.3c-0.5,0-0.9-0.4-0.9-0.9c0-0.5,0.4-0.9,0.9-0.9h3.3c0.5,0,0.9,0.4,0.9,0.9
			C162.3,110.4,161.9,110.8,161.4,110.8z"/>
		<path class="st0" d="M158.9,109.9c0,0.4-0.3,0.8-0.8,0.8c-0.4,0-0.8-0.3-0.8-0.8c0-0.4,0.3-0.8,0.8-0.8
			C158.6,109.1,158.9,109.5,158.9,109.9z"/>
		<path class="st0" d="M160.5,109.9c0,0.4-0.3,0.8-0.8,0.8c-0.4,0-0.8-0.3-0.8-0.8c0-0.4,0.3-0.8,0.8-0.8
			C160.2,109.1,160.5,109.5,160.5,109.9z"/>
		<path class="st0" d="M162.1,109.9c0,0.4-0.3,0.8-0.8,0.8c-0.4,0-0.8-0.3-0.8-0.8c0-0.4,0.3-0.8,0.8-0.8
			C161.8,109.1,162.1,109.5,162.1,109.9z"/>
		<path class="st56" d="M169.6,59h-3.3c-0.5,0-0.9-0.4-0.9-0.9c0-0.5,0.4-0.9,0.9-0.9h3.3c0.5,0,0.9,0.4,0.9,0.9
			C170.5,58.6,170.1,59,169.6,59z"/>
		<path class="st57" d="M169.6,59h-3.3c-0.5,0-0.9-0.4-0.9-0.9c0-0.5,0.4-0.9,0.9-0.9h3.3c0.5,0,0.9,0.4,0.9,0.9
			C170.5,58.6,170.1,59,169.6,59z"/>
		<path class="st58" d="M169.6,59h-3.3c-0.5,0-0.9-0.4-0.9-0.9c0-0.5,0.4-0.9,0.9-0.9h3.3c0.5,0,0.9,0.4,0.9,0.9
			C170.5,58.6,170.1,59,169.6,59z"/>
		<path class="st0" d="M167.1,58.1c0,0.4-0.3,0.8-0.8,0.8c-0.4,0-0.8-0.3-0.8-0.8c0-0.4,0.3-0.8,0.8-0.8
			C166.8,57.3,167.1,57.7,167.1,58.1z"/>
		<path class="st0" d="M168.7,58.1c0,0.4-0.3,0.8-0.8,0.8c-0.4,0-0.8-0.3-0.8-0.8c0-0.4,0.3-0.8,0.8-0.8
			C168.4,57.3,168.7,57.7,168.7,58.1z"/>
		<path class="st0" d="M170.3,58.1c0,0.4-0.3,0.8-0.8,0.8c-0.4,0-0.8-0.3-0.8-0.8c0-0.4,0.3-0.8,0.8-0.8
			C170,57.3,170.3,57.7,170.3,58.1z"/>
		<path class="st59" d="M132.1,77.2H131v0.4h1.1V77.2z M132.1,76.7H131v0.4h1.1V76.7 M129.8,77.2v0.4h1v-0.4H129.8 M129.8,76.7v0.4
			h1v-0.4H129.8 M132.5,76.2H131v0.3h1.3v1.3h-1.1c0.3,0.4,0.9,0.7,1.3,0.9l-0.1,0.2c-0.9-0.4-1.3-0.8-1.4-1v1.1h-0.2v-1.1
			c-0.3,0.4-0.9,0.8-1.4,1l-0.1-0.2c0.7-0.2,1.2-0.6,1.3-0.9h-1.1v-1.3h1.2v-0.3h-1.5v-0.2h1.5v-0.3h0.2v0.3h1.5V76.2"/>
		<path class="st59" d="M132.2,79.9c-0.2-0.2-0.3-0.4-0.5-0.6l0.1-0.1c0.2,0.2,0.4,0.4,0.5,0.6L132.2,79.9z M130.9,79.4v0.2h-1.4
			v-0.2H130.9 M131.3,81.9c-0.7,0.1-1.3,0.2-1.9,0.3l0-0.2c0.1,0,0.1,0,0.2,0v-1.5h0.2V82c0.2,0,0.3,0,0.5-0.1v-1.7h0.2v0.6h0.6V81
			h-0.6v0.9c0.3,0,0.5-0.1,0.8-0.1V81.9 M131.4,79.2c0,0.4,0,0.6,0,0.8h1v0.2h-1c0,0.3,0,0.9,0.2,1.5c0,0.1,0.2,0.5,0.4,0.5
			c0,0,0.1,0,0.1-0.1c0.1-0.2,0.1-0.4,0.1-0.6l0.2,0.1c-0.1,0.5-0.2,0.6-0.2,0.7c-0.1,0.1-0.2,0.1-0.2,0.1c-0.3,0-0.6-0.5-0.6-0.8
			c-0.1-0.4-0.2-0.8-0.2-1.4h-1.9V80h1.9c0-0.2,0-0.6,0-0.8H131.4"/>
		<path class="st59" d="M132.1,84.1H131v0.4h1.1V84.1z M132.1,83.6H131V84h1.1V83.6 M129.8,84.1v0.4h1v-0.4H129.8 M129.8,83.6V84h1
			v-0.4H129.8 M132.5,83.2H131v0.3h1.3v1.3h-1.1c0.3,0.4,0.9,0.7,1.3,0.9l-0.1,0.2c-0.9-0.4-1.3-0.8-1.4-1v1.1h-0.2v-1.1
			c-0.3,0.4-0.9,0.8-1.4,1l-0.1-0.2c0.7-0.2,1.2-0.6,1.3-0.9h-1.1v-1.3h1.2v-0.3h-1.5V83h1.5v-0.3h0.2V83h1.5V83.2"/>
		<polygon class="st59" points="131,87.2 132.3,87.2 132.3,87.4 131,87.4 131,89 132.5,89 132.5,89.1 129.3,89.1 129.3,89 130.8,89 
			130.8,86.1 131,86.1 		"/>
		<path class="st59" d="M132.1,90.6h-1.3v0.4h1.3V90.6z M132.1,90.1h-1.3v0.3h1.3V90.1 M132.5,91.3c-0.2,0.2-0.3,0.3-0.6,0.5
			c0.2,0.3,0.4,0.4,0.7,0.6l-0.1,0.2c-0.3-0.2-0.6-0.5-0.9-1v0.9c0,0.2-0.1,0.3-0.3,0.3H131l0-0.2l0.3,0c0.1,0,0.1,0,0.1-0.1v-1.4
			h-0.7v-1.2h0.5c0.1-0.1,0.1-0.2,0.1-0.3l0.2,0c0,0.1-0.1,0.2-0.1,0.3h0.9v1.2h-0.8v0.1c0.1,0.2,0.1,0.3,0.2,0.5
			c0,0,0.3-0.2,0.5-0.5L132.5,91.3 M130.4,92.5c0.3-0.2,0.5-0.6,0.6-1h-0.5v-0.2h0.7c-0.1,0.5-0.3,1-0.7,1.3L130.4,92.5 M130.4,92.2
			c0-0.3-0.1-0.5-0.1-0.7l0.1,0c0.1,0.2,0.1,0.4,0.2,0.7L130.4,92.2 M130.4,89.9c-0.2,0.5-0.5,0.9-0.6,1.1c0,0,0.3,0,0.5,0
			c0-0.1-0.1-0.2-0.1-0.2l0.1-0.1c0.1,0.2,0.2,0.4,0.2,0.5l-0.2,0.1c0-0.1,0-0.1-0.1-0.2c-0.1,0-0.2,0-0.3,0v1.5h-0.2v-1.5
			c-0.3,0-0.4,0-0.5,0l0-0.2c0.1,0,0.2,0,0.2,0c0.1-0.1,0.2-0.3,0.2-0.4c-0.1-0.1-0.4-0.3-0.4-0.4l0.1-0.1c0.1,0,0.1,0.1,0.1,0.1
			c0.1-0.2,0.2-0.5,0.3-0.7l0.2,0.1c0,0.1-0.2,0.5-0.3,0.7c0,0,0.1,0.1,0.2,0.2c0.2-0.3,0.3-0.6,0.4-0.7L130.4,89.9 M129.3,92.5
			c0.1-0.2,0.1-0.7,0.2-0.9l0.2,0c0,0.2,0,0.7-0.2,1L129.3,92.5"/>
		<path class="st7" d="M132.1,77.2H131v0.4h1.1V77.2z M132.1,76.7H131v0.4h1.1V76.7 M129.8,77.2v0.4h1v-0.4H129.8 M129.8,76.7v0.4h1
			v-0.4H129.8 M132.5,76.2H131v0.3h1.3v1.3h-1.1c0.3,0.4,0.9,0.7,1.3,0.9l-0.1,0.2c-0.9-0.4-1.3-0.8-1.4-1v1.1h-0.2v-1.1
			c-0.3,0.4-0.9,0.8-1.4,1l-0.1-0.2c0.7-0.2,1.2-0.6,1.3-0.9h-1.1v-1.3h1.2v-0.3h-1.5v-0.2h1.5v-0.3h0.2v0.3h1.5V76.2"/>
		<path class="st7" d="M132.2,79.9c-0.2-0.2-0.3-0.4-0.5-0.6l0.1-0.1c0.2,0.2,0.4,0.4,0.5,0.6L132.2,79.9z M130.9,79.4v0.2h-1.4
			v-0.2H130.9 M131.3,81.9c-0.7,0.1-1.3,0.2-1.9,0.3l0-0.2c0.1,0,0.1,0,0.2,0v-1.5h0.2V82c0.2,0,0.3,0,0.5-0.1v-1.7h0.2v0.6h0.6V81
			h-0.6v0.9c0.3,0,0.5-0.1,0.8-0.1V81.9 M131.4,79.2c0,0.4,0,0.6,0,0.8h1v0.2h-1c0,0.3,0,0.9,0.2,1.5c0,0.1,0.2,0.5,0.4,0.5
			c0,0,0.1,0,0.1-0.1c0.1-0.2,0.1-0.4,0.1-0.6l0.2,0.1c-0.1,0.5-0.2,0.6-0.2,0.7c-0.1,0.1-0.2,0.1-0.2,0.1c-0.3,0-0.6-0.5-0.6-0.8
			c-0.1-0.4-0.2-0.8-0.2-1.4h-1.9V80h1.9c0-0.2,0-0.6,0-0.8H131.4"/>
		<path class="st7" d="M132.1,84.1H131v0.4h1.1V84.1z M132.1,83.6H131V84h1.1V83.6 M129.8,84.1v0.4h1v-0.4H129.8 M129.8,83.6V84h1
			v-0.4H129.8 M132.5,83.2H131v0.3h1.3v1.3h-1.1c0.3,0.4,0.9,0.7,1.3,0.9l-0.1,0.2c-0.9-0.4-1.3-0.8-1.4-1v1.1h-0.2v-1.1
			c-0.3,0.4-0.9,0.8-1.4,1l-0.1-0.2c0.7-0.2,1.2-0.6,1.3-0.9h-1.1v-1.3h1.2v-0.3h-1.5V83h1.5v-0.3h0.2V83h1.5V83.2"/>
		<polygon class="st7" points="131,87.2 132.3,87.2 132.3,87.4 131,87.4 131,89 132.5,89 132.5,89.1 129.3,89.1 129.3,89 130.8,89 
			130.8,86.1 131,86.1 		"/>
		<path class="st7" d="M132.1,90.6h-1.3v0.4h1.3V90.6z M132.1,90.1h-1.3v0.3h1.3V90.1 M132.5,91.3c-0.2,0.2-0.3,0.3-0.6,0.5
			c0.2,0.3,0.4,0.4,0.7,0.6l-0.1,0.2c-0.3-0.2-0.6-0.5-0.9-1v0.9c0,0.2-0.1,0.3-0.3,0.3H131l0-0.2l0.3,0c0.1,0,0.1,0,0.1-0.1v-1.4
			h-0.7v-1.2h0.5c0.1-0.1,0.1-0.2,0.1-0.3l0.2,0c0,0.1-0.1,0.2-0.1,0.3h0.9v1.2h-0.8v0.1c0.1,0.2,0.1,0.3,0.2,0.5
			c0,0,0.3-0.2,0.5-0.5L132.5,91.3 M130.4,92.5c0.3-0.2,0.5-0.6,0.6-1h-0.5v-0.2h0.7c-0.1,0.5-0.3,1-0.7,1.3L130.4,92.5 M130.4,92.2
			c0-0.3-0.1-0.5-0.1-0.7l0.1,0c0.1,0.2,0.1,0.4,0.2,0.7L130.4,92.2 M130.4,89.9c-0.2,0.5-0.5,0.9-0.6,1.1c0,0,0.3,0,0.5,0
			c0-0.1-0.1-0.2-0.1-0.2l0.1-0.1c0.1,0.2,0.2,0.4,0.2,0.5l-0.2,0.1c0-0.1,0-0.1-0.1-0.2c-0.1,0-0.2,0-0.3,0v1.5h-0.2v-1.5
			c-0.3,0-0.4,0-0.5,0l0-0.2c0.1,0,0.2,0,0.2,0c0.1-0.1,0.2-0.3,0.2-0.4c-0.1-0.1-0.4-0.3-0.4-0.4l0.1-0.1c0.1,0,0.1,0.1,0.1,0.1
			c0.1-0.2,0.2-0.5,0.3-0.7l0.2,0.1c0,0.1-0.2,0.5-0.3,0.7c0,0,0.1,0.1,0.2,0.2c0.2-0.3,0.3-0.6,0.4-0.7L130.4,89.9 M129.3,92.5
			c0.1-0.2,0.1-0.7,0.2-0.9l0.2,0c0,0.2,0,0.7-0.2,1L129.3,92.5"/>
		<line class="st0" x1="151.9" y1="72.1" x2="157.5" y2="62.1"/>
		<line class="st54" x1="151.9" y1="72.1" x2="157.5" y2="62.1"/>
		<path class="st56" d="M159.2,63h-3.3c-0.5,0-0.9-0.4-0.9-0.9c0-0.5,0.4-0.9,0.9-0.9h3.3c0.5,0,0.9,0.4,0.9,0.9
			C160.1,62.6,159.7,63,159.2,63z"/>
		<path class="st57" d="M159.2,63h-3.3c-0.5,0-0.9-0.4-0.9-0.9c0-0.5,0.4-0.9,0.9-0.9h3.3c0.5,0,0.9,0.4,0.9,0.9
			C160.1,62.6,159.7,63,159.2,63z"/>
		<path class="st58" d="M159.2,63h-3.3c-0.5,0-0.9-0.4-0.9-0.9c0-0.5,0.4-0.9,0.9-0.9h3.3c0.5,0,0.9,0.4,0.9,0.9
			C160.1,62.6,159.7,63,159.2,63z"/>
		<path class="st0" d="M156.7,62.1c0,0.4-0.3,0.8-0.8,0.8s-0.8-0.3-0.8-0.8c0-0.4,0.3-0.8,0.8-0.8S156.7,61.6,156.7,62.1z"/>
		<path class="st0" d="M158.3,62.1c0,0.4-0.3,0.8-0.8,0.8c-0.4,0-0.8-0.3-0.8-0.8c0-0.4,0.3-0.8,0.8-0.8
			C157.9,61.3,158.3,61.6,158.3,62.1z"/>
		<path class="st0" d="M159.9,62.1c0,0.4-0.3,0.8-0.8,0.8c-0.4,0-0.8-0.3-0.8-0.8c0-0.4,0.3-0.8,0.8-0.8
			C159.5,61.3,159.9,61.6,159.9,62.1z"/>
		<rect x="136.4" y="68.3" class="st0" width="26" height="5.6"/>
		<rect x="136.4" y="68.3" class="st60" width="26" height="5.6"/>
		<polygon class="st7" points="179.6,56.3 182.7,74.9 177.8,75.3 		"/>
		<rect x="169.3" y="70.7" class="st7" width="48" height="11.4"/>
		<path d="M160.8,138.1c0.2-0.1,0.6-0.3,0.9-0.6c-0.4-0.5-0.5-1-0.5-1.2l0.2-0.1c0.1,0.5,0.3,0.8,0.5,1.1c0.4-0.5,0.5-1,0.5-1.2
			h-1.4v0.4c0,0.4-0.1,1.2-0.6,1.7l-0.2-0.1c0.2-0.2,0.6-0.5,0.6-1.6v-1.5h2v0.2h-1.8v0.7h1.6c0,0.2-0.1,0.9-0.6,1.6
			c0.3,0.3,0.7,0.5,0.8,0.6l-0.1,0.2c-0.2-0.1-0.5-0.3-0.8-0.6c-0.4,0.4-0.7,0.5-0.9,0.6L160.8,138.1z M160.6,137.5
			c-0.5,0.2-1,0.3-1.2,0.4l0-0.2c0.2,0,0.4-0.1,0.6-0.1V136h-0.5v-0.2h0.5v-0.9h0.2v0.9h0.5v0.2h-0.5v1.4c0.3-0.1,0.4-0.1,0.5-0.2
			L160.6,137.5"/>
		<path d="M165.7,137.4h-0.8v0.4h0.8V137.4z M165.8,136.1h-1v0.3h1V136.1 M165.1,135.6c-0.1,0.1-0.2,0.2-0.3,0.3h1
			c-0.1-0.1-0.2-0.2-0.2-0.3H165.1 M165.8,137.9h-1.1v-0.7h1.1V137.9 M166.3,138.1c0,0.2-0.1,0.2-0.3,0.2h-0.3l0-0.2l0.3,0
			c0.1,0,0.1,0,0.1-0.1v-1h-1.7v1.4h-0.2v-1.5h2.1V138.1 M164.1,136.2c0.2-0.1,0.6-0.3,0.8-0.6h-0.7v-0.2h0.8
			c0.1-0.1,0.1-0.2,0.1-0.3c-0.1,0-0.7,0-0.8,0l-0.1-0.2c0.4,0,1.3,0,1.8-0.1l0.1,0.2c-0.1,0-0.4,0.1-0.9,0.1c0,0.1-0.1,0.2-0.1,0.3
			h1.3v0.2h-0.7c0.2,0.3,0.3,0.5,0.8,0.6l-0.1,0.1c-0.1,0-0.3-0.1-0.5-0.3v0.4h-1.3v-0.4c-0.2,0.2-0.3,0.2-0.4,0.3L164.1,136.2
			 M164,136.9c-0.1-0.1-0.2-0.2-0.3-0.4v1.8h-0.2v-1.9c-0.1,0.5-0.3,0.7-0.5,0.9l-0.1-0.2c0.3-0.5,0.5-0.9,0.5-1.2h-0.5v-0.2h0.5
			v-0.8h0.2v0.8h0.4v0.2h-0.4v0.2c0.1,0.3,0.3,0.5,0.4,0.7L164,136.9"/>
		<path d="M160.8,138.1c0.2-0.1,0.6-0.3,0.9-0.6c-0.4-0.5-0.5-1-0.5-1.2l0.2-0.1c0.1,0.5,0.3,0.8,0.5,1.1c0.4-0.5,0.5-1,0.5-1.2
			h-1.4v0.4c0,0.4-0.1,1.2-0.6,1.7l-0.2-0.1c0.2-0.2,0.6-0.5,0.6-1.6v-1.5h2v0.2h-1.8v0.7h1.6c0,0.2-0.1,0.9-0.6,1.6
			c0.3,0.3,0.7,0.5,0.8,0.6l-0.1,0.2c-0.2-0.1-0.5-0.3-0.8-0.6c-0.4,0.4-0.7,0.5-0.9,0.6L160.8,138.1z M160.6,137.5
			c-0.5,0.2-1,0.3-1.2,0.4l0-0.2c0.2,0,0.4-0.1,0.6-0.1V136h-0.5v-0.2h0.5v-0.9h0.2v0.9h0.5v0.2h-0.5v1.4c0.3-0.1,0.4-0.1,0.5-0.2
			L160.6,137.5"/>
		<path d="M165.7,137.4h-0.8v0.4h0.8V137.4z M165.8,136.1h-1v0.3h1V136.1 M165.1,135.6c-0.1,0.1-0.2,0.2-0.3,0.3h1
			c-0.1-0.1-0.2-0.2-0.2-0.3H165.1 M165.8,137.9h-1.1v-0.7h1.1V137.9 M166.3,138.1c0,0.2-0.1,0.2-0.3,0.2h-0.3l0-0.2l0.3,0
			c0.1,0,0.1,0,0.1-0.1v-1h-1.7v1.4h-0.2v-1.5h2.1V138.1 M164.1,136.2c0.2-0.1,0.6-0.3,0.8-0.6h-0.7v-0.2h0.8
			c0.1-0.1,0.1-0.2,0.1-0.3c-0.1,0-0.7,0-0.8,0l-0.1-0.2c0.4,0,1.3,0,1.8-0.1l0.1,0.2c-0.1,0-0.4,0.1-0.9,0.1c0,0.1-0.1,0.2-0.1,0.3
			h1.3v0.2h-0.7c0.2,0.3,0.3,0.5,0.8,0.6l-0.1,0.1c-0.1,0-0.3-0.1-0.5-0.3v0.4h-1.3v-0.4c-0.2,0.2-0.3,0.2-0.4,0.3L164.1,136.2
			 M164,136.9c-0.1-0.1-0.2-0.2-0.3-0.4v1.8h-0.2v-1.9c-0.1,0.5-0.3,0.7-0.5,0.9l-0.1-0.2c0.3-0.5,0.5-0.9,0.5-1.2h-0.5v-0.2h0.5
			v-0.8h0.2v0.8h0.4v0.2h-0.4v0.2c0.1,0.3,0.3,0.5,0.4,0.7L164,136.9"/>
		<path class="st61" d="M160.8,138.1c0.2-0.1,0.6-0.3,0.9-0.6c-0.4-0.5-0.5-1-0.5-1.2l0.2-0.1c0.1,0.5,0.3,0.8,0.5,1.1
			c0.4-0.5,0.5-1,0.5-1.2h-1.4v0.4c0,0.4-0.1,1.2-0.6,1.7l-0.2-0.1c0.2-0.2,0.6-0.5,0.6-1.6v-1.5h2v0.2h-1.8v0.7h1.6
			c0,0.2-0.1,0.9-0.6,1.6c0.3,0.3,0.7,0.5,0.8,0.6l-0.1,0.2c-0.2-0.1-0.5-0.3-0.8-0.6c-0.4,0.4-0.7,0.5-0.9,0.6L160.8,138.1z
			 M160.6,137.5c-0.5,0.2-1,0.3-1.2,0.4l0-0.2c0.2,0,0.4-0.1,0.6-0.1V136h-0.5v-0.2h0.5v-0.9h0.2v0.9h0.5v0.2h-0.5v1.4
			c0.3-0.1,0.4-0.1,0.5-0.2L160.6,137.5"/>
		<path class="st61" d="M165.7,137.4h-0.8v0.4h0.8V137.4z M165.8,136.1h-1v0.3h1V136.1 M165.1,135.6c-0.1,0.1-0.2,0.2-0.3,0.3h1
			c-0.1-0.1-0.2-0.2-0.2-0.3H165.1 M165.8,137.9h-1.1v-0.7h1.1V137.9 M166.3,138.1c0,0.2-0.1,0.2-0.3,0.2h-0.3l0-0.2l0.3,0
			c0.1,0,0.1,0,0.1-0.1v-1h-1.7v1.4h-0.2v-1.5h2.1V138.1 M164.1,136.2c0.2-0.1,0.6-0.3,0.8-0.6h-0.7v-0.2h0.8
			c0.1-0.1,0.1-0.2,0.1-0.3c-0.1,0-0.7,0-0.8,0l-0.1-0.2c0.4,0,1.3,0,1.8-0.1l0.1,0.2c-0.1,0-0.4,0.1-0.9,0.1c0,0.1-0.1,0.2-0.1,0.3
			h1.3v0.2h-0.7c0.2,0.3,0.3,0.5,0.8,0.6l-0.1,0.1c-0.1,0-0.3-0.1-0.5-0.3v0.4h-1.3v-0.4c-0.2,0.2-0.3,0.2-0.4,0.3L164.1,136.2
			 M164,136.9c-0.1-0.1-0.2-0.2-0.3-0.4v1.8h-0.2v-1.9c-0.1,0.5-0.3,0.7-0.5,0.9l-0.1-0.2c0.3-0.5,0.5-0.9,0.5-1.2h-0.5v-0.2h0.5
			v-0.8h0.2v0.8h0.4v0.2h-0.4v0.2c0.1,0.3,0.3,0.5,0.4,0.7L164,136.9"/>
		<path class="st61" d="M160.8,138.1c0.2-0.1,0.6-0.3,0.9-0.6c-0.4-0.5-0.5-1-0.5-1.2l0.2-0.1c0.1,0.5,0.3,0.8,0.5,1.1
			c0.4-0.5,0.5-1,0.5-1.2h-1.4v0.4c0,0.4-0.1,1.2-0.6,1.7l-0.2-0.1c0.2-0.2,0.6-0.5,0.6-1.6v-1.5h2v0.2h-1.8v0.7h1.6
			c0,0.2-0.1,0.9-0.6,1.6c0.3,0.3,0.7,0.5,0.8,0.6l-0.1,0.2c-0.2-0.1-0.5-0.3-0.8-0.6c-0.4,0.4-0.7,0.5-0.9,0.6L160.8,138.1z
			 M160.6,137.5c-0.5,0.2-1,0.3-1.2,0.4l0-0.2c0.2,0,0.4-0.1,0.6-0.1V136h-0.5v-0.2h0.5v-0.9h0.2v0.9h0.5v0.2h-0.5v1.4
			c0.3-0.1,0.4-0.1,0.5-0.2L160.6,137.5"/>
		<path class="st61" d="M165.7,137.4h-0.8v0.4h0.8V137.4z M165.8,136.1h-1v0.3h1V136.1 M165.1,135.6c-0.1,0.1-0.2,0.2-0.3,0.3h1
			c-0.1-0.1-0.2-0.2-0.2-0.3H165.1 M165.8,137.9h-1.1v-0.7h1.1V137.9 M166.3,138.1c0,0.2-0.1,0.2-0.3,0.2h-0.3l0-0.2l0.3,0
			c0.1,0,0.1,0,0.1-0.1v-1h-1.7v1.4h-0.2v-1.5h2.1V138.1 M164.1,136.2c0.2-0.1,0.6-0.3,0.8-0.6h-0.7v-0.2h0.8
			c0.1-0.1,0.1-0.2,0.1-0.3c-0.1,0-0.7,0-0.8,0l-0.1-0.2c0.4,0,1.3,0,1.8-0.1l0.1,0.2c-0.1,0-0.4,0.1-0.9,0.1c0,0.1-0.1,0.2-0.1,0.3
			h1.3v0.2h-0.7c0.2,0.3,0.3,0.5,0.8,0.6l-0.1,0.1c-0.1,0-0.3-0.1-0.5-0.3v0.4h-1.3v-0.4c-0.2,0.2-0.3,0.2-0.4,0.3L164.1,136.2
			 M164,136.9c-0.1-0.1-0.2-0.2-0.3-0.4v1.8h-0.2v-1.9c-0.1,0.5-0.3,0.7-0.5,0.9l-0.1-0.2c0.3-0.5,0.5-0.9,0.5-1.2h-0.5v-0.2h0.5
			v-0.8h0.2v0.8h0.4v0.2h-0.4v0.2c0.1,0.3,0.3,0.5,0.4,0.7L164,136.9"/>
		<path class="st61" d="M160.8,138.1c0.2-0.1,0.6-0.3,0.9-0.6c-0.4-0.5-0.5-1-0.5-1.2l0.2-0.1c0.1,0.5,0.3,0.8,0.5,1.1
			c0.4-0.5,0.5-1,0.5-1.2h-1.4v0.4c0,0.4-0.1,1.2-0.6,1.7l-0.2-0.1c0.2-0.2,0.6-0.5,0.6-1.6v-1.5h2v0.2h-1.8v0.7h1.6
			c0,0.2-0.1,0.9-0.6,1.6c0.3,0.3,0.7,0.5,0.8,0.6l-0.1,0.2c-0.2-0.1-0.5-0.3-0.8-0.6c-0.4,0.4-0.7,0.5-0.9,0.6L160.8,138.1z
			 M160.6,137.5c-0.5,0.2-1,0.3-1.2,0.4l0-0.2c0.2,0,0.4-0.1,0.6-0.1V136h-0.5v-0.2h0.5v-0.9h0.2v0.9h0.5v0.2h-0.5v1.4
			c0.3-0.1,0.4-0.1,0.5-0.2L160.6,137.5"/>
		<g>
			<path class="st7" d="M192.4,120.9c0.2,0.1,0.3,0.3,0.4,0.5l-0.2,0.1c-0.1-0.1-0.2-0.3-0.4-0.5L192.4,120.9z M190.7,123.5
				c0.1,0,0.2-0.1,0.3-0.1v-1.8h0.7c0-0.2,0-0.5,0-0.7l0.3,0c0,0,0,0-0.1,0.1c0,0.2,0,0.4,0,0.6h0.9v0.2H192c0,0.4,0.1,0.8,0.2,1.1
				c0.1-0.3,0.3-0.6,0.4-0.9l0.3,0.1c0,0,0,0-0.1,0c-0.1,0.4-0.3,0.7-0.5,1c0.1,0.3,0.2,0.4,0.3,0.4c0.1,0,0.1-0.2,0.1-0.6
				c0.1,0,0.1,0.1,0.2,0.1c0,0.6-0.1,0.7-0.4,0.7c-0.2,0-0.3-0.2-0.5-0.4c-0.1,0.2-0.3,0.3-0.4,0.5c0,0-0.1-0.1-0.2-0.2
				c0.2-0.1,0.4-0.3,0.5-0.6c-0.1-0.4-0.2-0.9-0.2-1.4h-0.5v1.5c0.2-0.1,0.3-0.2,0.5-0.3l0,0.2c-0.4,0.2-0.7,0.4-1,0.5
				c0,0,0,0.1,0,0.1L190.7,123.5 M190.3,123.2v0.8c0.3,0.1,0.6,0.2,1,0.2c0.2,0,1.4,0,1.6,0c0,0.1-0.1,0.2-0.1,0.3h-1.5
				c-0.9,0-1.4-0.2-1.7-0.8c0,0.3-0.1,0.6-0.3,0.9c0-0.1-0.1-0.1-0.2-0.2c0.3-0.5,0.3-1.2,0.3-1.7l0.3,0c0,0,0,0-0.1,0.1
				c0,0.1,0,0.3,0,0.5c0.1,0.3,0.2,0.5,0.4,0.7v-1.5h-0.8v-0.2h0.8v-0.5h-0.6v-0.2h0.6v-0.5l0.3,0c0,0,0,0-0.1,0.1v0.4h0.6v0.2h-0.6
				v0.5h0.7v0.2h-0.6v0.6h0.6v0.2H190.3"/>
			<path class="st7" d="M196.9,121.1C196.9,121.1,196.9,121.2,196.9,121.1c-0.1,1.8-0.1,2.4-0.2,2.5c-0.1,0.1-0.2,0.2-0.5,0.2
				c-0.1,0-0.2,0-0.4,0c0-0.1,0-0.2-0.1-0.3c0.2,0,0.4,0,0.5,0c0.1,0,0.1,0,0.1-0.1c0.1-0.1,0.1-0.7,0.2-2.1h-0.9
				c-0.1,0.9-0.2,1.9-1,2.5c0-0.1-0.1-0.1-0.2-0.2c0.7-0.5,0.9-1.4,0.9-2.3h-0.9v-0.3h2.2L196.9,121.1z M193.7,120.9
				c0.3,0.2,0.6,0.4,0.7,0.6l-0.2,0.2c-0.1-0.2-0.4-0.5-0.7-0.6L193.7,120.9 M194.3,122.4v1.3c0.3,0.5,0.9,0.5,1.6,0.5
				c0.4,0,0.9,0,1.2,0c0,0.1-0.1,0.2-0.1,0.3c-0.3,0-0.7,0-1.1,0c-0.8,0-1.4,0-1.8-0.5c-0.2,0.2-0.4,0.4-0.6,0.5c0,0,0,0.1,0,0.1
				l-0.2-0.3c0.2-0.1,0.4-0.3,0.6-0.5v-1.1h-0.6v-0.3H194.3"/>
			<path class="st7" d="M200.9,121l0.4,0c0,0,0,0-0.1,0v3.4h-0.3V121z M199.5,121.2l0.3,0c0,0,0,0-0.1,0.1v2.9h-0.3V121.2
				 M198.2,121l0.3,0c0,0,0,0-0.1,0v1.3c0,0.8-0.1,1.5-0.6,2.1c-0.1-0.1-0.2-0.1-0.2-0.2c0.5-0.6,0.5-1.2,0.5-1.9V121"/>
		</g>
		<g>
			<path class="st7" d="M157.5,137.2h-1.3v0.4h1.3V137.2z M157.7,137.7H156V137h1.6V137.7 M157.8,135.7h-1.8v0.4h1.8V135.7
				 M158,136.3h-2.2v-0.7h2.2V136.3 M158.4,138c0,0.2-0.1,0.3-0.2,0.3h-0.6l0-0.2l0.5,0c0,0,0.1,0,0.1-0.1v-1.1h-2.6v1.5h-0.2v-1.7
				h3.1V138 M158.5,135.3h-3.4v-0.2h1.6v-0.3h0.2v0.3h1.6V135.3"/>
			<path class="st7" d="M160.3,138c0.2-0.1,0.6-0.3,0.9-0.6c-0.4-0.5-0.5-1-0.5-1.2l0.2-0.1c0.1,0.5,0.3,0.8,0.5,1.1
				c0.4-0.5,0.5-1,0.5-1.2h-1.4v0.4c0,0.4-0.1,1.2-0.6,1.7l-0.2-0.1c0.2-0.2,0.6-0.5,0.6-1.6V135h2v0.2h-1.8v0.7h1.6
				c0,0.2-0.1,0.9-0.6,1.6c0.3,0.3,0.7,0.5,0.8,0.6l-0.1,0.2c-0.2-0.1-0.5-0.3-0.8-0.6c-0.4,0.4-0.7,0.5-0.9,0.6L160.3,138z
				 M160.1,137.3c-0.5,0.2-1,0.3-1.2,0.4l0-0.2c0.2,0,0.4-0.1,0.6-0.1v-1.4h-0.5v-0.2h0.5v-0.9h0.2v0.9h0.5v0.2h-0.5v1.4
				c0.3-0.1,0.4-0.1,0.5-0.2L160.1,137.3"/>
			<path class="st7" d="M165.2,137.2h-0.8v0.4h0.8V137.2z M165.3,136h-1v0.3h1V136 M164.6,135.5c-0.1,0.1-0.2,0.2-0.3,0.3h1
				c-0.1-0.1-0.2-0.2-0.2-0.3H164.6 M165.3,137.8h-1.1v-0.7h1.1V137.8 M165.8,138c0,0.2-0.1,0.2-0.3,0.2h-0.3l0-0.2l0.3,0
				c0.1,0,0.1,0,0.1-0.1v-1h-1.7v1.4h-0.2v-1.5h2.1V138 M163.6,136.1c0.2-0.1,0.6-0.3,0.8-0.6h-0.7v-0.2h0.8
				c0.1-0.1,0.1-0.2,0.1-0.3c-0.1,0-0.7,0-0.8,0l-0.1-0.2c0.4,0,1.3,0,1.8-0.1l0.1,0.2c-0.1,0-0.4,0.1-0.9,0.1
				c0,0.1-0.1,0.2-0.1,0.3h1.3v0.2h-0.7c0.2,0.3,0.3,0.5,0.8,0.6l-0.1,0.1c-0.1,0-0.3-0.1-0.5-0.3v0.4h-1.3V136
				c-0.2,0.2-0.3,0.2-0.4,0.3L163.6,136.1 M163.5,136.8c-0.1-0.1-0.2-0.2-0.3-0.4v1.8h-0.2v-1.9c-0.1,0.5-0.3,0.7-0.4,0.9l-0.1-0.2
				c0.3-0.5,0.5-0.9,0.5-1.2h-0.5v-0.2h0.5v-0.8h0.2v0.8h0.4v0.2h-0.4v0.2c0.1,0.3,0.3,0.5,0.4,0.7L163.5,136.8"/>
		</g>
		<path class="st40" d="M171.3,21.6c-23.7,0-43.4,20.9-48.2,48.6l-8.3,2.6l7.5,3.9c-0.2,2.1-0.3,4.2-0.3,6.3
			c0,33.9,22,61.5,49.2,61.5c27.2,0,49.2-27.5,49.2-61.5C220.5,49.1,198.5,21.6,171.3,21.6z"/>
		<text transform="matrix(1 0 0 1 136.855 72.4594)" class="st7 st62 st63">南活動中心南</text>
		<text transform="matrix(1 0 0 1 171.7545 79.4297)" class="st0 st64 st65">AKIM株式会社</text>
	</g>
</g>
</svg>
