<?xml version="1.0" encoding="utf-8"?>
<!-- Generator: Adobe Illustrator 23.0.1, SVG Export Plug-In . SVG Version: 6.00 Build 0)  -->
<svg version="1.1" id="レイヤー_1" xmlns="http://www.w3.org/2000/svg" xmlns:xlink="http://www.w3.org/1999/xlink" x="0px"
	 y="0px" viewBox="0 0 230 230" style="enable-background:new 0 0 230 230;" xml:space="preserve">
<style type="text/css">
	.st0{fill:#FFFFFF;}
	.st1{fill:#EFEFEF;}
	.st2{opacity:0.5;}
	.st3{clip-path:url(#SVGID_2_);}
	.st4{fill:none;stroke:#FFFFFF;stroke-width:1.7;stroke-linecap:round;stroke-linejoin:round;}
	.st5{clip-path:url(#SVGID_4_);}
	.st6{fill:none;stroke:#221815;stroke-width:0.36;}
	.st7{fill:#221815;}
	.st8{fill:none;stroke:#C0AD5E;stroke-width:5.67;stroke-linecap:round;stroke-linejoin:round;}
	.st9{fill:none;stroke:#C0AD5E;stroke-width:2.84;stroke-linecap:round;stroke-linejoin:round;}
	.st10{fill:none;stroke:#C0AD5E;stroke-width:1.7;stroke-linecap:round;stroke-linejoin:round;}
	.st11{fill:none;stroke:#FFFFFF;stroke-width:0.24;}
	.st12{fill:none;stroke:#221815;stroke-width:0.12;}
	.st13{fill:none;stroke:#221815;stroke-width:1.37;stroke-miterlimit:10;}
	.st14{fill:none;stroke:#FFFFFF;stroke-width:1.03;stroke-miterlimit:10;stroke-dasharray:4.11,4.11;}
	.st15{fill:none;stroke:#FFFFFF;stroke-width:1.03;stroke-miterlimit:10;stroke-dasharray:4.79,4.79;}
	.st16{fill:none;stroke:#C0AD5E;stroke-width:5.67;stroke-linecap:round;}
	.st17{fill:none;stroke:#947F28;stroke-width:5.67;stroke-linecap:round;}
	.st18{fill:none;stroke:#FFFFFF;stroke-width:2.74;stroke-linecap:round;}
	.st19{fill:none;stroke:#947F28;stroke-width:1.37;stroke-linecap:round;}
	.st20{fill:none;stroke:#221815;stroke-width:0.17;stroke-miterlimit:10;}
	.st21{fill:none;stroke:#FFFFFF;stroke-width:1.76;stroke-linecap:round;}
	.st22{fill:none;stroke:#947F28;stroke-width:0.88;stroke-linecap:round;}
	.st23{fill:none;stroke:#FFFFFF;stroke-width:4.11;stroke-linecap:round;}
	.st24{fill:none;stroke:#947F28;stroke-width:2.05;stroke-linecap:round;}
	.st25{fill:#947F28;}
	.st26{fill:none;stroke:#FFFFFF;stroke-width:1.71;}
	.st27{fill:none;stroke:#221815;stroke-width:0.2;}
	.st28{clip-path:url(#SVGID_6_);}
	.st29{fill:#FEECD2;}
	.st30{fill:#ECE093;}
	.st31{clip-path:url(#SVGID_8_);}
	.st32{clip-path:url(#SVGID_10_);}
	.st33{clip-path:url(#SVGID_12_);}
	.st34{clip-path:url(#SVGID_14_);}
	.st35{fill:none;stroke:#FFFFFF;stroke-width:0.34;}
	.st36{clip-path:url(#SVGID_16_);}
	.st37{fill:none;stroke:#FFFFFF;stroke-width:0.69;stroke-linecap:round;}
	.st38{fill:none;stroke:#221815;stroke-width:0.17;}
	.st39{fill:none;stroke:#221815;stroke-width:0.14;}
	.st40{clip-path:url(#SVGID_18_);}
	.st41{fill:none;stroke:#FFFFFF;stroke-width:2;stroke-miterlimit:10;}
	.st42{fill:none;stroke:#C9CACA;stroke-width:0.14;}
	.st43{fill:none;stroke:#040000;stroke-width:0.29;stroke-miterlimit:10;}
	.st44{fill:none;stroke:#221815;stroke-width:0.25;}
	.st45{fill:none;stroke:#FFFFFF;stroke-width:0.17;}
	.st46{fill:none;stroke:#221815;stroke-width:8.000000e-02;}
	.st47{fill:none;stroke:#FFFFFF;stroke-width:0.74;stroke-linejoin:round;}
	.st48{fill:none;stroke:#221815;stroke-width:0.33;}
	.st49{fill:none;}
	.st50{fill:none;stroke:#221815;stroke-width:0.12;stroke-linejoin:round;}
	.st51{fill:none;stroke:#221815;stroke-width:0.14;stroke-linejoin:round;}
	.st52{fill:none;stroke:#FFFFFF;stroke-width:0.5;stroke-miterlimit:10;}
	.st53{fill:none;stroke:#595757;stroke-width:0.13;stroke-miterlimit:10;}
	.st54{fill:#9FA0A0;}
	.st55{fill:none;stroke:#FFFFFF;stroke-width:0.69;stroke-linejoin:round;}
	.st56{fill:none;stroke:#FFFFFF;stroke-width:0.37;stroke-linecap:round;}
	.st57{fill:#221714;}
</style>
<g>
	<rect x="0.2" y="0.2" class="st0" width="229.5" height="219.5"/>
	<path class="st1" d="M229.5,0.5v219H0.5V0.5H229.5 M230,0H0v220h230V0L230,0z"/>
</g>
<title>greeting-companyinfo-jpn-map</title>
<g>
	<g id="レイヤー_1-2">
		<g class="st2">
			<g>
				<g>
					<defs>
						<rect id="SVGID_1_" x="14.3" y="87" width="110.4" height="6.6"/>
					</defs>
					<clipPath id="SVGID_2_">
						<use xlink:href="#SVGID_1_"  style="overflow:visible;"/>
					</clipPath>
					<g class="st3">
						<polyline class="st4" points="123.8,87.9 113.5,92.8 15.1,92.8 						"/>
					</g>
				</g>
			</g>
		</g>
		<g class="st2">
			<g>
				<g>
					<defs>
						<rect id="SVGID_3_" x="15.6" y="72.6" width="117" height="1.7"/>
					</defs>
					<clipPath id="SVGID_4_">
						<use xlink:href="#SVGID_3_"  style="overflow:visible;"/>
					</clipPath>
					<g class="st5">
						<line class="st4" x1="131.8" y1="73.4" x2="16.5" y2="73.4"/>
					</g>
				</g>
			</g>
		</g>
		<path class="st6" d="M110.1,148.7c0,1-0.8,1.7-1.7,1.7s-1.7-0.8-1.7-1.7c0-1,0.8-1.7,1.7-1.7l0,0
			C109.3,147,110.1,147.8,110.1,148.7z"/>
		<path class="st7" d="M112.1,76.1c1.2,1.2,1.2,3.1,0,4.2s-3.1,1.2-4.2,0s-1.2-3.1,0-4.2l0,0C109.1,75,111,75,112.1,76.1"/>
		<path class="st7" d="M67,121h-0.6c-0.6,0-0.7-0.2-0.7-0.7v-4.4H66c0.1,0,0.2,0,0.2,0.1s0,0.1-0.2,0.1v2c0.6-0.4,1.1-0.8,1.6-1.4
			l0.3,0.2c0.1,0,0.1,0.1,0.1,0.1s0,0-0.1,0h-0.1c-0.5,0.6-1.1,1-1.7,1.4v1.8c0,0.3,0.1,0.3,0.4,0.3H67c0.3,0,0.5,0,0.6-0.8
			c0.1,0.1,0.2,0.2,0.3,0.2C67.8,121,67.4,121,67,121 M64.5,116.1v5.2h-0.3v-1.5c-0.7,0.3-0.9,0.3-1.5,0.6c0,0.1,0,0.2-0.1,0.2
			s-0.1-0.1-0.1-0.1l-0.1-0.4c0.6-0.1,1.2-0.3,1.8-0.6v-1.8h-1.7v-0.3h1.8v-1.5h0.3c0.1,0,0.2,0,0.2,0.1S64.7,116.1,64.5,116.1"/>
		<path class="st7" d="M71.7,118c0.1,0.7,0.3,1.4,0.7,1.9c0.4-0.6,0.6-1.2,0.7-1.9H71.7z M73.7,121.3c-0.5-0.2-0.9-0.5-1.3-0.9
			c-0.4,0.4-0.9,0.8-1.4,1c-0.1-0.1-0.2-0.2-0.3-0.3c0.5-0.2,1-0.6,1.4-1c-0.4-0.6-0.7-1.4-0.8-2.2h-0.2c0,1.3-0.5,2.5-1.3,3.4
			c-0.1-0.1-0.2-0.2-0.2-0.2c1-1.1,1.4-2.5,1.2-3.9V116h3.1v0.3h-2.8v1.2h2.1l0.2,0.2c0,0.8-0.3,1.7-0.8,2.3
			c0.4,0.4,0.8,0.7,1.3,0.9C73.8,121.1,73.7,121.2,73.7,121.3 M69.6,117.7v2.1l0.8-0.3c0,0.1,0,0.2,0,0.3c-0.5,0.3-1.1,0.5-1.7,0.6
			c0,0.1,0,0.2-0.1,0.2s-0.1-0.1-0.1-0.1v-0.3l0.8-0.2v-2.2h-0.8v-0.3h0.8v-1.6h0.3c0.1,0,0.1,0,0.1,0.1s-0.1,0.1-0.1,0.1v1.3h0.9
			v0.3H69.6"/>
		<path class="st7" d="M78.8,117.6h-3.2c0,0.2,0,1,0,1.2h3.2V117.6z M74.6,116.2h4.9v0.3h-4.9V116.2z M78.8,119.4v-0.3h-3.3
			c0,0.8-0.3,1.6-0.8,2.3c-0.1-0.1-0.2-0.2-0.3-0.2c0.6-0.8,0.8-1.8,0.8-2.7v-1.2h3.9v2.2L78.8,119.4"/>
		<path class="st7" d="M66,69.7h-1.6v0.6H66V69.7z M64.5,70.6V71h-0.3v-1.5h2.2v1.1H64.5 M66.4,67.5h-2.3v0.6h2.3V67.5z M63.8,67.2
			h2.9v1.2h-2.9L63.8,67.2z M66.5,71.5c0-0.1-0.1-0.3-0.1-0.4c0.1,0,0.3,0,0.4,0c0.3,0,0.3-0.1,0.3-0.4v-1.6h-3.9v2.4h-0.3v-2.6h4.6
			v2C67.5,71.3,67.4,71.5,66.5,71.5 M62.5,66.8v-0.3H65V66h0.3c0.1,0,0.2,0,0.2,0.1s-0.1,0.1-0.2,0.1v0.3H68v0.3H62.5"/>
		<path class="st7" d="M71.7,68.1c0.1,0.7,0.4,1.4,0.8,1.9c0.4-0.6,0.6-1.2,0.7-1.9H71.7z M73.7,71.5c-0.5-0.2-0.9-0.6-1.3-1
			c-0.4,0.4-0.9,0.8-1.4,1c-0.1-0.1-0.1-0.2-0.3-0.3c0.5-0.2,1-0.6,1.4-1c-0.4-0.7-0.7-1.4-0.8-2.2h-0.2c0,1.3-0.5,2.5-1.3,3.4
			c-0.1-0.1-0.2-0.2-0.2-0.2c1-1,1.4-2.5,1.2-3.9v-1.1H74v0.3h-2.8v1.2h2.1l0.2,0.1c0,0.8-0.3,1.7-0.8,2.3c0.4,0.4,0.8,0.7,1.3,0.9
			C73.9,71.3,73.8,71.3,73.7,71.5 M69.6,67.9V70l0.8-0.3c0,0.1,0,0.2,0,0.3c-0.5,0.2-1.1,0.5-1.7,0.6c0,0.1,0,0.2-0.1,0.2
			s-0.1-0.1-0.1-0.1v-0.3c0.2,0,0.4-0.1,0.8-0.2V68h-0.8v-0.3h0.8V66h0.3c0.1,0,0.1,0,0.1,0.1s-0.1,0.1-0.1,0.1v1.4h0.8v0.3H69.6"/>
		<path class="st7" d="M74.6,169.5c0.1,0.7,0.3,1.4,0.8,1.9c0.4-0.6,0.6-1.2,0.7-1.9H74.6z M76.6,172.9c-0.5-0.3-0.9-0.6-1.3-1
			c-0.4,0.4-0.9,0.8-1.4,1c-0.1-0.1-0.1-0.2-0.2-0.3c0.5-0.2,1-0.6,1.4-1c-0.4-0.6-0.7-1.4-0.8-2.2H74c0,1.3-0.5,2.5-1.3,3.4
			c-0.1-0.1-0.2-0.2-0.2-0.2c0.9-1.1,1.4-2.5,1.2-3.9v-1.1h3.1v0.3H74v1.2h2.1l0.2,0.1c0,0.9-0.3,1.7-0.8,2.4
			c0.4,0.4,0.8,0.7,1.3,0.9C76.7,172.6,76.6,172.7,76.6,172.9 M72.4,169.3v2.1c0.3-0.1,0.5-0.2,0.8-0.3c0,0.1,0,0.2,0,0.3
			c-0.5,0.2-1.1,0.5-1.7,0.6c0,0.1,0,0.1-0.1,0.1s-0.1-0.1-0.1-0.1v-0.3c0.2,0,0.4-0.1,0.8-0.2v-2.2h-0.8V169h0.8v-1.5h0.3
			c0.1,0,0.1,0,0.1,0.1s-0.1,0.1-0.1,0.1v1.3h0.9v0.3L72.4,169.3"/>
		<path class="st7" d="M81.7,169.2h-3.2c0,0.2,0,1.1,0,1.2h3.2V169.2z M77.5,167.7h5v0.3h-5V167.7z M81.7,171v-0.3h-3.3
			c0,0.8-0.3,1.6-0.8,2.2c-0.1-0.1-0.2-0.2-0.3-0.2c0.6-0.8,0.8-1.8,0.8-2.7v-1.2H82v2.2H81.7"/>
		<path class="st7" d="M115.1,148.5c0.1,0.7,0.3,1.4,0.8,1.9c0.4-0.6,0.6-1.2,0.7-1.9H115.1z M117.1,151.9c-0.5-0.2-0.9-0.6-1.3-0.9
			c-0.4,0.4-0.9,0.8-1.4,1c-0.1-0.1-0.2-0.2-0.3-0.3c0.5-0.2,1-0.6,1.4-1c-0.4-0.7-0.7-1.4-0.8-2.2h-0.2c0,1.3-0.5,2.5-1.3,3.4
			c-0.1-0.1-0.2-0.2-0.3-0.2c1-1,1.4-2.5,1.2-3.9v-1.2h3.1v0.3h-2.8v1.2h2.1l0.2,0.1c0,0.9-0.3,1.7-0.8,2.4c0.4,0.4,0.8,0.7,1.3,0.9
			C117.2,151.7,117.1,151.8,117.1,151.9 M113,148.3v2.1l0.8-0.3c0,0.1,0,0.2,0,0.3c-0.5,0.2-1.1,0.5-1.7,0.6c0,0.1,0,0.1-0.1,0.1
			s-0.1-0.1-0.1-0.1v-0.3c0.3-0.1,0.5-0.1,0.8-0.2v-2.2h-0.8V148h0.8v-1.6h0.3c0.1,0,0.1,0,0.1,0.1s-0.1,0.1-0.1,0.1v1.3h0.9v0.3
			L113,148.3"/>
		<path class="st7" d="M122.2,148.2H119c0,0.2,0,1.1,0,1.2h3.2V148.2z M118,146.8h5v0.3h-5V146.8z M122.2,150.1v-0.3H119
			c0,0.8-0.3,1.6-0.8,2.3c-0.1-0.1-0.2-0.1-0.3-0.2c0.6-0.8,0.8-1.8,0.8-2.7V148h3.9v2.2L122.2,150.1"/>
		<path class="st7" d="M126.7,147.6c0.1,0,0.1,0,0.1,0.1s-0.1,0.1-0.2,0.1v0.8h1.9v2c0,0.7-0.1,0.9-1,0.9c0-0.1-0.1-0.2-0.1-0.4h0.4
			c0.4,0,0.4-0.1,0.4-0.5v-1.8h-1.6v3.2h-0.3v-3.1h-1.5v2.6h-0.3v-2.9h1.9v-0.9h-2.6v-0.3h2.6v-0.8h0.3c0.1,0,0.2,0,0.2,0.1
			s-0.1,0.1-0.2,0.1v0.6h2.6v0.3L126.7,147.6z"/>
		<path class="st7" d="M133.6,147h-1c0.1,0.7-0.2,1.4-0.7,1.9c-0.1-0.1-0.2-0.2-0.3-0.2c0.6-0.6,0.7-1,0.7-2h1.7v1.4
			c0,0.2,0.1,0.2,0.3,0.2c0.4,0,0.5,0,0.6-0.6c0.1,0.1,0.2,0.2,0.3,0.2c-0.1,0.4-0.2,0.6-0.4,0.7c-0.2,0-0.4,0-0.6,0
			c-0.4,0-0.6,0-0.6-0.5V147z M132.3,149.5c0.2,0.4,0.5,0.8,0.9,1.1c0.4-0.3,0.8-0.8,1-1.3h-2.5V149h2.7l0.2,0.2
			c-0.3,0.6-0.7,1.1-1.2,1.6c0.5,0.4,1.1,0.6,1.7,0.8c-0.1,0.1-0.1,0.2-0.2,0.3c-0.7-0.2-1.3-0.5-1.8-0.9c-0.5,0.4-1,0.7-1.6,0.9
			c0-0.1-0.1-0.2-0.2-0.3c0.5-0.2,1.1-0.4,1.5-0.8c-0.4-0.3-0.7-0.7-0.9-1.2L132.3,149.5 M131.4,146.6
			C131.4,146.6,131.5,146.6,131.4,146.6c0.1,0.2,0,0.1,0,0.1h-0.1c-0.4,0.5-0.8,1-1.4,1.4c-0.1-0.1-0.2-0.2-0.3-0.2
			c0.6-0.4,1.1-0.9,1.4-1.5L131.4,146.6 M131.5,148l0.1,0.1c0,0,0,0.1-0.1,0.1h-0.1c-0.2,0.3-0.4,0.5-0.6,0.8c0.1,0,0.2,0,0.2,0.1
			s0,0.1-0.1,0.1v2.8h-0.3v-2.7c-0.2,0.3-0.5,0.5-0.8,0.8c-0.1-0.1-0.2-0.2-0.3-0.3c0.7-0.5,1.3-1.2,1.7-2L131.5,148"/>
		<path class="st7" d="M140.4,148.7v3.2H140v-3.2h-1v0.1c0.1,1.1-0.3,2.2-1.1,3c-0.1-0.1-0.2-0.2-0.3-0.2c0.8-0.7,1.2-1.8,1.1-2.8
			v-1.9l0.3,0.1c0.6-0.1,1.2-0.2,1.8-0.5l0.2,0.3v0.1c0,0,0,0-0.1,0h-0.1c-0.6,0.2-1.2,0.4-1.8,0.4v1.1h2.1v0.3L140.4,148.7z
			 M137.8,148.2h-1.4v1.2h1.4V148.2z M135.8,146.8h2.6v0.3h-2.6V146.8z M136.4,149.7c0,0.8-0.2,1.6-0.5,2.2
			c-0.1-0.1-0.2-0.1-0.3-0.1c0.4-0.7,0.6-1.5,0.5-2.2V148h2v1.8L136.4,149.7"/>
		<path class="st7" d="M174.6,182c0,0.2,0,0.3,0,0.5l-0.3,0.1c0-0.2,0-0.4-0.1-0.7l0.3-0.1h0.1V182 M174.3,183.1l-0.3,0.3
			c0,0.2,0.1,0.3,0.1,0.5l0.7-0.5C174.6,183.2,174.5,183.2,174.3,183.1 M176.6,183.6c-0.5,0-1-0.1-1.5-0.2l-1,0.8c0,0.1,0,0.2,0,0.4
			l1.3-1l0.7,0.9l-0.2,0.2l-0.1-0.1l-0.9,0.7l0.1,0.2c0.1,0.2,0.1,0.2,0.3,0.1l0.9-0.7c0.2-0.2,0.3-0.2,0-0.7c0.1,0,0.2,0,0.3,0
			c0.2,0.6,0.2,0.6-0.2,1l-0.9,0.7c-0.2,0.1-0.4,0.3-0.6,0l-0.4-0.5l1.2-0.9l-0.3-0.3l-1.1,0.8l-0.1-0.1c0,0.4-0.1,0.7-0.1,1.1
			c-0.1,0-0.2,0-0.3,0c0.1-0.4,0.2-0.9,0.2-1.4l-0.7,0.5l-0.2-0.2l0.8-0.6c0-0.3-0.1-0.4-0.1-0.5l-0.8,0.6l-0.2-0.2l0.8-0.6
			c-0.1-0.2-0.2-0.5-0.3-0.7l0.3-0.1c0.1,0,0.1,0,0.1,0s0,0.1-0.1,0.2c0.1,0.1,0.1,0.3,0.2,0.5l1.2-0.9l0.2,0.2l-0.8,0.6
			c0.1,0,0.2,0.1,0.5,0.2l0.8-0.6l0.2,0.2l-0.7,0.5c0.4,0.1,0.9,0.1,1.3,0.1C176.5,183.4,176.5,183.5,176.6,183.6 M173.3,183.6
			c-0.2-0.1-0.4-0.2-0.6-0.2l0.1-0.2c0.2,0.1,0.4,0.1,0.6,0.2C173.3,183.4,173.3,183.5,173.3,183.6 M175,181l-3.2,2.5l2.6,3.4
			l3.2-2.5L175,181 M178,184.9l-0.2-0.3l-3.2,2.5l0.2,0.3l-0.3,0.2l-3.2-4.2l3.8-2.9l3.2,4.2L178,184.9"/>
		<path class="st7" d="M180.1,178.2l-1.3,1l0.4,0.5c0.2,0.2,0.4,0.5,0.5,0.8l1.3-1L180.1,178.2z M178.5,179.4l-1.3,1l0.9,1.2l1.2-1
			c-0.2-0.3-0.3-0.5-0.5-0.8L178.5,179.4 M183.1,180.9c-1,0.4-2.2,0.4-3.3,0c0.3,1.1,0,2.3-0.8,3.2c-0.1-0.1-0.2-0.1-0.4-0.1
			c0.3-0.4,1.4-1.7,0.9-3.1l-1.9,1.5l-0.2-0.2l0.5-0.4l-1.1-1.4l1.5-1.2l-0.7-0.9l0.3-0.2c0.1,0,0.1-0.1,0.2,0s0,0.1-0.1,0.2
			l0.6,0.7l1.5-1.2l1.1,1.4l0.5-0.4l0.2,0.2l-2,1.6c1,0.4,2.1,0.3,3.1-0.1C183.1,180.7,183.1,180.8,183.1,180.9"/>
		<path class="st7" d="M186.1,176.1l-1.8,1.4l0.3,0.4l1.8-1.4L186.1,176.1z M185.6,175.5l-1.8,1.4l0.3,0.4l1.8-1.4L185.6,175.5
			 M185.2,174.9l-1.8,1.4l0.3,0.4l1.8-1.4L185.2,174.9 M183.8,174.8c0.1,0.2,0.1,0.4,0.2,0.6l1.3-1l1.8,2.3l-0.2,0.2l-0.2-0.3
			l-1.8,1.4l0.2,0.3l-0.2,0.2l-1.8-2.3l0.7-0.6c0-0.2-0.1-0.4-0.2-0.6l-1.3,1l-0.2-0.2l0.9-0.6c-0.2-0.1-0.5-0.2-0.8-0.2l0.1-0.3
			c0.3,0.1,0.5,0.2,0.8,0.3c-0.1,0.1-0.1,0.2-0.1,0.2l1-0.8c0-0.3-0.1-0.6-0.2-0.9l0.4-0.1h0.1c0,0.1,0,0.1-0.1,0.2
			c0,0.3,0,0.4,0.1,0.6l0.9-0.7l0.2,0.2L183.8,174.8 M187.9,177.1l-1.9,1.5c-0.8,0.6-1.2,0.9-1.9,0.6c-0.1,0.3-0.1,0.6-0.2,0.9
			l0.1,0.1v0.1h-0.1l-0.3-0.1c0.1-0.3,0.2-0.7,0.3-1l-1.1-1.4l-0.7,0.6l-0.2-0.2l1-0.8l1.1,1.4c0.1,0.2,0.3,0.3,0.4,0.3
			c0.5,0.1,0.9-0.2,1.4-0.5c1.6-1.3,1.8-1.4,2.1-1.7C187.8,176.9,187.8,177,187.9,177.1 M182.2,176.6c-0.5-0.1-1-0.2-1.5-0.2
			l0.1-0.3c0.5,0,1,0.1,1.5,0.1C182.3,176.4,182.3,176.5,182.2,176.6"/>
		<path class="st7" d="M12.2,80.8h-1.5v0.6h1.5V80.8z M10.7,81.6V82h-0.3v-1.4h2.2v1.1L10.7,81.6 M12.6,78.5h-2.3v0.6h2.3V78.5z
			 M10,78.2h3v1.2h-3V78.2z M12.8,82.5c0-0.1-0.1-0.3-0.1-0.4c0.1,0,0.3,0,0.4,0c0.3,0,0.3-0.1,0.3-0.4v-1.6H9.5v2.4H9.2v-2.7h4.6v2
			C13.8,82.3,13.7,82.5,12.8,82.5 M8.8,77.8v-0.3h2.5V77h0.3c0.1,0,0.1,0,0.1,0.1s-0.1,0.1-0.1,0.1v0.3h2.6v0.3H8.8"/>
		<path class="st7" d="M18,79.1c0.1,0.7,0.3,1.4,0.7,1.9c0.4-0.6,0.6-1.2,0.7-1.9H18z M20,82.5c-0.5-0.3-0.9-0.6-1.3-1
			c-0.4,0.4-0.9,0.8-1.4,1c-0.1-0.1-0.1-0.2-0.2-0.3c0.5-0.2,1-0.6,1.4-1c-0.5-0.6-0.7-1.4-0.8-2.2h-0.2c0,1.3-0.5,2.5-1.3,3.4
			c-0.1-0.1-0.2-0.2-0.2-0.2c0.9-1.1,1.4-2.5,1.2-3.9v-1.1h3.1v0.3h-2.8v1.2h2.1l0.2,0.1c0,0.9-0.3,1.7-0.8,2.4
			c0.4,0.4,0.8,0.7,1.3,0.9C20.1,82.3,20.1,82.4,20,82.5 M15.9,78.9V81l0.8-0.3c0,0.1,0,0.2,0,0.3c-0.5,0.3-1.1,0.5-1.7,0.6
			c0,0.1,0,0.2-0.1,0.2s-0.1-0.1-0.1-0.1v-0.3c0.1,0,0.4-0.1,0.8-0.2V79h-0.8v-0.3h0.8V77h0.3c0.1,0,0.1,0,0.1,0.1s-0.1,0.1-0.1,0.1
			v1.3h0.9v0.3L15.9,78.9"/>
		<path class="st7" d="M23.7,78.6c0-0.6-0.2-1.1-1.2-1.1c-0.2,0-1.2,0-1.2,0.9c0,0.6,0.5,0.8,1.3,1c1.2,0.3,1.6,0.7,1.6,1.4
			c0,0.9-0.8,1.3-1.6,1.3c-0.6,0-1.2-0.2-1.6-0.7c-0.2-0.3-0.3-0.6-0.2-0.9h0.4c0,0.2,0,0.5,0.1,0.7c0.3,0.3,0.7,0.5,1.2,0.5
			c0.7,0,1.3-0.3,1.3-1s-0.5-0.8-1.2-1c-1.1-0.3-1.7-0.5-1.7-1.3s0.6-1.3,1.5-1.3s1.6,0.5,1.6,1.4L23.7,78.6z"/>
		<path class="st7" d="M26.8,77.7l-1.1,2.8h2.2L26.8,77.7z M27.1,77.3l1.8,4.7h-0.4L28,80.9h-2.5L25.1,82h-0.4l1.8-4.7H27.1"/>
		<path class="st7" d="M32.1,90.3h-1.4v0.4h1.4V90.3z M32.1,89.7h-1.4v0.4h1.4V89.7z M31.5,94.6c0-0.1-0.1-0.2-0.1-0.4
			c0.1,0,0.2,0,0.4,0c0.3,0,0.4-0.1,0.4-0.3V91h-1.7v-1.7h2V94C32.4,94.5,32.2,94.6,31.5,94.6 M30.2,93.1c0.2,0.5,0.7,0.9,1.2,1.1
			c-0.1,0.1-0.1,0.2-0.2,0.3c-0.5-0.3-0.9-0.7-1.2-1.3c-0.3,0.6-0.8,1.1-1.4,1.3c-0.1-0.1-0.1-0.2-0.2-0.3c0.3-0.1,1.2-0.4,1.4-1.2
			h-1.3v-0.3h1.3c0-0.3,0-0.4,0-0.5h-1.2V92h0.7c-0.1-0.2-0.2-0.4-0.4-0.6l0.3-0.1c0.1,0.2,0.3,0.4,0.4,0.6L29.3,92h1
			c0.1-0.2,0.2-0.5,0.4-0.7l0.3,0.1c0,0,0.1,0,0.1,0.1s-0.1,0.1-0.2,0.1c-0.1,0.2-0.2,0.3-0.2,0.4h0.8v0.3h-1.3c0,0.2,0,0.4,0,0.5
			h1.4v0.3L30.2,93.1 M29.3,90.4H28v0.4h1.4L29.3,90.4z M29.3,89.7H28v0.4h1.4L29.3,89.7z M28,91.1v3.6h-0.3v-5.3h2v1.7L28,91.1"/>
		<path class="st7" d="M32.1,96.2c-0.2-0.2-0.3-0.5-0.6-0.7l0.2-0.2c0.2,0.2,0.4,0.4,0.6,0.7C32.3,96,32.2,96.1,32.1,96.2
			 M32.1,99.6c-0.1,0-0.4,0-0.7-0.7c-0.2,0.2-0.4,0.5-0.6,0.7c0,0-0.1-0.1-0.3-0.2c0.3-0.2,0.6-0.5,0.8-0.8c-0.2-0.6-0.3-1.3-0.3-2
			h-0.6v2.2c0.3-0.1,0.5-0.2,0.6-0.3c0,0.1,0,0.2,0.1,0.3c-0.4,0.2-0.8,0.4-1.3,0.6c0,0.1,0,0.2-0.1,0.2s-0.1-0.1-0.1-0.1l-0.1-0.3
			c0.2-0.1,0.4-0.1,0.6-0.2v-2.6h1v-1.2l0.4,0.1c0.1,0,0.1,0,0.1,0.1s-0.1,0.1-0.1,0.1s0,0.7,0,1h1.3v0.3h-1.3
			c0,0.6,0.1,1.1,0.2,1.7c0.2-0.4,0.4-0.8,0.5-1.3l0.3,0.2c0.1,0,0.1,0,0.1,0.1s-0.1,0.1-0.1,0.1h-0.1c-0.1,0.5-0.4,0.9-0.6,1.3
			c0.1,0.2,0.3,0.7,0.4,0.7c0.2,0,0.3-0.8,0.3-0.8c0.1,0.1,0.2,0.1,0.3,0.2C32.7,99.1,32.5,99.7,32.1,99.6 M32.7,100.4h-1.8
			c-1.3,0-2.4-0.1-3-1.3c-0.1,0.5-0.2,1-0.4,1.4c-0.1-0.1-0.2-0.1-0.3-0.2c0.4-0.8,0.6-1.6,0.6-2.5H28c0.1,0,0.1,0,0.1,0.1
			S28,98,27.9,98c0,0.3,0,0.5-0.1,0.5c0.1,0.3,0.3,0.5,0.5,0.7v-2h-1.2v-0.3h1.2V96h-1v0h1v-0.8h0.3c0,0,0.1,0,0.1,0.1
			s0,0.1-0.1,0.1V96h1v0.3h-1v0.9h1v0.3h-1.1v0.9h0.9v0.3h-0.9v1.2c0.8,0.4,1.7,0.5,2.6,0.4c0.6,0,0.6,0,1.4-0.1
			C32.7,100.2,32.7,100.3,32.7,100.4"/>
		<path class="st7" d="M31.7,104.7h-3.3v1h3.3V104.7z M31.7,103.5h-3.3v1h3.3V103.5z M31.7,102.3h-3.3v0.9h3.3V102.3z M31.7,106.5
			V106h-3.3v0.5H28V102h1.2c0.2-0.3,0.3-0.7,0.4-1l0.3,0.1c0.1,0,0.2,0,0.2,0.1s-0.1,0.1-0.2,0.1c-0.1,0.2-0.2,0.5-0.3,0.7H32v4.6
			L31.7,106.5"/>
		<path class="st7" d="M32.2,112c-0.2,0.5-0.5,0.5-1,0.5c0-0.1-0.1-0.3-0.1-0.4c0.2,0,0.3,0,0.5,0s0.4,0,0.5-0.8s0.2-1.7,0.2-2.6
			h-0.8c0,1.3-0.4,2.7-1.2,3.7c-0.1-0.1-0.2-0.1-0.3-0.2c0.8-1,1.2-2.3,1.2-3.6h-0.7v-0.3h0.7v-1.4h0.3c0.1,0,0.2,0,0.2,0.1
			s-0.1,0.1-0.1,0.1v1.2h1.2C32.6,109.6,32.5,110.8,32.2,112 M29.8,109.8H29v0.5h0.8V109.8z M29.8,109H29v0.5h0.8V109z M28.7,109.8
			H28v0.5h0.7V109.8z M28.7,109H28v0.5h0.7V109z M29,108.4v0.4h1.1v1.7H29v0.5h1v0.3h-1v0.6c0.6-0.1,0.7-0.1,1.2-0.2
			c0,0.1-0.1,0.2-0.1,0.3c-0.6,0.1-1.1,0.2-2.4,0.4c0,0.1,0,0.1-0.1,0.1s-0.1-0.1-0.1-0.1l-0.1-0.3c0.7-0.1,1.2-0.1,1.3-0.1v-0.6h-1
			V111h1v-0.5h-1v-1.7h1v-0.4h-1.3v-0.2h1.3v-0.5c-0.4,0.1-0.7,0.1-1.1,0.1c0-0.1-0.1-0.2-0.1-0.3c0.8,0,1.6-0.1,2.4-0.4l0.2,0.2
			v0.1l0,0H30c-0.3,0.1-0.6,0.2-0.9,0.2v0.6h1.4v0.2L29,108.4"/>
		<path class="st7" d="M31.6,115.5h-1.4v0.6h1.4V115.5z M31.6,114.7h-1.4v0.6h1.4V114.7z M29.8,115.5h-1.4v0.6h1.4V115.5z
			 M29.8,114.7h-1.4v0.6h1.4V114.7z M30.1,117.3v1.2h-0.3v-1.2h-2.6V117h2.6v-0.6h-1.7v-2h1.7v-0.6h-2.3v-0.3h2.3V113h0.3
			c0.1,0,0.1,0,0.1,0.1s-0.1,0.1-0.2,0.1v0.4h2.3v0.3H30v0.6h1.8v2H30v0.6h2.6v0.3L30.1,117.3"/>
		<path class="st7" d="M31.9,122.4h-2.3v0.5h2.3V122.4z M31.9,121.6h-2.3v0.5h2.3V121.6z M31.9,120.9h-2.3v0.5h2.3V120.9z M30.9,120
			c-0.1,0.2-0.2,0.5-0.2,0.6h1.6v2.9h-0.4v-0.3h-2.3v0.3h-0.3v-2.9h0.9c0.1-0.2,0.2-0.4,0.2-0.6h-1.7v-0.3h1.1
			c-0.1-0.2-0.3-0.5-0.4-0.7l0.3-0.1c0.2,0.2,0.3,0.4,0.5,0.7c-0.1,0-0.2,0.1-0.2,0.1h1.2c0.2-0.3,0.3-0.5,0.4-0.8L32,119
			c0,0,0.1,0,0.1,0.1s-0.1,0.1-0.2,0.1c-0.1,0.2-0.2,0.3-0.3,0.6h1.2v0.3L30.9,120 M28.5,120.3c-0.3-0.4-0.7-0.7-1.1-1l0.2-0.2
			c0.4,0.3,0.7,0.6,1.1,1C28.6,120.2,28.5,120.3,28.5,120.3 M32.6,124.3h-2.4c-1,0-1.5-0.1-1.9-0.7c-0.2,0.2-0.5,0.4-0.7,0.6v0.1
			c0,0,0,0.1-0.1,0.1s-0.1,0-0.1-0.1l-0.2-0.3c0.3-0.2,0.6-0.4,0.9-0.6v-1.8h-0.9v-0.3h1.2v1.7c0,0.2,0,0.4,0.1,0.5
			c0.4,0.4,0.9,0.5,1.4,0.4c2.1,0,2.3,0,2.7-0.1C32.7,124,32.6,124.1,32.6,124.3"/>
		<path class="st7" d="M191.4,16.3h2.4l0,0c-1.1,1-1.7,2.3-1.6,3.8c0,1.4,0.6,2.8,1.6,3.8l0,0h-2.4V16.3z"/>
		<path class="st7" d="M197.2,18.8l-0.5,0.6c0.6,0.1,1.2,0.2,1.8,0.4c0.4-0.2,0.8-0.6,1-1H197.2z M195.4,17.4v0.7h-0.5V17h3.1v-0.7
			h0.7c0,0.1-0.1,0.1-0.2,0.1V17h3.2v1.2h-0.5v-0.8L195.4,17.4 M196.3,20l-0.5-0.2c0.2-0.3,0.5-0.6,0.8-1h-2v-0.5h2.4l0.6-0.8
			l0.6,0.2c0,0-0.1,0.1-0.2,0.1c-0.1,0.2-0.2,0.3-0.4,0.5h4.3v0.5h-1.7c-0.2,0.5-0.6,0.9-1,1.1c0.7,0.2,1.5,0.4,2.2,0.7l-0.3,0.4
			c-0.6-0.2-1.5-0.5-2.4-0.8c-1.2,0.5-2.4,0.7-3.7,0.7c0-0.2-0.1-0.3-0.2-0.4c1,0,2-0.2,3-0.5c-0.5-0.1-1-0.2-1.4-0.3L196.3,20
			 M201.9,21.8h-3c0.9,0.7,2,1.3,3.1,1.5c-0.1,0.1-0.3,0.3-0.4,0.5c-1.2-0.3-2.3-1-3.2-1.9v2h-0.6V22c-0.9,0.8-2,1.5-3.2,1.8
			c-0.1-0.2-0.2-0.3-0.4-0.4c1.1-0.3,2.2-0.8,3.1-1.5h-3v-0.5h3.4v-0.8l0.7,0.1c0,0.1,0,0.1-0.2,0.1v0.6h3.5L201.9,21.8"/>
		<path class="st7" d="M209.8,17.7v5.4c0,0.4-0.1,0.6-0.4,0.7c-0.5,0.1-1,0.1-1.5,0.1c0-0.2-0.1-0.4-0.2-0.6h0.8
			c0.7,0,0.7,0,0.7-0.2v-4.9h-2.6c0,0.3-0.1,0.7-0.1,1c0.9,0.7,1.7,1.5,2.4,2.4l-0.4,0.3c-0.7-0.8-1.4-1.5-2.1-2.2
			c-0.4,1-1.1,1.8-2.1,2.3c-0.1-0.2-0.2-0.3-0.4-0.4c1.4-0.6,2.2-2,2.2-3.5h-2.4V24h-0.6v-6.2h3v-1.4h0.7c0,0.1,0,0.1-0.2,0.1v1.3
			L209.8,17.7L209.8,17.7z"/>
		<path class="st7" d="M214.4,17.6c0.3,0.5,0.5,1,0.6,1.6l-0.5,0.2c-0.1-0.6-0.3-1.1-0.6-1.6L214.4,17.6z M212.8,17.8
			c0.3,0.4,0.6,0.9,0.8,1.5l-0.4,0.2c-0.2-0.5-0.4-1-0.8-1.5L212.8,17.8 M212.7,19.6c0.7,0.3,1.3,0.6,1.9,0.9
			c0.7-0.8,1.3-1.7,1.7-2.7l0.6,0.2c0,0.1-0.1,0.1-0.2,0.1c-0.4,1-1,1.9-1.7,2.6c0.7,0.4,1.3,0.8,1.8,1.3l-0.3,0.4
			c-0.6-0.5-1.2-0.9-1.9-1.3c-0.7,0.6-1.4,1.2-2.2,1.6c-0.1-0.1-0.2-0.3-0.3-0.4c0.8-0.4,1.5-0.8,2.1-1.4c-0.6-0.3-1.2-0.7-1.9-0.9
			L212.7,19.6 M211.7,23h5.8v-5.8h-5.8V23z M211.2,16.7h6.9V24h-0.6v-0.4h-5.8V24h-0.5L211.2,16.7"/>
		<path class="st7" d="M221.5,16.3V24H219l0,0c1.1-1,1.7-2.3,1.6-3.8c0-1.5-0.6-2.9-1.6-3.9l0,0L221.5,16.3z"/>
		<line class="st8" x1="87.2" y1="16.6" x2="167.4" y2="41.9"/>
		<line class="st9" x1="129" y1="30.5" x2="16.7" y2="30.5"/>
		<line class="st9" x1="104.4" y1="62.4" x2="7.1" y2="62.4"/>
		<line class="st9" x1="103.6" y1="86" x2="7.5" y2="86"/>
		<line class="st9" x1="117.8" y1="144.4" x2="7.1" y2="144.4"/>
		<line class="st10" x1="119.5" y1="97.8" x2="104.5" y2="97.8"/>
		<line class="st10" x1="119.5" y1="126.1" x2="84.8" y2="126.1"/>
		<line class="st10" x1="119.5" y1="135.1" x2="104.5" y2="135.1"/>
		<line class="st9" x1="91.6" y1="157.8" x2="7.5" y2="157.8"/>
		<path class="st0" d="M126.3,28.1c-1.1-2-0.2-3.5,2-3.5h6.8c2.2,0,3.2,1.6,2,3.5l-3.4,5.8c-1.1,2-3,2-4.1,0L126.3,28.1z"/>
		<path class="st0" d="M126.3,28.1c-1.1-2-0.2-3.5,2-3.5h6.8c2.2,0,3.2,1.6,2,3.5l-3.4,5.8c-1.1,2-3,2-4.1,0L126.3,28.1z"/>
		<path class="st6" d="M126.3,28.1c-1.1-2-0.2-3.5,2-3.5h6.8c2.2,0,3.2,1.6,2,3.5l-3.4,5.8c-1.1,2-3,2-4.1,0L126.3,28.1z"/>
		<path class="st11" d="M126.3,28.1c-1.1-2-0.2-3.5,2-3.5h6.8c2.2,0,3.2,1.6,2,3.5l-3.4,5.8c-1.1,2-3,2-4.1,0L126.3,28.1z"/>
		<path class="st11" d="M126.3,28.1c-1.1-2-0.2-3.5,2-3.5h6.8c2.2,0,3.2,1.6,2,3.5l-3.4,5.8c-1.1,2-3,2-4.1,0L126.3,28.1z"/>
		<path class="st12" d="M126.3,28.1c-1.1-2-0.2-3.5,2-3.5h6.8c2.2,0,3.2,1.6,2,3.5l-3.4,5.8c-1.1,2-3,2-4.1,0L126.3,28.1z"/>
		<path class="st12" d="M126.3,28.1c-1.1-2-0.2-3.5,2-3.5h6.8c2.2,0,3.2,1.6,2,3.5l-3.4,5.8c-1.1,2-3,2-4.1,0L126.3,28.1z"/>
		<path class="st7" d="M130.1,30v0.5h-2.4c0-0.8,0.3-1,1.2-1.7c0.5-0.4,0.6-0.5,0.6-0.8s-0.3-0.5-0.6-0.5c-0.5,0-0.6,0.4-0.7,0.8
			h-0.6c0-0.7,0.5-1.2,1.1-1.3h0.1c0.5-0.1,1,0.3,1.1,0.9V28c0,0.5-0.2,0.8-0.8,1.2c-0.3,0.2-0.6,0.5-0.9,0.8H130.1z"/>
		<path class="st7" d="M132.6,27v0.5h-1.4l-0.1,0.9c0.2-0.2,0.4-0.2,0.6-0.2c0.6,0,1,0.4,1,1c0,0.1,0,0.1,0,0.2
			c0.1,0.6-0.4,1.2-1,1.2h-0.1c-0.6,0.1-1.1-0.4-1.2-1c0,0,0,0,0-0.1h0.6c0,0.3,0.3,0.5,0.6,0.5s0.6-0.2,0.6-0.6v-0.1
			c0-0.3-0.2-0.6-0.5-0.6h-0.1c-0.2,0-0.4,0.1-0.6,0.2h-0.6l0.3-1.9H132.6z"/>
		<path class="st7" d="M134.6,29.2v-1.5l-0.9,1.5H134.6z M135.1,29.2h0.5v0.5h-0.5v0.8h-0.5v-0.8h-1.4v-0.5l1.4-2.2h0.5V29.2"/>
		<polyline class="st13" points="59,16.5 59,163.4 134.9,163.9 		"/>
		<polyline class="st14" points="59,16.5 59,163.4 134.9,163.9 		"/>
		<line class="st13" x1="66.4" y1="163.9" x2="66.4" y2="190.5"/>
		<line class="st15" x1="66.4" y1="164.8" x2="66.4" y2="190.5"/>
		<rect x="61.2" y="161.6" class="st0" width="13.6" height="5.6"/>
		<rect x="56.4" y="114.8" class="st0" width="5.6" height="7.4"/>
		<rect x="56.4" y="64.5" class="st0" width="5.6" height="7.4"/>
		<path class="st7" d="M74.8,161.4H60.9v6h13.9V161.4z M74.5,167H61.3v-5.3h13.2V167z"/>
		<path class="st7" d="M62.1,114.6h-6v7.8h6V114.6z M61.7,122h-5.2v-7h5.2V122z"/>
		<path class="st7" d="M62.1,64.3h-6V72h6V64.3z M61.7,71.6h-5.2v-7h5.2V71.6z"/>
		<path class="st7" d="M121.2,182.3c0-0.2-0.1-0.5-0.1-0.7l0.2-0.1c0.1,0.2,0.1,0.5,0.1,0.7C121.4,182.3,121.3,182.3,121.2,182.3
			 M120.7,182.5c0-0.3,0-0.6-0.1-0.9h0.2c0.1,0.5,0.1,0.7,0.1,0.9C120.9,182.5,120.8,182.5,120.7,182.5 M120.1,182.7
			c0-0.2,0-0.3,0-0.5s0-0.4,0-0.5h0.2c0,0.3,0.1,0.7,0.1,1C120.3,182.7,120.2,182.7,120.1,182.7 M121.4,179.3H120v0.5h1.5
			L121.4,179.3z M121.4,178.5H120v0.4h1.5L121.4,178.5z M120,180.7v0.4h2.1c-0.1,2.1-0.3,2.1-1.1,2.1l0,0c0-0.1-0.1-0.3-0.1-0.4
			c0.1,0,0.3,0.1,0.4,0.1c0.2,0,0.3-0.1,0.3-0.3c0.1-0.4,0.2-0.8,0.2-1.2h-2.1v-3.1h0.8c0.1-0.2,0.2-0.4,0.2-0.6h0.3
			c0.1,0,0.1,0,0.1,0.1s-0.1,0.1-0.2,0.1c-0.1,0.2-0.1,0.3-0.2,0.4h1v1.8H120v0.4h2.2v0.3L120,180.7 M119.9,181.8
			c-0.1,0.4-0.1,0.7-0.3,1.1c-0.1,0-0.2-0.1-0.3-0.1c0.2-0.4,0.3-0.8,0.3-1.2L119.9,181.8C119.9,181.7,120,181.7,119.9,181.8
			C120,181.9,119.9,181.8,119.9,181.8 M118.2,181.8h-0.6v0.6h0.6V181.8z M118.2,180.9h-0.6v0.6h0.6V180.9z M118.2,180h-0.6v0.6h0.6
			V180z M118.5,180v0.6h0.7v0.3h-0.7v0.6h0.7v0.3h-0.7v0.6h0.8v0.3h-1.7v0.4h-0.3v-2.7c-0.1,0.2-0.3,0.3-0.4,0.5
			c-0.1-0.1-0.2-0.2-0.2-0.2c0.6-0.5,1.1-1.2,1.3-2.1h-0.7v0.7H117v-1h1.1c0-0.2,0-0.4,0-0.6h0.3c0.1,0,0.1,0,0.1,0.1
			s-0.1,0.1-0.2,0.1c0,0.2,0,0.3,0,0.4h1.1v1H119v-0.7h-0.9c-0.1,0.4-0.2,0.8-0.4,1.1h0.5c0.1-0.2,0.2-0.4,0.3-0.7l0.3,0.1
			c0.1,0,0.1,0,0.1,0.1s0,0.1-0.2,0.1c-0.1,0.2-0.1,0.3-0.2,0.4h0.8v0.3L118.5,180"/>
		<path class="st7" d="M125.4,180.2c0,0.7-0.2,1.3-0.6,1.9c-0.3,0.4-0.7,0.8-1.1,1c-0.1-0.1-0.1-0.2-0.2-0.2c1-0.5,1.7-1.5,1.6-2.6
			h-1.3c-0.3,0.4-0.6,0.8-0.9,1.2c-0.1-0.1-0.2-0.1-0.2-0.2c0.7-0.7,1.3-1.6,1.6-2.5l0.3,0.1c0.1,0,0.1,0,0.1,0.1s0,0.1-0.1,0.1
			c-0.1,0.3-0.3,0.7-0.4,1h2.7v0.3L125.4,180.2z"/>
		<path class="st7" d="M131.3,179.3h-3v0.5h3V179.3z M131.3,178.5h-3v0.5h3V178.5z M128.3,180.7v0.4h4c0,0.6-0.1,1.2-0.3,1.8
			c-0.2,0.2-0.5,0.2-0.9,0.2c0-0.1-0.1-0.3-0.1-0.4c0.1,0,0.3,0.1,0.4,0.1c0.2,0,0.3,0,0.4-0.2c0.1-0.4,0.2-0.8,0.2-1.2h-2.5
			c0,0.1-0.1,0.1-0.2,0.1v0.7h1.2v-0.7h0.3c0.1,0,0.2,0,0.2,0.1s-0.1,0.1-0.2,0.1v0.8h-3.1v0.4h-0.3v-1.4h0.3c0.1,0,0.2,0,0.2,0.1
			s-0.1,0.1-0.2,0.1v0.5h1.2v-0.9h-1v-3.2h1.1c0.1-0.2,0.2-0.4,0.3-0.6l0.4,0.1c0,0,0.1,0,0.1,0.1s-0.1,0.1-0.2,0.1
			c-0.1,0.1-0.1,0.3-0.2,0.4h2.2v1.8h-3.3v0.4h4.3v0.2L128.3,180.7"/>
		<rect x="133.5" y="178" class="st7" width="0.4" height="4.7"/>
		<path class="st7" d="M138.2,179.6c0-0.7-0.5-1.4-1.3-1.4h-0.1c-1.1,0-1.6,1-1.6,2.2c0,1.8,1.1,2.1,1.6,2.1c0.8,0,1.4-0.6,1.5-1.4
			c0,0,0,0,0-0.1h0.4c0,1-0.8,1.8-1.8,1.8c0,0,0,0-0.1,0c-1.6,0-2-1.5-2-2.4c0-1.3,0.6-2.6,2-2.6c0.7,0,1.3,0.4,1.6,1
			c0.1,0.3,0.2,0.5,0.2,0.8L138.2,179.6z"/>
		<line class="st16" x1="103.2" y1="16.8" x2="103.2" y2="207.6"/>
		<path class="st0" d="M98.7,108.1c-1.1-2-0.2-3.5,2-3.5h6.8c2.2,0,3.2,1.6,2,3.5l-3.3,5.9c-1.1,1.9-3,1.9-4.1,0L98.7,108.1z"/>
		<path class="st0" d="M98.7,108.1c-1.1-2-0.2-3.5,2-3.5h6.8c2.2,0,3.2,1.6,2,3.5l-3.3,5.9c-1.1,1.9-3,1.9-4.1,0L98.7,108.1z"/>
		<path class="st6" d="M98.7,108.1c-1.1-2-0.2-3.5,2-3.5h6.8c2.2,0,3.2,1.6,2,3.5l-3.3,5.9c-1.1,1.9-3,1.9-4.1,0L98.7,108.1z"/>
		<path class="st6" d="M98.7,108.1c-1.1-2-0.2-3.5,2-3.5h6.8c2.2,0,3.2,1.6,2,3.5l-3.3,5.9c-1.1,1.9-3,1.9-4.1,0L98.7,108.1z"/>
		<path class="st11" d="M98.7,108.1c-1.1-2-0.2-3.5,2-3.5h6.8c2.2,0,3.2,1.6,2,3.5l-3.3,5.9c-1.1,1.9-3,1.9-4.1,0L98.7,108.1z"/>
		<path class="st11" d="M98.7,108.1c-1.1-2-0.2-3.5,2-3.5h6.8c2.2,0,3.2,1.6,2,3.5l-3.3,5.9c-1.1,1.9-3,1.9-4.1,0L98.7,108.1z"/>
		<path class="st12" d="M98.7,108.1c-1.1-2-0.2-3.5,2-3.5h6.8c2.2,0,3.2,1.6,2,3.5l-3.3,5.9c-1.1,1.9-3,1.9-4.1,0L98.7,108.1z"/>
		<path class="st12" d="M98.7,108.1c-1.1-2-0.2-3.5,2-3.5h6.8c2.2,0,3.2,1.6,2,3.5l-3.3,5.9c-1.1,1.9-3,1.9-4.1,0L98.7,108.1z"/>
		<path class="st7" d="M101.5,109.2v-1.4l-0.9,1.4H101.5z M102.1,109.2h0.5v0.5h-0.5v0.8h-0.5v-0.8h-1.4v-0.5l1.4-2.2h0.5V109.2"/>
		<path class="st7" d="M103.4,108.8c0,0.2,0,1.3,0.6,1.3s0.6-1.1,0.6-1.3s0-1.3-0.6-1.3S103.4,108.6,103.4,108.8 M105.3,108.8
			c0,0.6-0.1,1.8-1.2,1.8s-1.2-1.2-1.2-1.8s0.1-1.8,1.2-1.8S105.3,108.2,105.3,108.8"/>
		<path class="st7" d="M108,107v0.5c-0.3,0.4-0.6,0.8-0.8,1.3c-0.2,0.5-0.3,1.1-0.3,1.7h-0.6c0-1.1,0.4-2.1,1.1-3h-1.8V107H108z"/>
		<line class="st17" x1="36" y1="16.5" x2="36" y2="168.6"/>
		<line class="st17" x1="220.2" y1="144.5" x2="118.1" y2="213.7"/>
		<path class="st0" d="M210.7,153.9c0,2.2-1.8,4-4,4s-4-1.8-4-4s1.8-4,4-4S210.7,151.7,210.7,153.9"/>
		<path class="st18" d="M210.7,153.9c0,2.2-1.8,4-4,4s-4-1.8-4-4s1.8-4,4-4S210.7,151.7,210.7,153.9z"/>
		<path class="st19" d="M210.7,153.9c0,2.2-1.8,4-4,4s-4-1.8-4-4s1.8-4,4-4S210.7,151.7,210.7,153.9z"/>
		<path class="st7" d="M201.9,167.7c0.1,0.7,0.3,1.4,0.7,1.9c0.4-0.6,0.6-1.2,0.7-1.9H201.9z M203.9,171c-0.5-0.2-0.9-0.6-1.3-0.9
			c-0.4,0.4-0.9,0.8-1.4,1c-0.1-0.1-0.1-0.2-0.2-0.3c0.5-0.2,1-0.6,1.4-1c-0.5-0.6-0.7-1.4-0.8-2.2h-0.2c0,1.3-0.5,2.5-1.3,3.4
			c-0.1-0.1-0.2-0.2-0.2-0.2c1-1,1.4-2.5,1.3-3.9v-1.2h3.1v0.3h-2.8v1.2h2.1l0.2,0.1c0,0.8-0.3,1.7-0.8,2.4c0.4,0.4,0.8,0.7,1.3,0.9
			C204,170.8,203.9,170.9,203.9,171 M199.8,167.4v2.1l0.8-0.3c0,0.1,0,0.2,0,0.3c-0.5,0.2-1.1,0.4-1.7,0.6c0,0.1,0,0.1-0.1,0.1
			s-0.1-0.1-0.1-0.1l-0.1-0.3c0.1,0,0.4-0.1,0.8-0.2v-2.2h-0.8v-0.3h0.8v-1.5h0.3c0.1,0,0.1,0,0.1,0.1s-0.1,0.1-0.1,0.1v1.3h0.9v0.3
			L199.8,167.4"/>
		<path class="st7" d="M209,167.3h-3.2c0,0.2,0,1.1,0,1.2h3.2V167.3z M204.8,165.9h4.9v0.3h-4.9V165.9z M209,169.2v-0.3h-3.3
			c0,0.8-0.3,1.6-0.8,2.3c-0.1-0.1-0.2-0.2-0.3-0.2c0.6-0.8,0.8-1.8,0.8-2.7V167h3.9v2.2H209"/>
		<rect x="210.8" y="165.9" class="st7" width="0.4" height="4.7"/>
		<path class="st7" d="M215.6,167.5c0-0.7-0.5-1.4-1.3-1.4h-0.1c-1.1,0-1.6,1-1.6,2.2c0,1.8,1.1,2.1,1.6,2.1c0.8,0,1.4-0.6,1.5-1.4
			v-0.1h0.4c0,1-0.8,1.8-1.8,1.8c0,0,0,0-0.1,0c-1.6,0-2-1.5-2-2.4c0-1.3,0.6-2.6,2-2.6c0.7,0,1.3,0.4,1.6,1
			c0.1,0.3,0.2,0.5,0.2,0.8L215.6,167.5z"/>
		<line class="st20" x1="206.7" y1="158.2" x2="206.4" y2="165.2"/>
		<rect x="32.8" y="147.8" class="st0" width="7" height="4.5"/>
		<rect x="32.8" y="147.8" class="st21" width="7" height="4.5"/>
		<rect x="32.8" y="147.8" class="st22" width="7" height="4.5"/>
		<path class="st7" d="M7.5,127.5c0.1,0.7,0.3,1.4,0.7,1.9c0.4-0.6,0.6-1.2,0.7-1.9C8.9,127.5,7.5,127.5,7.5,127.5z M9.5,130.9
			c-0.5-0.2-0.9-0.6-1.3-0.9c-0.4,0.4-0.9,0.8-1.4,1c-0.1-0.1-0.1-0.2-0.2-0.3c0.5-0.2,1-0.6,1.4-1c-0.5-0.6-0.7-1.4-0.8-2.2H7
			c0,1.3-0.5,2.5-1.3,3.5c-0.1-0.1-0.1-0.2-0.2-0.2c1-1,1.4-2.5,1.2-3.9v-1.2h3.1v0.3H7v1.2h2.1l0.2,0.1c0,0.8-0.3,1.7-0.8,2.3
			c0.4,0.4,0.8,0.7,1.3,0.9C9.7,130.7,9.6,130.8,9.5,130.9 M5.4,127.3v2.1l0.8-0.3c0,0.1,0,0.2,0,0.3c-0.5,0.2-1.1,0.5-1.7,0.6
			c0,0.1,0,0.1-0.1,0.1S4.3,130,4.3,130v-0.3c0.2,0,0.4-0.1,0.8-0.2v-2.2H4.3V127h0.8v-1.5h0.3c0.1,0,0.1,0,0.1,0.1
			s-0.1,0.1-0.1,0.1v1.3h0.9v0.3H5.4"/>
		<path class="st7" d="M14.6,127.2h-3.2c0,0.2,0,1.1,0,1.3h3.2V127.2z M10.5,125.7h4.9v0.3h-4.9V125.7z M14.6,129v-0.3h-3.3
			c0,0.8-0.3,1.6-0.8,2.3c-0.1-0.1-0.2-0.2-0.3-0.2C10.8,130,11,129,11,128v-1.2h4v2.2H14.6"/>
		<path class="st7" d="M19.3,126.1h-0.8v1.1h0.8V126.1z M21,127.4h-1.4v1.2c0,0.3,0,0.3,0.5,0.3c0.2,0,0.4,0,0.5-0.7
			c0.1,0.1,0.2,0.1,0.3,0.2c-0.2,0.8-0.4,0.8-0.7,0.8h-0.3c-0.4,0-0.5-0.1-0.5-0.5v-1.3h-0.8c0.1,0.8-0.3,1.6-1,2.1
			c-0.1-0.1-0.2-0.2-0.3-0.2c0.7-0.4,1.1-1.1,1-1.9H17v2.7h4V127.4 M19.6,126.1v1.1h1.7v3.8H21v-0.5h-4.1v0.5h-0.3v-3.8h1.6v-1.1
			h-1.9v-0.3h5.4v0.3H19.6"/>
		<path class="st7" d="M9.1,137.7c-0.5-0.8-1.2-1.5-2-2c-0.7,0.9-1.6,1.7-2.7,2.1c0-0.1-0.1-0.2-0.2-0.3c1.8-0.7,3.1-2.2,3.6-4h-3
			v-0.3h3c0.1,0,0.3,0,0.4,0l0.2,0.2c-0.1,0.1-0.2,0.2-0.2,0.4c-0.2,0.6-0.5,1.2-0.8,1.7c0.8,0.5,1.5,1.2,2.1,2
			C9.3,137.5,9.2,137.6,9.1,137.7"/>
		<path class="st7" d="M14.6,134c-0.6,0.8-1.3,1.6-2.2,2.2c0.3,0.3,0.6,0.7,0.9,1.1c-0.1,0.1-0.2,0.1-0.3,0.3
			c-0.2-0.4-0.5-0.8-0.8-1.1c-0.4-0.5-0.9-0.9-1.4-1.3L11,135c0.4,0.3,0.8,0.7,1.2,1.1c0.8-0.6,1.4-1.3,2-2.1H10v-0.3h4.4
			c0.1,0,0.2,0,0.3-0.1l0.2,0.3C14.9,133.8,14.8,133.9,14.6,134"/>
		<rect x="15.6" y="135.2" class="st7" width="5" height="0.3"/>
		<path class="st7" d="M24.4,136.2c-0.7-0.7-1.5-1.2-2.3-1.6l0.2-0.2c0.9,0.4,1.7,1,2.4,1.6C24.6,136,24.5,136.1,24.4,136.2
			 M22.1,133v4.9h-0.3v-5.1h0.4c0.1,0,0.1,0,0.1,0.1C22.2,132.9,22.1,132.9,22.1,133"/>
		<rect x="25.5" y="132.9" class="st7" width="0.4" height="4.7"/>
		<path class="st7" d="M30.3,134.5c0-0.7-0.6-1.4-1.3-1.4h-0.1c-1.1,0-1.6,1-1.6,2.2c0,1.8,1.1,2.1,1.6,2.1c0.8,0,1.5-0.6,1.5-1.4
			l0,0h0.4c0,1-0.8,1.8-1.8,1.8c0,0,0,0-0.1,0c-1.6,0-2-1.5-2-2.4c0-1.3,0.6-2.5,2-2.5c0.7,0,1.3,0.4,1.6,1c0.1,0.3,0.2,0.5,0.2,0.8
			L30.3,134.5z"/>
		<line class="st20" x1="35.6" y1="148.7" x2="23.1" y2="139"/>
		<path class="st0" d="M41.3,30.3c0,3.3-2.7,6-6,6s-6-2.7-6-6s2.7-6,6-6S41.3,27,41.3,30.3"/>
		<path class="st23" d="M41.3,30.3c0,3.3-2.7,6-6,6s-6-2.7-6-6s2.7-6,6-6S41.3,27,41.3,30.3z"/>
		<path class="st24" d="M41.3,30.3c0,3.3-2.7,6-6,6s-6-2.7-6-6s2.7-6,6-6S41.3,27,41.3,30.3z"/>
		<path class="st7" d="M9.5,22.8H11v-0.6H9.5V22.8z M9.5,21.9H11v-0.6H9.5V21.9z M9.2,22.2H7.8v0.6h1.5L9.2,22.2z M9.2,21.3H7.8v0.6
			h1.5L9.2,21.3z M9.5,25H9.2v-1.8c-0.6,0.7-1.4,1.3-2.3,1.7c-0.1-0.1-0.2-0.2-0.2-0.3C7.6,24.2,8.4,23.7,9,23H7.4v-2h1.8v-0.5H6.7
			v-0.3h2.6v-0.8h0.3c0.1,0,0.2,0,0.2,0.1s-0.1,0.1-0.2,0.1v0.5h2.6v0.3H9.5V21h1.8v2H9.8c0.7,0.6,1.5,1.1,2.4,1.5
			c-0.1,0.1-0.2,0.2-0.2,0.3c-0.9-0.4-1.7-1-2.4-1.7L9.5,25"/>
		<path class="st7" d="M17.9,22.2c-0.6-0.6-1-1.4-1.1-2.2h-0.6v-0.3h0.9c0,0.9,0.4,1.7,1.1,2.3C18.1,22.1,18,22.1,17.9,22.2
			 M15.8,20.2c-0.1,0.7-0.4,1.4-0.9,2c-0.1-0.1-0.2-0.1-0.3-0.2c0.5-0.6,0.8-1.3,0.9-2.1l0.3,0.1c0.1,0,0.1,0,0.1,0.1
			S15.8,20.2,15.8,20.2 M17.7,24.8c-0.1-0.3-0.1-0.4-0.2-0.7c-0.9,0.2-1.7,0.4-2.6,0.5c0,0.1-0.1,0.1-0.1,0.1l-0.1-0.1l-0.1-0.3
			c0.2,0,0.4,0,0.6-0.1c0.4-0.9,0.7-1.9,0.9-2.9l0.4,0.1c0.1,0,0.1,0,0.1,0.1c0,0-0.1,0.1-0.2,0.1c-0.2,0.9-0.5,1.7-0.8,2.5
			c0.7-0.1,1.3-0.2,1.9-0.4c-0.2-0.4-0.4-0.9-0.6-1.3l0.3-0.1c0.4,0.7,0.7,1.5,1,2.2L17.7,24.8 M14.7,23c-0.3-0.4-0.5-0.9-0.7-1.4
			V25h-0.3v-3.3c-0.2,0.8-0.5,1.6-1,2.2c-0.1-0.1-0.2-0.2-0.3-0.2c0.6-0.8,1-1.6,1.3-2.6h-1v-0.3h1.1v-1.3h0.3c0.1,0,0.1,0,0.1,0.1
			s0,0.1-0.2,0.1v1.1h1v0.3h-1v0.2c0.2,0.6,0.6,1.1,1,1.5C14.9,22.8,14.8,22.9,14.7,23"/>
		<path class="st7" d="M23.7,20.8V25h-0.3v-0.7h-4.1V25H19v-4.3h0.3c0,0,0.2,0,0.2,0.1s-0.1,0.1-0.2,0.1V24h1.8v-4.5h0.3
			c0,0,0.2,0,0.2,0.1s-0.1,0.1-0.2,0.1V24h1.9v-3.3h0.3C23.6,20.7,23.7,20.7,23.7,20.8C23.8,20.8,23.7,20.8,23.7,20.8"/>
		<rect x="24.9" y="19.8" class="st7" width="0.4" height="4.7"/>
		<path class="st7" d="M29.6,21.4c0-0.7-0.5-1.4-1.3-1.4h-0.1c-1.1,0-1.7,1-1.7,2.2c0,1.8,1.1,2.1,1.6,2.1c0.8,0,1.4-0.6,1.5-1.4
			c0,0,0,0,0-0.1H30c0,1-0.8,1.8-1.8,1.8c0,0,0,0-0.1,0c-1.6,0-2-1.5-2-2.4c0-1.3,0.6-2.5,2-2.5c0.7,0,1.3,0.3,1.6,0.9
			c0.1,0.3,0.2,0.5,0.2,0.8H29.6z"/>
		<line class="st17" x1="36.3" y1="168.6" x2="165.1" y2="207.6"/>
		<path class="st0" d="M109.1,189c0,3.3-2.7,6-6,6s-6-2.7-6-6s2.7-6,6-6S109.1,185.6,109.1,189"/>
		<path class="st23" d="M109.1,189c0,3.3-2.7,6-6,6s-6-2.7-6-6s2.7-6,6-6S109.1,185.6,109.1,189z"/>
		<path class="st24" d="M109.1,189c0,3.3-2.7,6-6,6s-6-2.7-6-6s2.7-6,6-6S109.1,185.6,109.1,189z"/>
		<line class="st20" x1="116" y1="181.7" x2="109.5" y2="186"/>
		<path class="st25" d="M40.7,79.3c0,2.7-2.2,4.8-4.8,4.8c-2.7,0-4.8-2.2-4.8-4.8s2.2-4.8,4.8-4.8C38.5,74.4,40.7,76.6,40.7,79.3
			C40.7,79.2,40.7,79.2,40.7,79.3"/>
		<path class="st26" d="M29,46.3c1.3,0,1.3,0.8,2.6,0.8s1.3-0.8,2.6-0.8s1.3,0.8,2.6,0.8s1.3-0.8,2.6-0.8s1.3,0.8,2.6,0.8"/>
		<path class="st26" d="M29,44.5c1.3,0,1.3,0.8,2.6,0.8s1.3-0.8,2.6-0.8s1.3,0.8,2.6,0.8s1.3-0.8,2.6-0.8s1.3,0.8,2.6,0.8"/>
		<path class="st27" d="M29,46.3c1.3,0,1.3,0.8,2.6,0.8s1.3-0.8,2.6-0.8s1.3,0.8,2.6,0.8s1.3-0.8,2.6-0.8s1.3,0.8,2.6,0.8"/>
		<path class="st27" d="M29,44.5c1.3,0,1.3,0.8,2.6,0.8s1.3-0.8,2.6-0.8s1.3,0.8,2.6,0.8s1.3-0.8,2.6-0.8s1.3,0.8,2.6,0.8"/>
		<path class="st26" d="M51.8,46.3c1.3,0,1.3,0.8,2.6,0.8s1.3-0.8,2.6-0.8s1.3,0.8,2.6,0.8s1.3-0.8,2.6-0.8s1.3,0.8,2.6,0.8"/>
		<path class="st26" d="M51.8,44.5c1.3,0,1.3,0.8,2.6,0.8s1.3-0.8,2.6-0.8s1.3,0.8,2.6,0.8s1.3-0.8,2.6-0.8s1.3,0.8,2.6,0.8"/>
		<path class="st27" d="M51.8,46.3c1.3,0,1.3,0.8,2.6,0.8s1.3-0.8,2.6-0.8s1.3,0.8,2.6,0.8s1.3-0.8,2.6-0.8s1.3,0.8,2.6,0.8"/>
		<path class="st27" d="M51.8,44.5c1.3,0,1.3,0.8,2.6,0.8s1.3-0.8,2.6-0.8s1.3,0.8,2.6,0.8s1.3-0.8,2.6-0.8s1.3,0.8,2.6,0.8"/>
		<path class="st26" d="M96.5,46.3c1.3,0,1.3,0.8,2.6,0.8s1.3-0.8,2.6-0.8s1.3,0.8,2.6,0.8s1.3-0.8,2.6-0.8s1.3,0.8,2.6,0.8"/>
		<path class="st26" d="M96.5,44.5c1.3,0,1.3,0.8,2.6,0.8s1.3-0.8,2.6-0.8s1.3,0.8,2.6,0.8s1.3-0.8,2.6-0.8s1.3,0.8,2.6,0.8"/>
		<path class="st27" d="M96.5,46.3c1.3,0,1.3,0.8,2.6,0.8s1.3-0.8,2.6-0.8s1.3,0.8,2.6,0.8s1.3-0.8,2.6-0.8s1.3,0.8,2.6,0.8"/>
		<path class="st27" d="M96.5,44.5c1.3,0,1.3,0.8,2.6,0.8s1.3-0.8,2.6-0.8s1.3,0.8,2.6,0.8s1.3-0.8,2.6-0.8s1.3,0.8,2.6,0.8"/>
		<g>
			<g>
				<defs>
					<path id="SVGID_5_" d="M123.5,75.2l-8.3,2.6l7.5,3.9c-0.2,2-0.2,4.2-0.2,6.3c0,34,22,61.5,49.2,61.5S220.9,122,220.9,88
						s-22-61.5-49.2-61.5C148,26.5,128.2,47.3,123.5,75.2"/>
				</defs>
				<clipPath id="SVGID_6_">
					<use xlink:href="#SVGID_5_"  style="overflow:visible;"/>
				</clipPath>
				<g class="st28">
					<path class="st29" d="M171.7,26.7c-23.7,0-43.4,20.9-48.2,48.6l-8.3,2.6l7.5,3.9c-0.2,2.1-0.3,4.1-0.2,6.3
						c0,34,22,61.5,49.2,61.5s49.2-27.5,49.2-61.5S198.9,26.7,171.7,26.7"/>
					<path class="st30" d="M171.7,26.7c-23.7,0-43.4,20.9-48.2,48.6l-8.3,2.6l7.5,3.9c-0.2,2.1-0.3,4.1-0.2,6.3
						c0,34,22,61.5,49.2,61.5s49.2-27.5,49.2-61.5S198.9,26.7,171.7,26.7"/>
				</g>
			</g>
		</g>
		<g>
			<g>
				<defs>
					<path id="SVGID_7_" d="M123.5,75.2l-8.3,2.6l7.5,3.9c-0.2,2-0.2,4.2-0.2,6.3c0,29.8,16.9,54.6,39.4,60.2
						c3.2,0.8,6.4,1.2,9.6,1.2c27.2,0,49.2-27.5,49.2-61.5c0-29.8-17-54.7-39.6-60.3c-3.1-0.8-6.3-1.1-9.5-1.1
						C148,26.5,128.2,47.4,123.5,75.2"/>
				</defs>
				<clipPath id="SVGID_8_">
					<use xlink:href="#SVGID_7_"  style="overflow:visible;"/>
				</clipPath>
				<g class="st31">
					<g class="st2">
						<g>
							<g>
								<defs>
									<rect id="SVGID_9_" x="101" y="73.1" width="153" height="74"/>
								</defs>
								<clipPath id="SVGID_10_">
									<use xlink:href="#SVGID_9_"  style="overflow:visible;"/>
								</clipPath>
								<g class="st32">
									<path class="st0" d="M121.7,141l9.9,0.8l8.4,0.6l9.6-0.8l5-1.1l9.3-1.4h10.8l5.2-0.6l6.7-3.9l3.5-4.8l3.5-5.9l2.6-4.8
										l1.8-5l3.2-5.3l1.7-5.7c0,0,1.4-2.2,3.5-2.2c1.9,0.3,3.8,0,5.5-0.8c2.9-1.4,8.7-7.6,10.8-7.3s3.2,0.8,4.7,0.8
										s12.8-8.7,12.8-8.7l13.4-11.8l0.3,3.6c0,0-11.1,10.7-14.9,12.6s-13.4,5.9-16.3,7.3s-9.9,6.4-9.9,6.4s-3.8-2-5.5,0
										s-5.8,7-6.7,9.5s-2.9,8.7-2.3,9.2c0.7,0.9,1.3,1.8,1.8,2.8c0,0-10.8,12.9-14.3,14.6c-3.5,1.7-2.3,3.7-10.8,3.9
										s-17.8,1.1-23.3,1.7s-22.1,1.7-24.5,1.1c-1.7-0.6-3.3-1.5-4.7-2.8c-4.3,0.1-8.6,0.5-12.8,1.1c-2.7,0.6-5.4,1.5-7.9,2.8
										l-0.9-2.8C101,144.3,116.7,140.7,121.7,141"/>
								</g>
							</g>
						</g>
					</g>
				</g>
			</g>
		</g>
		<g>
			<g>
				<defs>
					<path id="SVGID_11_" d="M123.5,75.2l-8.3,2.6l7.5,3.9c-0.2,2-0.2,4.2-0.2,6.3c0,34,22,61.5,49.2,61.5S220.9,122,220.9,88
						s-22-61.5-49.2-61.5C148,26.5,128.2,47.3,123.5,75.2"/>
				</defs>
				<clipPath id="SVGID_12_">
					<use xlink:href="#SVGID_11_"  style="overflow:visible;"/>
				</clipPath>
				<g class="st33">
					<g class="st2">
						<g>
							<g>
								<defs>
									<rect id="SVGID_13_" x="158.6" y="50.1" width="18" height="10.2"/>
								</defs>
								<clipPath id="SVGID_14_">
									<use xlink:href="#SVGID_13_"  style="overflow:visible;"/>
								</clipPath>
								<g class="st34">
									<line class="st35" x1="158.7" y1="60.2" x2="176.6" y2="50.3"/>
								</g>
							</g>
						</g>
					</g>
					<g class="st2">
						<g>
							<g>
								<defs>
									<rect id="SVGID_15_" x="165.3" y="41" width="34.4" height="29.5"/>
								</defs>
								<clipPath id="SVGID_16_">
									<use xlink:href="#SVGID_15_"  style="overflow:visible;"/>
								</clipPath>
								<g class="st36">
									<line class="st37" x1="165.6" y1="41.3" x2="199.4" y2="70.1"/>
								</g>
							</g>
						</g>
					</g>
					<path class="st7" d="M173.3,46l-4.1,16.8l0.9,1.1l7.9-1.4l7-2.2c1.8-0.4,3.5-0.8,5.2-1.4c0.3-0.3,0-0.8,0-0.8l-15.5-17.4
						L173.3,46z"/>
					<path class="st38" d="M204.4,80.1h-0.2l-12.9-21c4.1-1.1,8.2-2.5,12.2-3.7l7.2,22.8L204.4,80.1z M186,81.2l-1-20.4
						c2-0.5,3.8-1.1,5.8-1.7l12.8,21.1L186,81.2 M172.8,81.9l-1-17c1.8-0.5,3.6-1,6.2-1.6v-0.6l1.7-0.6c1.7-0.5,2.7-0.7,4.4-1.1
						l1.3,20.1L172.8,81.9 M166,82.3c1.1-5.6,2.4-11.6,3.5-16.8l1.7-0.4l1,16.9L166,82.3 M162.7,82.5l-2.8,0.2
						c-0.4-5-0.8-10.1-1.2-14.2c2.5-0.7,4.8-1.3,7.4-2C165,71.5,163.8,77.2,162.7,82.5 M161.9,86.6L160,85l-0.1-1.8l2.7-0.2
						C162.3,84.2,162.1,85.4,161.9,86.6 M148.5,127l-0.7-10.1h4.2v5h0.6v-5h6.2c0,2.3,0,5,0.1,8.1L148.5,127 M136.9,116.9h10.4
						l0.7,10.2l-10.9,2L136.9,116.9 M136.8,102.8l9.5-0.4l0.8,12.2h-10.2L136.8,102.8 M136.7,96.5l9.2-0.4l0.4,5.8l-9.5,0.4
						L136.7,96.5 M137.2,75l7.3-0.3l1.3,20.8l-9.1,0.4l-0.2-20.7L137.2,75 M144.4,72.6l0.1,1.5l-5.4,0.2
						C140.9,73.7,142.6,73.2,144.4,72.6 M143.8,53c2-1.2,5.7-3.5,8.6-5.3c1.5,4.7,2.9,9.4,3.9,14.2c0.2,1.1,0.4,2.6,0.6,4.4v-0.1
						l-12,3.7L143.8,53 M141.7,49.2c1.4-0.8,3-1.7,4.6-2.6s3.1-1.9,4.8-3c0.4,1.1,0.8,2.3,1.1,3.5c-2.8,1.8-6.6,4-8.6,5.3
						L141.7,49.2 M156.6,40c2.2-1.5,4.2-2.9,5.4-3.7c2.5-1.4,5.1-2.5,7.9-3.3l1.9,3.4l-2.5,0.8h-0.1c-0.1,0.1-11.1,6.2-14,8.1
						c-0.4,0.3-1.1,0.7-1.8,1.2c-0.4-1.2-0.8-2.4-1.2-3.5C153.7,41.9,155.2,40.9,156.6,40 M175.6,29.5c-0.6,1.6-1.3,3.7-2.1,6.3
						l-1.2,0.4l-2.5-4.6C170.6,31.3,173.1,30.3,175.6,29.5 M172.6,36.7l0.7-0.2c-0.1,0.3-0.2,0.6-0.3,0.9L172.6,36.7 M172,54.1
						c1-4.7,2.2-9,3.2-12.7l15,17.1l-9.6,2.6l-0.6-0.3l-7.9,2.2l-1.8-1.3L172,54.1 M162.8,49.4l-0.5,0.4l-7.7,0.4
						c-0.3-1.1-0.7-2.1-1-3.2l1.9-1.2c2.8-1.9,13.3-7.8,13.9-8.1l2.4-0.7v1.6l-2.6,0.3l0,0c-1.9,1-6.2,3.2-6.5,3.8
						C162.5,43.1,162.6,47.2,162.8,49.4 M157.7,61.8c-0.6-2.9-1.7-6.9-2.9-11l9.8-0.5v-0.6h-0.8l-0.4-0.8c-0.2-2-0.3-4.1-0.1-6.1
						c2-1.3,4.1-2.5,6.2-3.5l1.3-0.2l0.8,0.3l0.6,0.7l0,0c-1.1,3.8-2.3,8.3-3.4,13.3c-0.6,2.6-1.3,6.1-2.2,10.1l-1.2,1.2l-5.5,1.1
						l-1.2-0.5l-0.6-1.1C158,63.3,157.8,62.5,157.7,61.8 M145.1,74.1l-0.1-1.6c3.5-1.1,7-2.2,10.4-3.2l1.7-0.5
						c0.2,1.5,0.3,3.1,0.5,4.8L145.1,74.1 M146.4,95.5l-1.3-20.8l12.6-0.5c0.6,6.8,1.1,14.6,1.5,20.7L146.4,95.5 M159.3,101.3
						l-12.5,0.5l-0.4-5.8l12.8-0.6c0.1,1.7,0.2,3.2,0.3,4.5C159.4,100.4,159.4,100.9,159.3,101.3 M147.7,114.6l-0.8-12.2l12.4-0.5
						c-0.3,3.3-0.4,7-0.5,12.7H147.7 M160.1,86.7l1.5,1.1c-0.4,2-0.7,3.9-1.1,5.6C160.4,91.3,160.2,89,160.1,86.7 M177,35.4
						c2.1-0.6,4.3-1.1,5.8-1.4l0.4-0.1l0.1,0.4l7,23.4l-15-17C175.9,38.8,176.5,37,177,35.4 M219.7,76.2l-0.2-0.5l-8.1,2.4
						l-7.2-22.6c2.4-0.7,4.9-1.4,10.2-2.8l-0.2-0.8c-5.3,1.4-7.7,2.1-10.1,2.8L202,48l11-3.5l-0.2-0.5l-10.9,3.5l-5-16l-0.6,0.2
						l7.3,23.2c-4.1,1.2-8.2,2.3-12.4,3.5l-7.1-24L184,34c4.5-0.7,11.7-1.2,11.8-1.2V32c-0.1,0-8.5,0.6-12.9,1.4
						c-1.5,0.3-3.5,0.8-5.5,1.3c1-3.2,1.9-5.4,2.3-6.4c0.8-0.2,1.5-0.3,2.3-0.4v-0.6c-0.7,0.1-1.3,0.2-2,0.3l0,0l-3-1.1
						c0,0-0.3,0.8-0.9,2.2c-2.8,0.9-5.5,2-6.3,2.3l-4.2-7.3l0.6,1.5l3.5,6.8c-2.8,0.9-5.4,2-7.9,3.4c-1.3,0.8-3.2,2.1-5.5,3.7
						L152,42c-1.8-5.5-3.3-9.7-3.4-9.8l-1.4,0.5c0,0.1,1.6,4.5,3.5,10.2c-0.6,0.4-1.3,0.8-1.9,1.2l-2.9-7.6l-0.8,0.3l2.9,7.8
						c-0.8,0.5-1.6,1-2.3,1.4c-0.1,0.1-0.3,0.2-0.4,0.2l-3.2-8.9l-0.8,0.3l3.2,9c-1,0.6-2,1.1-2.9,1.6l-3-7.9l-0.8,0.3l3,8
						c-2,1.1-3.6,1.9-4.4,2.3L135,40.2l-0.9,0.1l1.6,11.4c-1.9,0.6-3.9,1.1-5.9,1.4l0.1,0.5c0.2,0,5-0.9,6.9-1.8l-0.1-0.1
						c0.8-0.4,2.3-1.2,4.3-2.2l2,3.2l-1,0.6l-12.8,4.2l-3.2,1.6l16.2-5.3h0.1l0.8-0.5l1,16.8l-7.3,2.2l0.4,1
						c-1.4,0.5-2.8,0.9-4.2,1.4l-0.2-5.9l-5.5-11.6l-0.6-0.4l5.4,12.1l0.2,5.1l-11.9,4.9l-3.7,2.8c-0.1,0,1.1,1.1,1,1.1l3.1-2.3
						c4.9-1.9,9.9-3.6,14.8-5.3l0.2,20.5l-2.9,0.1c-0.1,0-0.3,0-0.3,0.2v0.1c0,0.1,0.1,0.3,0.2,0.3h0.1l2.9-0.1l0.1,5.8l-3,0.1
						c-0.1,0-0.3,0.1-0.3,0.2c0,0,0,0,0,0.1c0,0.3,0.3,0.3,0.3,0.3l2.9-0.1l0.1,11.8h-1.1v2.2h1.2l0.1,12.3l-1.3,0.2v1.2l1.3-0.2
						v2.2h0.7v-2.3l21.9-4.1c0,2.9,0.1,6.2,0.1,9.9l-28.4,2.3l0.1,1.1l28.4-2.4c0.1,8.2,0.2,18.5,0.4,31.6l3.2-0.1
						c-0.1-12.8-0.3-23.2-0.4-31.8l15.3-1.4l-0.1-1.1l-15.2,1.4c-0.1-8.1-0.2-14.5-0.1-19.7h0.5l3.6,9.1l0.8-0.3l-3.4-8.8h8.4V115
						H162c0-8.1,0.3-13.1,0.9-16.9s1.7-9.4,2.9-15.4l6.3-0.3L174,114h0.6l-1.8-31.5l12.7-0.7l1.1,21.8h0.6L186,81.7l8.8-0.5l4.4,6.9
						l0.8,18.5h0.6l-0.7-17.5l6.6,10.4l0.5-0.3l-11.4-18l8.4-0.5l7.8,12.6l0.5-0.3l-7.6-12.4l6.4-1.9l3.2,10.3l0.6-0.2l-3.2-10.3
						L219.7,76.2"/>
					<polygon class="st39" points="164.1,34.3 161,26.5 160.2,26.7 163.3,34.6 					"/>
					<path class="st0" d="M219.7,76.2l-0.2-0.5l-8.1,2.4l-7.2-22.6c2.4-0.7,4.9-1.4,10.2-2.8l-0.2-0.8c-5.3,1.4-7.7,2.1-10.1,2.8
						L202,48l11-3.5l-0.2-0.5l-10.9,3.5l-5-16l-0.6,0.2l7.3,23.2c-4.1,1.2-8.2,2.3-12.4,3.5l-7.1-24L184,34
						c4.5-0.7,11.7-1.2,11.8-1.2V32c-0.1,0-8.5,0.6-12.9,1.4c-1.5,0.3-3.5,0.8-5.5,1.3c1-3.2,1.9-5.4,2.3-6.4
						c0.8-0.2,1.5-0.3,2.3-0.4v-0.6c-0.7,0.1-1.3,0.2-2,0.3l0,0l-3-1.1c0,0-0.3,0.8-0.9,2.2c-2.8,0.9-5.5,2-6.3,2.3l-4.2-7.3
						l0.6,1.5l3.5,6.8c-1.8,0.6-3.6,1.3-5.4,2.1l-3.2-7.8l-0.9,0.2l3.1,7.8l0.8-0.3c-0.9,0.4-1.7,0.8-2.5,1.3
						c-1.3,0.8-3.2,2.1-5.5,3.7c-1.3,0.9-2.7,1.8-4.1,2.8c-1.8-5.5-3.3-9.7-3.4-9.8l-1.4,0.5c0,0.1,1.6,4.5,3.5,10.2
						c-0.6,0.4-1.3,0.8-1.9,1.2l-2.8-7.6l-0.8,0.3l2.9,7.8c-0.8,0.5-1.6,1-2.3,1.4c-0.1,0.1-0.3,0.2-0.4,0.2l-3.2-8.9l-0.8,0.3
						l3.2,9c-1,0.6-2,1.1-2.9,1.6l-3-7.9l-0.8,0.3l3,8c-2,1.1-3.6,1.9-4.4,2.3L135,40.2l-0.9,0.1l1.6,11.4c-1.9,0.6-3.9,1.1-5.9,1.4
						l0.1,0.6c0.2,0,5-0.9,6.9-1.9l-0.1-0.1c0.8-0.4,2.3-1.2,4.3-2.2l2,3.2l-1,0.6l-12.8,4.2l-1.4,0.7l-0.4-0.9l-0.6-0.4l0.7,1.4
						l-1.4,0.7l1.5-0.5l4.7,10.4l0.2,5.1l-11.9,4.9l-3.7,2.8c-0.1,0,1.1,1.1,1,1.1l3.1-2.3c4.9-1.9,9.9-3.6,14.8-5.3l0.2,20.5
						l-2.9,0.1c-0.1,0-0.3,0-0.3,0.2v0.1c0,0.1,0.1,0.3,0.2,0.3h0.1l2.9-0.1l0.1,5.8l-3,0.1c-0.1,0-0.3,0.1-0.3,0.2c0,0,0,0,0,0.1
						c0,0.2,0.1,0.3,0.3,0.3l0,0l2.9-0.1l0.1,11.8H135v2.2h1.2l0.1,12.3l-1.3,0.2v1.2l1.3-0.2v2.2h0.7v-2.3l21.9-4.1
						c0,2.9,0.1,6.2,0.1,9.9l-28.4,2.4l0.1,1.1l28.4-2.4c0.1,8.2,0.2,18.5,0.4,31.6l3.2-0.1c-0.1-12.8-0.3-23.2-0.4-31.8l15.3-1.4
						l-0.1-1.1l-15.2,1.4c-0.1-8.1-0.2-14.5-0.1-19.7h0.5l3.6,9.1l0.8-0.3l-3.4-8.8h8.4v-0.8H162c0-8.2,0.3-13.1,0.9-16.9
						s1.7-9.4,2.9-15.4l6.3-0.3L174,114h0.6l-1.8-31.5l12.7-0.7l1.1,21.8h0.6L186,81.7l8.8-0.5l4.4,6.9l0.8,18.5h0.6l-0.7-17.5
						l6.6,10.4l0.5-0.3l-11.4-18l8.4-0.5l7.8,12.6l0.5-0.3l-7.6-12.4l6.4-1.9l3.2,10.3l0.6-0.2l-3.2-10.3L219.7,76.2z M177,35.4
						c2.1-0.6,4.3-1.1,5.8-1.4l0.4-0.1l0.1,0.4l7,23.4l-15-17C175.9,38.8,176.5,37,177,35.4 M143.8,53.1c2-1.2,5.7-3.5,8.6-5.3
						c1.6,4.7,2.9,9.4,3.9,14.2c0.2,1.1,0.4,2.6,0.6,4.4v-0.1l-12,3.7L143.8,53.1z M144.5,74.2l-5.3,0.2c1.8-0.6,3.5-1.2,5.2-1.7
						L144.5,74.2z M162.8,49.4l-0.5,0.4l-7.7,0.4c-0.3-1.1-0.7-2.1-1-3.2c0.8-0.5,1.4-0.9,1.9-1.2c2.8-1.9,13.3-7.8,13.9-8.1
						l2.4-0.7v1.6l-2.6,0.3l0,0c-1.9,0.9-6.2,3.2-6.5,3.8S162.6,47.2,162.8,49.4 M155.5,69.3l1.7-0.5c0.2,1.5,0.3,3.1,0.5,4.8
						l-12.5,0.5l-0.1-1.6C148.5,71.4,152,70.3,155.5,69.3 M157.7,74.1c0.6,6.8,1.1,14.6,1.5,20.7l-12.8,0.6l-1.3-20.8L157.7,74.1z
						 M157.7,61.8c-0.6-2.9-1.7-6.9-2.9-11l9.8-0.5v-0.6h-0.8l-0.4-0.8c-0.2-2-0.3-4.1-0.1-6.1c2-1.3,4.1-2.5,6.2-3.5l1.4-0.1
						l0.8,0.3l0.7,0.7l0,0c-1.1,3.8-2.3,8.3-3.4,13.3c-0.6,2.6-1.3,6.1-2.2,10.1l-1.2,1.2l-5.6,1.1l-1.2-0.6l-0.6-1.1
						C158,63.3,157.9,62.5,157.7,61.8 M172,54.1c1-4.8,2.2-9,3.2-12.7l15,17.1l-9.6,2.6l-0.6-0.3l-7.9,2.2l-1.8-1.3L172,54.1
						 M172.7,36.7l0.7-0.2l-0.3,0.9L172.7,36.7z M175.7,29.5c-0.6,1.6-1.3,3.7-2.1,6.4l-1.2,0.3l-2.5-4.6
						C170.7,31.3,173.1,30.3,175.7,29.5 M156.6,40c2.2-1.5,4.2-2.9,5.4-3.7c2.5-1.4,5.1-2.5,7.9-3.3l1.9,3.4l-2.5,0.8h-0.1
						c-0.1,0.1-11.1,6.2-14,8.2l-1.8,1.1c-0.4-1.2-0.8-2.4-1.2-3.5C153.7,41.9,155.2,40.9,156.6,40 M141.6,49.3
						c1.4-0.8,3-1.7,4.6-2.6c1.5-0.9,3.1-1.9,4.8-3c0.4,1.1,0.8,2.3,1.1,3.5c-2.8,1.8-6.6,4-8.6,5.3L141.6,49.3z M133.2,74.9
						l-0.3-5.9L128,58.6l14.3-4.7h0.1l0.8-0.5l1,16.8l-7.2,2.2l0.4,1C136,73.9,134.6,74.4,133.2,74.9 M136.5,75.2l0.7-0.2l7.3-0.3
						l1.3,20.8l-9.1,0.4L136.5,75.2z M136.7,96.4l9.2-0.4l0.4,5.8l-9.5,0.4L136.7,96.4z M136.7,102.8l9.5-0.4l0.8,12.2h-10.2
						L136.7,102.8z M136.9,129l-0.1-12.2h10.4l0.7,10.2L136.9,129z M148.4,126.9l-0.7-10.1h4.3v5h0.6v-5h6.2c0,2.3,0,5,0.1,8.1
						L148.4,126.9z M158.7,114.6h-11.1l-0.8-12.2l12.4-0.5C158.9,105.2,158.8,108.8,158.7,114.6 M159.3,101.3l-12.5,0.5l-0.4-5.8
						l12.8-0.6c0.1,1.7,0.2,3.2,0.3,4.5C159.4,100.3,159.3,100.8,159.3,101.3 M160.5,93.3c-0.1-2.1-0.3-4.4-0.4-6.7l1.5,1.1
						C161.2,89.7,160.8,91.6,160.5,93.3 M161.8,86.5L160,85l-0.1-1.8l2.7-0.2C162.3,84.2,162.1,85.4,161.8,86.5 M162.7,82.5
						l-2.8,0.2c-0.4-5-0.8-10.1-1.2-14.2c2.5-0.7,4.8-1.3,7.4-2C164.9,71.5,163.8,77.2,162.7,82.5 M166,82.3
						c1.1-5.6,2.4-11.6,3.5-16.8l1.6-0.4l1,16.9L166,82.3z M172.7,81.9l-1-17c1.8-0.5,3.6-1,6.2-1.6v-0.6l1.7-0.6
						c1.7-0.5,2.7-0.7,4.4-1.1l1.3,20.1L172.7,81.9z M186,81.2l-1-20.4c2-0.5,3.8-1.1,5.8-1.7l12.8,21.1L186,81.2z M204.4,80.2h-0.2
						l-12.9-21c4.1-1.1,8.2-2.5,12.2-3.7l7.2,22.8L204.4,80.2z"/>
					<g class="st2">
						<g>
							<g>
								<defs>
									<rect id="SVGID_17_" x="127.3" y="29.1" width="65.5" height="27.5"/>
								</defs>
								<clipPath id="SVGID_18_">
									<use xlink:href="#SVGID_17_"  style="overflow:visible;"/>
								</clipPath>
								<g class="st40">
									<path class="st41" d="M127.4,55.6c0,0,7.3-0.6,11.7-2.8s15.6-9.1,19.7-11.9c4.1-2.8,7.3-4.5,14.1-7.2
										c6.2-2.4,16.3-3.1,19.8-3.6"/>
								</g>
							</g>
						</g>
					</g>
					<path class="st0" d="M157.7,70.2c-1-0.4-2-0.9-2.9-1.4l1.5-1.4l1.8,1.1L157.7,70.2z"/>
					<path class="st42" d="M137.4,73.4c0,0,11.9-4.2,18.6-5.9"/>
					<path class="st0" d="M160,67.5c0,0.3-0.3,0.6-0.7,0.5c-0.3,0-0.5-0.3-0.5-0.5c0-0.3,0.3-0.6,0.7-0.5
						C159.7,67,160,67.2,160,67.5"/>
					<path class="st43" d="M133.6,147.1c0,0,0.4-78.9,0.4-84S132.3,41,132.3,41"/>
					<path class="st0" d="M171.1,35.3c-0.8-1.4-0.1-2.5,1.4-2.5h4.8c1.6,0,2.2,1.1,1.4,2.5l-2.4,4.1c-0.8,1.4-2.1,1.4-2.9,0
						L171.1,35.3z"/>
					<path class="st0" d="M171.1,35.3c-0.8-1.4-0.1-2.5,1.4-2.5h4.8c1.6,0,2.2,1.1,1.4,2.5l-2.4,4.1c-0.8,1.4-2.1,1.4-2.9,0
						L171.1,35.3z"/>
					<path class="st44" d="M171.1,35.3c-0.8-1.4-0.1-2.5,1.4-2.5h4.8c1.6,0,2.2,1.1,1.4,2.5l-2.4,4.1c-0.8,1.4-2.1,1.4-2.9,0
						L171.1,35.3z"/>
					<path class="st44" d="M171.1,35.3c-0.8-1.4-0.1-2.5,1.4-2.5h4.8c1.6,0,2.2,1.1,1.4,2.5l-2.4,4.1c-0.8,1.4-2.1,1.4-2.9,0
						L171.1,35.3z"/>
					<path class="st45" d="M171.1,35.3c-0.8-1.4-0.1-2.5,1.4-2.5h4.8c1.6,0,2.2,1.1,1.4,2.5l-2.4,4.1c-0.8,1.4-2.1,1.4-2.9,0
						L171.1,35.3z"/>
					<path class="st45" d="M171.1,35.3c-0.8-1.4-0.1-2.5,1.4-2.5h4.8c1.6,0,2.2,1.1,1.4,2.5l-2.4,4.1c-0.8,1.4-2.1,1.4-2.9,0
						L171.1,35.3z"/>
					<path class="st46" d="M171.1,35.3c-0.8-1.4-0.1-2.5,1.4-2.5h4.8c1.6,0,2.2,1.1,1.4,2.5l-2.4,4.1c-0.8,1.4-2.1,1.4-2.9,0
						L171.1,35.3z"/>
					<path class="st46" d="M171.1,35.3c-0.8-1.4-0.1-2.5,1.4-2.5h4.8c1.6,0,2.2,1.1,1.4,2.5l-2.4,4.1c-0.8,1.4-2.1,1.4-2.9,0
						L171.1,35.3z"/>
					<path class="st7" d="M173.1,36.2v-1l-0.7,1H173.1z M173.4,36.2h0.3v0.4h-0.3v0.6H173v-0.6h-1v-0.4l1-1.6h0.4V36.2"/>
					<path class="st7" d="M174.4,35.8c0,0.1,0,0.9,0.4,0.9s0.4-0.8,0.4-0.9c0-0.1,0-0.9-0.4-0.9S174.4,35.7,174.4,35.8 M175.7,35.8
						c0,0.4-0.1,1.3-0.8,1.3s-0.9-0.9-0.9-1.3c0-0.4,0.1-1.3,0.9-1.3S175.7,35.4,175.7,35.8"/>
					<path class="st7" d="M177.6,34.6V35c-0.2,0.3-0.4,0.6-0.6,0.9c-0.1,0.4-0.2,0.8-0.2,1.2h-0.4c0-0.8,0.3-1.5,0.8-2.1H176v-0.4
						C176,34.6,177.6,34.6,177.6,34.6z"/>
					<path class="st7" d="M146.6,56.8c0-0.1-0.1-0.3-0.1-0.4l0.3-0.1c0.1,0.2,0.1,0.3,0.2,0.5h0.5c0.1-0.2,0.1-0.3,0.2-0.5l0.3,0.1
						c0,0.2-0.1,0.3-0.2,0.5h0.5v0.3h-0.9v0.4h0.9v0.3h-0.9v0.7H147v-0.7h-0.8v-0.3h0.8v-0.4h-0.8v-0.3L146.6,56.8L146.6,56.8z
						 M147.3,55v0.3h1.6v0.3h-1.6V56h1.4v2.2c0,0.2-0.1,0.3-0.2,0.3c0,0,0,0-0.1,0h-0.6l-0.1-0.3h0.6c0.1,0,0.1,0,0.1-0.1v-1.9h-2.5
						v2.3h-0.3V56h1.4v-0.4h-1.6v-0.3h1.6V55H147.3"/>
					<path class="st7" d="M151.5,56v-1h0.3v1l0.9-0.2c0,0.5,0,1-0.1,1.5c0,0.2-0.1,0.3-0.4,0.3H152v-0.3h0.3c0.1,0,0.1,0,0.2-0.1
						s0-0.3,0-1l-0.6,0.2v1.4h-0.3v-1.4l-0.5,0.1v1.6c0,0.1,0.1,0.1,0.1,0.1h1.2c0.1,0,0.1,0,0.2-0.1c0-0.2,0.1-0.3,0.1-0.5l0.3,0.1
						c0,0.7-0.2,0.8-0.4,0.8H151c-0.2,0-0.4-0.1-0.4-0.3v-1.7l-0.3,0.1v-0.3l0.4-0.1v-0.9h0.3v0.8L151.5,56z M150.4,57.7
						c-0.4,0.2-0.8,0.3-1.2,0.4v-0.3c0.2,0,0.3-0.1,0.5-0.1v-1.4h-0.5V56h0.5v-1h0.3v1h0.4v0.3H150v1.3l0.4-0.1V57.7"/>
					<path class="st7" d="M156,55.6c-0.2,0.4-0.4,0.7-0.6,1c0.4,0.2,0.7,0.5,1,0.8l-0.2,0.2c-0.3-0.3-0.6-0.6-1-0.8
						c-0.4,0.4-0.8,0.7-1.3,1l-0.2-0.3c0.5-0.2,0.9-0.6,1.2-0.9c-0.4-0.2-0.7-0.4-1.1-0.6l0.2-0.3c0.4,0.2,0.8,0.4,1.1,0.6
						c0.2-0.3,0.4-0.6,0.6-1L156,55.6z M156.5,55.1v0.3h-3V58h3.1v0.3h-3.1v0.2h-0.3v-3.4H156.5"/>
					<path class="st7" d="M157.8,57.6c0.5-0.4,0.9-1,1.2-1.6h-1v-0.3h1.1V55h0.3v0.7h1.1V56h-1c0.2,0.6,0.6,1.1,1.1,1.5l-0.2,0.3
						c-0.4-0.4-0.8-0.9-1-1.5v1.2h0.6v0.3h-0.6v0.7H159v-0.7h-0.6v-0.3h0.6v-1.2c-0.2,0.6-0.6,1.1-1.1,1.5L157.8,57.6z M157.6,58.6
						h-0.3v-2c-0.1,0.1-0.2,0.3-0.3,0.4l-0.2-0.4c0.4-0.4,0.7-1,0.8-1.6l0.3,0.1c-0.1,0.3-0.2,0.6-0.3,0.9V58.6"/>
					<path class="st7" d="M163.4,57.2h-1.9v0.3h1.9V57.2z M163.4,56.7h-1.9V57h1.9V56.7z M163.8,58.2c0,0.2-0.1,0.3-0.3,0.3h-0.1
						h-0.6l-0.1-0.3h0.6c0.1,0,0.1,0,0.1-0.1v-0.3h-1.9v0.7h-0.3v-2.1h2.5v1.8 M163.2,55.5c0.4,0.2,0.7,0.4,1,0.6l-0.2,0.2
						c-0.1-0.1-0.2-0.2-0.4-0.3c-1.7,0.1-1.9,0.1-2.6,0.1V56h0.7c0.1-0.1,0.2-0.3,0.3-0.4h-1.1v-0.3h1.6V55h0.3v0.3h1.6v0.3h-2.1
						c0,0.1-0.1,0.2-0.3,0.4h1.2l-0.3-0.2L163.2,55.5"/>
					<path class="st7" d="M167.7,57.5h-1V58h1V57.5z M167.5,56.1h-0.9v0.5h0.9V56.1z M166.4,55.9h1.4v-0.3h-1.4V55.9z M165.7,56.7
						H165V57h0.6L165.7,56.7z M165.7,56.2H165v0.3h0.6L165.7,56.2z M165.7,57.5c0.2,0.3,0.3,0.5,0.5,0.8l-0.3,0.1
						c-0.1-0.1-0.1-0.2-0.1-0.3c-0.4,0.1-0.8,0.2-1.1,0.3v-0.3h0.2V56h0.5v-0.3h0.3V56h0.4v1.3h-1V58l0.6-0.2
						c-0.1-0.1-0.1-0.2-0.2-0.2L165.7,57.5 M166.1,55.3h0.8V55h0.3v0.3h0.9v0.8h-0.3V57h-1.1v0.3h1.4v1.3h-0.3v-0.2h-1v0.2h-0.3
						v-2.5h-0.3v-0.5l-0.2,0.3c-0.2-0.2-0.4-0.4-0.5-0.6c-0.2,0.3-0.5,0.6-0.8,0.9l-0.1-0.3c0.3-0.2,0.6-0.5,0.7-0.8h0.3
						c0.1,0.2,0.3,0.4,0.5,0.5L166.1,55.3"/>
					<path class="st47" d="M146.6,56.8c0-0.1-0.1-0.3-0.1-0.4l0.3-0.1c0.1,0.2,0.1,0.3,0.2,0.5h0.5c0.1-0.2,0.1-0.3,0.2-0.5l0.3,0.1
						c0,0.2-0.1,0.3-0.2,0.5h0.5v0.3h-0.9v0.4h0.9v0.3h-0.9v0.7H147v-0.7h-0.8v-0.3h0.8v-0.4h-0.8v-0.3L146.6,56.8L146.6,56.8z
						 M147.3,55v0.3h1.6v0.3h-1.6V56h1.4v2.2c0,0.2-0.1,0.3-0.2,0.3c0,0,0,0-0.1,0h-0.6l-0.1-0.3h0.6c0.1,0,0.1,0,0.1-0.1v-1.9h-2.5
						v2.3h-0.3V56h1.4v-0.4h-1.6v-0.3h1.6V55H147.3"/>
					<path class="st47" d="M151.5,56v-1h0.3v1l0.9-0.2c0,0.5,0,1-0.1,1.5c0,0.2-0.1,0.3-0.4,0.3H152v-0.3h0.3c0.1,0,0.1,0,0.2-0.1
						s0-0.3,0-1l-0.6,0.2v1.4h-0.3v-1.4l-0.5,0.1v1.6c0,0.1,0.1,0.1,0.1,0.1h1.2c0.1,0,0.1,0,0.2-0.1c0-0.2,0.1-0.3,0.1-0.5l0.3,0.1
						c0,0.7-0.2,0.8-0.4,0.8H151c-0.2,0-0.4-0.1-0.4-0.3v-1.7l-0.3,0.1v-0.3l0.4-0.1v-0.9h0.3v0.8L151.5,56z M150.4,57.7
						c-0.4,0.2-0.8,0.3-1.2,0.4v-0.3c0.2,0,0.3-0.1,0.5-0.1v-1.4h-0.5V56h0.5v-1h0.3v1h0.4v0.3H150v1.3l0.4-0.1V57.7"/>
					<path class="st47" d="M156,55.6c-0.2,0.4-0.4,0.7-0.6,1c0.4,0.2,0.7,0.5,1,0.8l-0.2,0.2c-0.3-0.3-0.6-0.6-1-0.8
						c-0.4,0.4-0.8,0.7-1.3,1l-0.2-0.3c0.5-0.2,0.9-0.6,1.2-0.9c-0.4-0.2-0.7-0.4-1.1-0.6l0.2-0.3c0.4,0.2,0.8,0.4,1.1,0.6
						c0.2-0.3,0.4-0.6,0.6-1L156,55.6z M156.5,55.1v0.3h-3V58h3.1v0.3h-3.1v0.2h-0.3v-3.4H156.5"/>
					<path class="st47" d="M157.8,57.6c0.5-0.4,0.9-1,1.2-1.6h-1v-0.3h1.1V55h0.3v0.7h1.1V56h-1c0.2,0.6,0.6,1.1,1.1,1.5l-0.2,0.3
						c-0.4-0.4-0.8-0.9-1-1.5v1.2h0.6v0.3h-0.6v0.7H159v-0.7h-0.6v-0.3h0.6v-1.2c-0.2,0.6-0.6,1.1-1.1,1.5L157.8,57.6z M157.6,58.6
						h-0.3v-2c-0.1,0.1-0.2,0.3-0.3,0.4l-0.2-0.4c0.4-0.4,0.7-1,0.8-1.6l0.3,0.1c-0.1,0.3-0.2,0.6-0.3,0.9V58.6"/>
					<path class="st47" d="M163.4,57.2h-1.9v0.3h1.9V57.2z M163.4,56.7h-1.9V57h1.9V56.7z M163.8,58.2c0,0.2-0.1,0.3-0.3,0.3h-0.1
						h-0.6l-0.1-0.3h0.6c0.1,0,0.1,0,0.1-0.1v-0.3h-1.9v0.7h-0.3v-2.1h2.5v1.8 M163.2,55.5c0.4,0.2,0.7,0.4,1,0.6l-0.2,0.2
						c-0.1-0.1-0.2-0.2-0.4-0.3c-1.7,0.1-1.9,0.1-2.6,0.1V56h0.7c0.1-0.1,0.2-0.3,0.3-0.4h-1.1v-0.3h1.6V55h0.3v0.3h1.6v0.3h-2.1
						c0,0.1-0.1,0.2-0.3,0.4h1.2l-0.3-0.2L163.2,55.5"/>
					<path class="st47" d="M167.7,57.5h-1V58h1V57.5z M167.5,56.1h-0.9v0.5h0.9V56.1z M166.4,55.9h1.4v-0.3h-1.4V55.9z M165.7,56.7
						H165V57h0.6L165.7,56.7z M165.7,56.2H165v0.3h0.6L165.7,56.2z M165.7,57.5c0.2,0.3,0.3,0.5,0.5,0.8l-0.3,0.1
						c-0.1-0.1-0.1-0.2-0.1-0.3c-0.4,0.1-0.8,0.2-1.1,0.3v-0.3h0.2V56h0.5v-0.3h0.3V56h0.4v1.3h-1V58l0.6-0.2
						c-0.1-0.1-0.1-0.2-0.2-0.2L165.7,57.5 M166.1,55.3h0.8V55h0.3v0.3h0.9v0.8h-0.3V57h-1.1v0.3h1.4v1.3h-0.3v-0.2h-1v0.2h-0.3
						v-2.5h-0.3v-0.5l-0.2,0.3c-0.2-0.2-0.4-0.4-0.5-0.6c-0.2,0.3-0.5,0.6-0.8,0.9l-0.1-0.3c0.3-0.2,0.6-0.5,0.7-0.8h0.3
						c0.1,0.2,0.3,0.4,0.5,0.5L166.1,55.3"/>
					<path class="st7" d="M146.6,56.8c0-0.1-0.1-0.3-0.1-0.4l0.3-0.1c0.1,0.2,0.1,0.3,0.2,0.5h0.5c0.1-0.2,0.1-0.3,0.2-0.5l0.3,0.1
						c0,0.2-0.1,0.3-0.2,0.5h0.5v0.3h-0.9v0.4h0.9v0.3h-0.9v0.7H147v-0.7h-0.8v-0.3h0.8v-0.4h-0.8v-0.3L146.6,56.8L146.6,56.8z
						 M147.3,55v0.3h1.6v0.3h-1.6V56h1.4v2.2c0,0.2-0.1,0.3-0.2,0.3c0,0,0,0-0.1,0h-0.6l-0.1-0.3h0.6c0.1,0,0.1,0,0.1-0.1v-1.9h-2.5
						v2.3h-0.3V56h1.4v-0.4h-1.6v-0.3h1.6V55H147.3"/>
					<path class="st7" d="M151.5,56v-1h0.3v1l0.9-0.2c0,0.5,0,1-0.1,1.5c0,0.2-0.1,0.3-0.4,0.3H152v-0.3h0.3c0.1,0,0.1,0,0.2-0.1
						s0-0.3,0-1l-0.6,0.2v1.4h-0.3v-1.4l-0.5,0.1v1.6c0,0.1,0.1,0.1,0.1,0.1h1.2c0.1,0,0.1,0,0.2-0.1c0-0.2,0.1-0.3,0.1-0.5l0.3,0.1
						c0,0.7-0.2,0.8-0.4,0.8H151c-0.2,0-0.4-0.1-0.4-0.3v-1.7l-0.3,0.1v-0.3l0.4-0.1v-0.9h0.3v0.8L151.5,56z M150.4,57.7
						c-0.4,0.2-0.8,0.3-1.2,0.4v-0.3c0.2,0,0.3-0.1,0.5-0.1v-1.4h-0.5V56h0.5v-1h0.3v1h0.4v0.3H150v1.3l0.4-0.1V57.7"/>
					<path class="st7" d="M156,55.6c-0.2,0.4-0.4,0.7-0.6,1c0.4,0.2,0.7,0.5,1,0.8l-0.2,0.2c-0.3-0.3-0.6-0.6-1-0.8
						c-0.4,0.4-0.8,0.7-1.3,1l-0.2-0.3c0.5-0.2,0.9-0.6,1.2-0.9c-0.4-0.2-0.7-0.4-1.1-0.6l0.2-0.3c0.4,0.2,0.8,0.4,1.1,0.6
						c0.2-0.3,0.4-0.6,0.6-1L156,55.6z M156.5,55.1v0.3h-3V58h3.1v0.3h-3.1v0.2h-0.3v-3.4H156.5"/>
					<path class="st7" d="M157.8,57.6c0.5-0.4,0.9-1,1.2-1.6h-1v-0.3h1.1V55h0.3v0.7h1.1V56h-1c0.2,0.6,0.6,1.1,1.1,1.5l-0.2,0.3
						c-0.4-0.4-0.8-0.9-1-1.5v1.2h0.6v0.3h-0.6v0.7H159v-0.7h-0.6v-0.3h0.6v-1.2c-0.2,0.6-0.6,1.1-1.1,1.5L157.8,57.6z M157.6,58.6
						h-0.3v-2c-0.1,0.1-0.2,0.3-0.3,0.4l-0.2-0.4c0.4-0.4,0.7-1,0.8-1.6l0.3,0.1c-0.1,0.3-0.2,0.6-0.3,0.9V58.6"/>
					<path class="st7" d="M163.4,57.2h-1.9v0.3h1.9V57.2z M163.4,56.7h-1.9V57h1.9V56.7z M163.8,58.2c0,0.2-0.1,0.3-0.3,0.3h-0.1
						h-0.6l-0.1-0.3h0.6c0.1,0,0.1,0,0.1-0.1v-0.3h-1.9v0.7h-0.3v-2.1h2.5v1.8 M163.2,55.5c0.4,0.2,0.7,0.4,1,0.6l-0.2,0.2
						c-0.1-0.1-0.2-0.2-0.4-0.3c-1.7,0.1-1.9,0.1-2.6,0.1V56h0.7c0.1-0.1,0.2-0.3,0.3-0.4h-1.1v-0.3h1.6V55h0.3v0.3h1.6v0.3h-2.1
						c0,0.1-0.1,0.2-0.3,0.4h1.2l-0.3-0.2L163.2,55.5"/>
					<path class="st7" d="M167.7,57.5h-1V58h1V57.5z M167.5,56.1h-0.9v0.5h0.9V56.1z M166.4,55.9h1.4v-0.3h-1.4V55.9z M165.7,56.7
						H165V57h0.6L165.7,56.7z M165.7,56.2H165v0.3h0.6L165.7,56.2z M165.7,57.5c0.2,0.3,0.3,0.5,0.5,0.8l-0.3,0.1
						c-0.1-0.1-0.1-0.2-0.1-0.3c-0.4,0.1-0.8,0.2-1.1,0.3v-0.3h0.2V56h0.5v-0.3h0.3V56h0.4v1.3h-1V58l0.6-0.2
						c-0.1-0.1-0.1-0.2-0.2-0.2L165.7,57.5 M166.1,55.3h0.8V55h0.3v0.3h0.9v0.8h-0.3V57h-1.1v0.3h1.4v1.3h-0.3v-0.2h-1v0.2h-0.3
						v-2.5h-0.3v-0.5l-0.2,0.3c-0.2-0.2-0.4-0.4-0.5-0.6c-0.2,0.3-0.5,0.6-0.8,0.9l-0.1-0.3c0.3-0.2,0.6-0.5,0.7-0.8h0.3
						c0.1,0.2,0.3,0.4,0.5,0.5L166.1,55.3"/>
					<path class="st7" d="M164.4,61.4c0,0.7-0.6,1.3-1.3,1.3s-1.3-0.6-1.3-1.3s0.6-1.3,1.3-1.3C163.7,60.1,164.3,60.7,164.4,61.4"/>
					<polyline class="st48" points="163.9,84.4 168,64.7 174.7,62.9 					"/>
					<polygon class="st7" points="174.7,63.9 176,62.5 174.1,62 					"/>
					<line class="st49" x1="164.2" y1="87" x2="171.9" y2="99.1"/>
					<line class="st50" x1="164.2" y1="87" x2="171.9" y2="99.1"/>
					<rect x="164.9" y="96.8" class="st0" width="22.2" height="5.6"/>
					<rect x="164.9" y="96.8" class="st51" width="22.2" height="5.6"/>
					<path class="st7" d="M168.8,100h-1.2v0.4h1.2V100z M169,100.6h-1.5v-0.7h1.6L169,100.6z M169.1,98.7h-1.7v0.4h1.7V98.7z
						 M169.3,99.2h-2.1v-0.7h2.1V99.2z M169.6,100.8c0,0.2-0.1,0.2-0.2,0.2h-0.5v-0.2h0.5C169.4,100.8,169.5,100.8,169.6,100.8
						l-0.1-1.2H167v1.3h-0.2v-1.5h2.8V100.8 M169.8,98.3h-3.1v-0.2h1.5v-0.3h0.2v0.3h1.5L169.8,98.3"/>
					<path class="st7" d="M171.4,100.8c0.3-0.1,0.6-0.3,0.8-0.6c-0.2-0.3-0.4-0.7-0.5-1.1l0.2-0.1c0.1,0.4,0.2,0.7,0.4,1
						c0.3-0.3,0.4-0.7,0.5-1.1h-1.3v0.4c0,0.6-0.2,1.2-0.6,1.6l-0.1-0.1c0.4-0.4,0.6-0.9,0.6-1.5V98h1.9v0.2h-1.7v0.7h1.5
						c-0.1,0.5-0.3,1-0.6,1.4c0.2,0.2,0.5,0.4,0.8,0.6l-0.1,0.2c-0.3-0.2-0.5-0.4-0.8-0.6c-0.2,0.2-0.5,0.4-0.8,0.6L171.4,100.8z
						 M171.2,100.2c-0.4,0.1-0.7,0.2-1.1,0.3v-0.2l0.5-0.1v-1.3h-0.5v-0.2h0.5v-0.8h0.2v0.8h0.4v0.2h-0.4v1.3
						C171,100.1,171.1,100.1,171.2,100.2L171.2,100.2"/>
					<path class="st7" d="M175.9,100.1h-0.7v0.4h0.7V100.1z M176,99h-0.9v0.3h0.9V99z M175.4,98.5c-0.1,0.1-0.2,0.2-0.2,0.3h0.9
						c-0.1-0.1-0.2-0.2-0.2-0.3H175.4 M176.1,100.6H175V100h1.1V100.6z M176.5,100.8c0,0.2-0.1,0.2-0.3,0.2H176v-0.2h0.2
						c0.1,0,0.1-0.1,0.1-0.1v-1h-1.5v1.3h-0.2v-1.4h1.9V100.8 M174.5,99.1c0.3-0.1,0.5-0.3,0.7-0.6h-0.6v-0.2h0.7
						c0-0.1,0.1-0.2,0.1-0.3h-0.7l-0.1-0.2c0.6,0,1.1,0,1.7-0.1l0.1,0.2c-0.3,0-0.6,0.1-0.9,0.1c0,0.1-0.1,0.2-0.1,0.3h1.2v0.2H176
						c0.2,0.3,0.4,0.5,0.7,0.6l-0.1,0.1c-0.2-0.1-0.3-0.1-0.5-0.3v0.4H175V99c-0.1,0.1-0.3,0.2-0.4,0.2L174.5,99.1 M174.5,99.7
						c-0.1-0.1-0.2-0.2-0.2-0.4v1.7H174v-1.7c-0.1,0.3-0.2,0.6-0.4,0.8l-0.1-0.2c0.2-0.3,0.4-0.7,0.5-1.2h-0.5v-0.2h0.5v-0.7h0.2
						v0.7h0.4v0.2h-0.4V99C174.3,99.2,174.4,99.4,174.5,99.7L174.5,99.7"/>
					<path class="st7" d="M180.1,97.8c-0.5,0.4-0.8,1-0.8,1.6s0.3,1.2,0.8,1.6h-0.2c-0.5-0.4-0.8-1-0.8-1.6s0.3-1.2,0.8-1.6H180.1z"
						/>
					<path class="st7" d="M182.4,97.8V99c0.4-0.2,0.7-0.4,1-0.7l0.1,0.2c-0.3,0.3-0.7,0.5-1.1,0.7v1.4c0,0.1,0,0.1,0.1,0.1h0.6
						c0.1,0,0.2,0,0.2-0.3c0-0.1,0-0.4,0-0.4l0.2,0.1c0,0.1,0,0.4,0,0.4c0,0.3-0.1,0.4-0.4,0.4h-0.7c-0.1,0-0.3,0-0.3-0.2v-2.9
						C182.1,97.8,182.4,97.8,182.4,97.8z M180.4,100.6c0.4-0.1,0.7-0.2,1.1-0.3V99h-1.1v-0.2h1.1v-0.9h0.2v3.1h-0.2v-0.5
						c-0.3,0.1-0.7,0.2-1,0.3L180.4,100.6"/>
					<path class="st7" d="M184,97.8c0.5,0.4,0.8,1,0.8,1.6s-0.3,1.2-0.8,1.6h-0.2c0.5-0.4,0.8-1,0.8-1.6s-0.3-1.2-0.8-1.6H184z"/>
					<path class="st7" d="M168.8,100h-1.2v0.4h1.2V100z M169,100.6h-1.5v-0.7h1.6L169,100.6z M169.1,98.7h-1.7v0.4h1.7V98.7z
						 M169.3,99.2h-2.1v-0.7h2.1V99.2z M169.6,100.8c0,0.2-0.1,0.2-0.2,0.2h-0.5v-0.2h0.5C169.4,100.8,169.5,100.8,169.6,100.8
						l-0.1-1.2H167v1.3h-0.2v-1.5h2.8V100.8 M169.8,98.3h-3.1v-0.2h1.5v-0.3h0.2v0.3h1.5L169.8,98.3"/>
					<path class="st7" d="M171.4,100.8c0.3-0.1,0.6-0.3,0.8-0.6c-0.2-0.3-0.4-0.7-0.5-1.1l0.2-0.1c0.1,0.4,0.2,0.7,0.4,1
						c0.3-0.3,0.4-0.7,0.5-1.1h-1.3v0.4c0,0.6-0.2,1.2-0.6,1.6l-0.1-0.1c0.4-0.4,0.6-0.9,0.6-1.5V98h1.9v0.2h-1.7v0.7h1.5
						c-0.1,0.5-0.3,1-0.6,1.4c0.2,0.2,0.5,0.4,0.8,0.6l-0.1,0.2c-0.3-0.2-0.5-0.4-0.8-0.6c-0.2,0.2-0.5,0.4-0.8,0.6L171.4,100.8z
						 M171.2,100.2c-0.4,0.1-0.7,0.2-1.1,0.3v-0.2l0.5-0.1v-1.3h-0.5v-0.2h0.5v-0.8h0.2v0.8h0.4v0.2h-0.4v1.3
						C171,100.1,171.1,100.1,171.2,100.2L171.2,100.2"/>
					<path class="st7" d="M175.9,100.1h-0.7v0.4h0.7V100.1z M176,99h-0.9v0.3h0.9V99z M175.4,98.5c-0.1,0.1-0.2,0.2-0.2,0.3h0.9
						c-0.1-0.1-0.2-0.2-0.2-0.3H175.4 M176.1,100.6H175V100h1.1V100.6z M176.5,100.8c0,0.2-0.1,0.2-0.3,0.2H176v-0.2h0.2
						c0.1,0,0.1-0.1,0.1-0.1v-1h-1.5v1.3h-0.2v-1.4h1.9V100.8 M174.5,99.1c0.3-0.1,0.5-0.3,0.7-0.6h-0.6v-0.2h0.7
						c0-0.1,0.1-0.2,0.1-0.3h-0.7l-0.1-0.2c0.6,0,1.1,0,1.7-0.1l0.1,0.2c-0.3,0-0.6,0.1-0.9,0.1c0,0.1-0.1,0.2-0.1,0.3h1.2v0.2H176
						c0.2,0.3,0.4,0.5,0.7,0.6l-0.1,0.1c-0.2-0.1-0.3-0.1-0.5-0.3v0.4H175V99c-0.1,0.1-0.3,0.2-0.4,0.2L174.5,99.1 M174.5,99.7
						c-0.1-0.1-0.2-0.2-0.2-0.4v1.7H174v-1.7c-0.1,0.3-0.2,0.6-0.4,0.8l-0.1-0.2c0.2-0.3,0.4-0.7,0.5-1.2h-0.5v-0.2h0.5v-0.7h0.2
						v0.7h0.4v0.2h-0.4V99C174.3,99.2,174.4,99.4,174.5,99.7L174.5,99.7"/>
					<path class="st7" d="M180.1,97.8c-0.5,0.4-0.8,1-0.8,1.6s0.3,1.2,0.8,1.6h-0.2c-0.5-0.4-0.8-1-0.8-1.6s0.3-1.2,0.8-1.6H180.1z"
						/>
					<path class="st7" d="M182.4,97.8V99c0.4-0.2,0.7-0.4,1-0.7l0.1,0.2c-0.3,0.3-0.7,0.5-1.1,0.7v1.4c0,0.1,0,0.1,0.1,0.1h0.6
						c0.1,0,0.2,0,0.2-0.3c0-0.1,0-0.4,0-0.4l0.2,0.1c0,0.1,0,0.4,0,0.4c0,0.3-0.1,0.4-0.4,0.4h-0.7c-0.1,0-0.3,0-0.3-0.2v-2.9
						C182.1,97.8,182.4,97.8,182.4,97.8z M180.4,100.6c0.4-0.1,0.7-0.2,1.1-0.3V99h-1.1v-0.2h1.1v-0.9h0.2v3.1h-0.2v-0.5
						c-0.3,0.1-0.7,0.2-1,0.3L180.4,100.6"/>
					<path class="st7" d="M184,97.8c0.5,0.4,0.8,1,0.8,1.6s-0.3,1.2-0.8,1.6h-0.2c0.5-0.4,0.8-1,0.8-1.6s-0.3-1.2-0.8-1.6H184z"/>
					<path class="st52" d="M165.7,87.7h-3.3c-0.5,0.1-1-0.3-1-0.8c-0.1-0.5,0.3-1,0.8-1c0.1,0,0.1,0,0.2,0h3.3c0.5-0.1,1,0.3,1,0.8
						c0.1,0.5-0.3,1-0.8,1C165.8,87.7,165.7,87.7,165.7,87.7z"/>
					<path class="st53" d="M165.7,87.7h-3.3c-0.5,0.1-1-0.3-1-0.8c-0.1-0.5,0.3-1,0.8-1c0.1,0,0.1,0,0.2,0h3.3c0.5-0.1,1,0.3,1,0.8
						c0.1,0.5-0.3,1-0.8,1C165.8,87.7,165.7,87.7,165.7,87.7z"/>
					<path class="st54" d="M165.7,87.7h-3.3c-0.5,0.1-1-0.3-1-0.8c-0.1-0.5,0.3-1,0.8-1c0.1,0,0.1,0,0.2,0h3.3c0.5-0.1,1,0.3,1,0.8
						c0.1,0.5-0.3,1-0.8,1C165.8,87.7,165.7,87.7,165.7,87.7"/>
					<path class="st0" d="M163.2,86.8c0,0.4-0.3,0.8-0.8,0.8c-0.4,0-0.8-0.3-0.8-0.8s0.3-0.8,0.8-0.8
						C162.8,86,163.2,86.4,163.2,86.8L163.2,86.8"/>
					<path class="st0" d="M164.8,86.8c0,0.4-0.3,0.8-0.8,0.8c-0.4,0-0.8-0.3-0.8-0.8s0.3-0.8,0.8-0.8
						C164.4,86,164.8,86.4,164.8,86.8L164.8,86.8"/>
					<path class="st0" d="M166.4,86.8c0,0.4-0.3,0.8-0.8,0.8c-0.4,0-0.8-0.3-0.8-0.8s0.3-0.8,0.8-0.8C166,86,166.4,86.4,166.4,86.8
						L166.4,86.8"/>
					<path class="st52" d="M161.8,115.7h-3.3c-0.5-0.1-0.9-0.5-0.8-1c0-0.4,0.4-0.8,0.8-0.8h3.3c0.5,0.1,0.9,0.5,0.8,1
						C162.5,115.3,162.2,115.7,161.8,115.7z"/>
					<path class="st53" d="M161.8,115.7h-3.3c-0.5-0.1-0.9-0.5-0.8-1c0-0.4,0.4-0.8,0.8-0.8h3.3c0.5,0.1,0.9,0.5,0.8,1
						C162.5,115.3,162.2,115.7,161.8,115.7z"/>
					<path class="st54" d="M161.8,115.7h-3.3c-0.5-0.1-0.9-0.5-0.8-1c0-0.4,0.4-0.8,0.8-0.8h3.3c0.5,0.1,0.9,0.5,0.8,1
						C162.5,115.3,162.2,115.7,161.8,115.7"/>
					<path class="st0" d="M159.2,114.8c0,0.4-0.3,0.8-0.7,0.8l0,0c-0.4,0-0.8-0.3-0.8-0.8s0.3-0.8,0.8-0.8l0,0
						C158.9,114,159.2,114.4,159.2,114.8"/>
					<path class="st0" d="M160.9,114.8c0,0.4-0.3,0.8-0.8,0.8c-0.4,0-0.8-0.3-0.8-0.8s0.3-0.8,0.8-0.8
						C160.5,114,160.9,114.4,160.9,114.8"/>
					<path class="st0" d="M162.4,114.8c0,0.4-0.3,0.8-0.7,0.8l0,0c-0.4,0-0.8-0.3-0.8-0.8c0-0.4,0.3-0.8,0.8-0.8
						C162.1,114,162.4,114.4,162.4,114.8"/>
					<path class="st52" d="M169.9,64h-3.3c-0.5,0.1-1-0.3-1-0.8c-0.1-0.5,0.3-1,0.8-1c0.1,0,0.1,0,0.2,0h3.3c0.5-0.1,1,0.3,1,0.8
						c0.1,0.5-0.3,1-0.8,1C170.1,64,170,64,169.9,64z"/>
					<path class="st53" d="M169.9,64h-3.3c-0.5,0.1-1-0.3-1-0.8c-0.1-0.5,0.3-1,0.8-1c0.1,0,0.1,0,0.2,0h3.3c0.5-0.1,1,0.3,1,0.8
						c0.1,0.5-0.3,1-0.8,1C170.1,64,170,64,169.9,64z"/>
					<path class="st54" d="M169.9,64h-3.3c-0.5,0.1-1-0.3-1-0.8c-0.1-0.5,0.3-1,0.8-1c0.1,0,0.1,0,0.2,0h3.3c0.5-0.1,1,0.3,1,0.8
						c0.1,0.5-0.3,1-0.8,1C170.1,64,170,64,169.9,64"/>
					<path class="st0" d="M167.4,63c0,0.4-0.3,0.8-0.8,0.8c-0.4,0-0.8-0.3-0.8-0.8c0-0.4,0.3-0.8,0.8-0.8l0,0
						C167.1,62.2,167.4,62.5,167.4,63"/>
					<path class="st0" d="M169,63c0,0.4-0.3,0.8-0.8,0.8c-0.4,0-0.8-0.3-0.8-0.8s0.3-0.8,0.8-0.8S169,62.5,169,63"/>
					<path class="st0" d="M170.6,63c0,0.4-0.3,0.7-0.7,0.8l0,0c-0.4,0-0.8-0.3-0.8-0.7l0,0c0-0.4,0.3-0.8,0.8-0.8
						C170.3,62.2,170.6,62.5,170.6,63C170.6,62.9,170.6,63,170.6,63"/>
					<path class="st55" d="M132.4,82.1h-1.1v0.4h1.1V82.1z M132.4,81.6h-1.1V82h1.1V81.6z M130.1,82.5h1v-0.4h-1V82.5z M130.1,82h1
						v-0.4h-1V82z M132.8,81.1h-1.5v0.3h1.2v1.2h-1.1c0.4,0.4,0.8,0.7,1.3,0.9l-0.1,0.2c-0.6-0.2-1.1-0.5-1.4-1v1.1H131v-1.1
						c-0.4,0.4-0.9,0.8-1.4,1l-0.1-0.2c0.5-0.2,1-0.5,1.3-0.9h-1.1v-1.3h1.2V81h-1.5v0h1.5v-0.3h0.2V81h1.5v0.1"/>
					<path class="st55" d="M132.5,84.8c-0.1-0.2-0.3-0.4-0.4-0.6l0.1-0.1c0.2,0.2,0.3,0.4,0.5,0.6L132.5,84.8z M131.2,84.5h-1.4
						v-0.2h1.4V84.5z M131.6,86.8c-0.6,0.1-1.2,0.2-1.9,0.3v-0.2h0.2v-1.5h0.2v1.5l0.5-0.1v-1.7h0.2v0.6h0.6V86h-0.6v0.9L131.6,86.8
						L131.6,86.8 M131.8,84.1c0,0.4,0,0.6,0,0.8h1v0.2h-1c0,0.5,0.1,1,0.2,1.5c0,0.1,0.2,0.5,0.4,0.5s0.1,0,0.1-0.1
						c0.1-0.2,0.1-0.4,0.1-0.6l0.2,0.1c0,0.2-0.1,0.5-0.2,0.7c-0.1,0.1-0.1,0.1-0.2,0.1c-0.3,0-0.6-0.5-0.6-0.8
						c-0.1-0.4-0.2-0.9-0.2-1.4h-1.9v-0.2h1.9c0-0.2,0-0.6,0-0.8L131.8,84.1"/>
					<path class="st55" d="M132.4,89h-1.1v0.4h1.1V89z M132.4,88.5h-1.1v0.4h1.1V88.5z M130.1,89.4h1V89h-1V89.4z M130.1,88.9h1
						v-0.4h-1V88.9z M132.8,88.1h-1.5v0.3h1.2v1.2h-1.1c0.4,0.4,0.8,0.7,1.3,0.9l-0.1,0.2c-0.6-0.2-1.1-0.5-1.4-1v1.1H131v-1.1
						c-0.4,0.4-0.9,0.8-1.4,1l-0.1-0.2c0.5-0.2,1-0.5,1.3-0.9h-1.1v-1.3h1.2V88h-1.5v-0.2h1.5v-0.3h0.2v0.3h1.5v0.3"/>
					<polygon class="st55" points="131.3,92.1 132.6,92.1 132.6,92.3 131.3,92.3 131.3,93.9 132.8,93.9 132.8,94 129.7,94 
						129.7,93.9 131.1,93.9 131.1,91 131.3,91 					"/>
					<path class="st55" d="M132.5,95.4h-1.3v0.3h1.3V95.4z M132.5,95h-1.3v0.3h1.3V95z M132.8,96.2c-0.2,0.2-0.4,0.4-0.6,0.5
						c0.2,0.3,0.4,0.5,0.7,0.6l-0.1,0.2c-0.4-0.2-0.7-0.6-0.9-1v0.9c0,0.2-0.1,0.3-0.3,0.3h-0.3v-0.2h0.3c0.1,0,0.1,0,0.1-0.1V96
						H131v-1.2h0.5c0.1-0.1,0.1-0.2,0.1-0.3h0.2l-0.1,0.3h0.9V96h-0.8v0.1c0,0.2,0.1,0.3,0.2,0.5c0.2-0.1,0.4-0.3,0.5-0.5
						L132.8,96.2 M130.8,97.4c0.3-0.2,0.5-0.6,0.6-1h-0.5v-0.2h0.7c-0.1,0.5-0.3,0.9-0.7,1.3L130.8,97.4 M130.7,97.1
						c0-0.2-0.1-0.5-0.1-0.7h0.1c0.1,0.2,0.1,0.4,0.2,0.7H130.7 M130.7,94.8c-0.2,0.4-0.4,0.8-0.6,1.2c0,0,0.3,0,0.5,0l-0.1-0.2
						l0.1-0.1c0.1,0.2,0.2,0.4,0.2,0.6l-0.2,0.1l-0.1-0.2h-0.3v1.5H130v-1.5h-0.5V96h0.2l0.2-0.4c-0.1-0.1-0.3-0.3-0.4-0.4l0.1-0.1
						l0.1,0.1c0.1-0.2,0.2-0.5,0.3-0.7l0.2,0.1c0,0.1-0.2,0.5-0.4,0.7l0.2,0.2c0.2-0.3,0.3-0.6,0.4-0.7L130.7,94.8 M129.7,97.3
						c0.1-0.3,0.1-0.6,0.2-0.9h0.2c0,0.3-0.1,0.7-0.2,1L129.7,97.3"/>
					<path class="st7" d="M132.4,82.1h-1.1v0.4h1.1V82.1z M132.4,81.6h-1.1V82h1.1V81.6z M130.1,82.5h1v-0.4h-1V82.5z M130.1,82h1
						v-0.4h-1V82z M132.8,81.1h-1.5v0.3h1.2v1.2h-1.1c0.4,0.4,0.8,0.7,1.3,0.9l-0.1,0.2c-0.6-0.2-1.1-0.5-1.4-1v1.1H131v-1.1
						c-0.4,0.4-0.9,0.8-1.4,1l-0.1-0.2c0.5-0.2,1-0.5,1.3-0.9h-1.1v-1.3h1.2V81h-1.5v0h1.5v-0.3h0.2V81h1.5v0.1"/>
					<path class="st7" d="M132.5,84.8c-0.1-0.2-0.3-0.4-0.4-0.6l0.1-0.1c0.2,0.2,0.3,0.4,0.5,0.6L132.5,84.8z M131.2,84.5h-1.4v-0.2
						h1.4V84.5z M131.6,86.8c-0.6,0.1-1.2,0.2-1.9,0.3v-0.2h0.2v-1.5h0.2v1.5l0.5-0.1v-1.7h0.2v0.6h0.6V86h-0.6v0.9L131.6,86.8
						L131.6,86.8 M131.8,84.1c0,0.4,0,0.6,0,0.8h1v0.2h-1c0,0.5,0.1,1,0.2,1.5c0,0.1,0.2,0.5,0.4,0.5s0.1,0,0.1-0.1
						c0.1-0.2,0.1-0.4,0.1-0.6l0.2,0.1c0,0.2-0.1,0.5-0.2,0.7c-0.1,0.1-0.1,0.1-0.2,0.1c-0.3,0-0.6-0.5-0.6-0.8
						c-0.1-0.4-0.2-0.9-0.2-1.4h-1.9v-0.2h1.9c0-0.2,0-0.6,0-0.8L131.8,84.1"/>
					<path class="st7" d="M132.4,89h-1.1v0.4h1.1V89z M132.4,88.5h-1.1v0.4h1.1V88.5z M130.1,89.4h1V89h-1V89.4z M130.1,88.9h1v-0.4
						h-1V88.9z M132.8,88.1h-1.5v0.3h1.2v1.2h-1.1c0.4,0.4,0.8,0.7,1.3,0.9l-0.1,0.2c-0.6-0.2-1.1-0.5-1.4-1v1.1H131v-1.1
						c-0.4,0.4-0.9,0.8-1.4,1l-0.1-0.2c0.5-0.2,1-0.5,1.3-0.9h-1.1v-1.3h1.2V88h-1.5v-0.2h1.5v-0.3h0.2v0.3h1.5v0.3"/>
					<polygon class="st7" points="131.3,92.1 132.6,92.1 132.6,92.3 131.3,92.3 131.3,93.9 132.8,93.9 132.8,94 129.7,94 
						129.7,93.9 131.1,93.9 131.1,91 131.3,91 					"/>
					<path class="st7" d="M132.5,95.4h-1.3v0.3h1.3V95.4z M132.5,95h-1.3v0.3h1.3V95z M132.8,96.2c-0.2,0.2-0.4,0.4-0.6,0.5
						c0.2,0.3,0.4,0.5,0.7,0.6l-0.1,0.2c-0.4-0.2-0.7-0.6-0.9-1v0.9c0,0.2-0.1,0.3-0.3,0.3h-0.3v-0.2h0.3c0.1,0,0.1,0,0.1-0.1V96
						H131v-1.2h0.5c0.1-0.1,0.1-0.2,0.1-0.3h0.2l-0.1,0.3h0.9V96h-0.8v0.1c0,0.2,0.1,0.3,0.2,0.5c0.2-0.1,0.4-0.3,0.5-0.5
						L132.8,96.2 M130.8,97.4c0.3-0.2,0.5-0.6,0.6-1h-0.5v-0.2h0.7c-0.1,0.5-0.3,0.9-0.7,1.3L130.8,97.4 M130.7,97.1
						c0-0.2-0.1-0.5-0.1-0.7h0.1c0.1,0.2,0.1,0.4,0.2,0.7H130.7 M130.7,94.8c-0.2,0.4-0.4,0.8-0.6,1.2c0,0,0.3,0,0.5,0l-0.1-0.2
						l0.1-0.1c0.1,0.2,0.2,0.4,0.2,0.6l-0.2,0.1l-0.1-0.2h-0.3v1.5H130v-1.5h-0.5V96h0.2l0.2-0.4c-0.1-0.1-0.3-0.3-0.4-0.4l0.1-0.1
						l0.1,0.1c0.1-0.2,0.2-0.5,0.3-0.7l0.2,0.1c0,0.1-0.2,0.5-0.4,0.7l0.2,0.2c0.2-0.3,0.3-0.6,0.4-0.7L130.7,94.8 M129.7,97.3
						c0.1-0.3,0.1-0.6,0.2-0.9h0.2c0,0.3-0.1,0.7-0.2,1L129.7,97.3"/>
					<line class="st49" x1="152.3" y1="77" x2="157.8" y2="66.9"/>
					<line class="st50" x1="152.3" y1="77" x2="157.8" y2="66.9"/>
					<path class="st52" d="M159.5,67.9h-3.3c-0.5,0-0.9-0.4-0.9-0.9s0.4-0.9,0.9-0.9h3.3c0.5,0,0.9,0.4,0.9,0.9S160,67.9,159.5,67.9
						z"/>
					<path class="st53" d="M159.5,67.9h-3.3c-0.5,0-0.9-0.4-0.9-0.9s0.4-0.9,0.9-0.9h3.3c0.5,0,0.9,0.4,0.9,0.9S160,67.9,159.5,67.9
						z"/>
					<path class="st54" d="M159.5,67.9h-3.3c-0.5,0-0.9-0.4-0.9-0.9s0.4-0.9,0.9-0.9h3.3c0.5,0,0.9,0.4,0.9,0.9S160,67.9,159.5,67.9
						"/>
					<path class="st0" d="M157,67c0,0.4-0.3,0.8-0.8,0.8c-0.4,0-0.8-0.3-0.8-0.8s0.3-0.8,0.8-0.8S157,66.5,157,67"/>
					<path class="st0" d="M158.6,67c0,0.4-0.3,0.8-0.8,0.8c-0.4,0-0.8-0.3-0.8-0.8s0.3-0.8,0.8-0.8S158.6,66.5,158.6,67"/>
					<path class="st0" d="M160.2,67c0,0.4-0.3,0.8-0.7,0.8s-0.8-0.3-0.8-0.7c0-0.4,0.3-0.8,0.7-0.8l0,0
						C159.8,66.2,160.2,66.5,160.2,67C160.2,66.9,160.2,67,160.2,67"/>
					<rect x="136.8" y="73.2" class="st0" width="26" height="5.6"/>
					<rect x="136.8" y="73.2" class="st51" width="26" height="5.6"/>
					<path class="st7" d="M139,75.8c0-0.1-0.1-0.3-0.2-0.4h0.2c0.1,0.1,0.1,0.3,0.2,0.4h0.5c0.1-0.1,0.1-0.3,0.2-0.4h0.2
						c-0.1,0.1-0.1,0.3-0.2,0.4h0.5V76h-0.8v0.4h0.8v0.2h-0.8v0.7h-0.2v-0.7h-0.8v-0.2h0.8V76h-0.8v-0.2H139z M139.6,74.2v0.3h1.5
						v0.2h-1.5v0.4h1.3v2c0,0.1-0.1,0.3-0.2,0.3c0,0,0,0-0.1,0H140v-0.2h0.5c0.1,0,0.1,0,0.1-0.1v-1.8h-2.3v2.1h-0.2v-2.3h1.3v-0.3
						h-1.5v-0.2h1.5v-0.3L139.6,74.2"/>
					<path class="st7" d="M144.1,76.1h-1.5V77h1.5V76.1z M143.5,75.1h1v0.2h-1V76h0.8v1.4h-0.2v-0.2h-1.5v0.2h-0.2V76h0.8v-0.6h-1
						v-0.2h1v-0.6c-0.3,0-0.6,0-0.9,0v-0.2c0.6,0,1.3,0,1.9-0.2l0.1,0.2c-0.3,0.1-0.6,0.1-0.8,0.2L143.5,75.1 M142.1,74.8
						c-0.2-0.2-0.4-0.3-0.6-0.4l0.1-0.1c0.2,0.1,0.4,0.2,0.6,0.4L142.1,74.8 M141.4,77.2c0.3-0.4,0.5-0.8,0.7-1.2l0.1,0.1
						c-0.2,0.5-0.4,0.9-0.7,1.3L141.4,77.2 M141.9,75.7c-0.2-0.2-0.4-0.3-0.6-0.4l0.1-0.2c0.2,0.1,0.4,0.2,0.6,0.4L141.9,75.7"/>
					<path class="st7" d="M147.8,75c0,0.6-0.5,1.2-1.1,1.4l-0.1-0.2c0.5-0.1,0.8-0.5,0.9-1l-1.6,0.1v1.3c0,0.4,0.2,0.4,0.5,0.4h0.7
						c0.2,0,0.4,0,0.7,0v0.2c-0.2,0-0.4,0-0.7,0h-0.7c-0.5,0-0.8-0.2-0.8-0.7v-1.3l-0.8,0.1v-0.2l0.8-0.1v-0.8h0.2V75L147.8,75z"/>
					<path class="st7" d="M148.5,77c1.3,0,2.3-0.9,2.6-2.1l0.2,0.1c-0.2,0.6-0.6,1.2-1.1,1.6s-1.1,0.6-1.7,0.6V77z M149.5,75.3
						c-0.3-0.2-0.7-0.4-1.1-0.5l0.1-0.2c0.4,0.1,0.8,0.3,1.1,0.5L149.5,75.3"/>
					<path class="st7" d="M152.8,75.4c0.4,0.2,0.7,0.4,1,0.6c0.3-0.3,0.5-0.7,0.5-1.2h-1.5c-0.3,0.4-0.6,0.7-1,0.9l-0.1-0.2
						c0.6-0.3,1-0.8,1.3-1.4h0.2c-0.1,0.1-0.1,0.3-0.2,0.4h1.6c-0.2,1.3-1.2,2.4-2.5,2.6l-0.1-0.2c0.6-0.1,1.2-0.4,1.6-0.9
						c-0.3-0.2-0.6-0.5-1-0.6L152.8,75.4z"/>
					<rect x="155.1" y="75.7" class="st7" width="3.1" height="0.2"/>
					<path class="st7" d="M159.6,75.8c0-0.1-0.1-0.3-0.2-0.4h0.2c0.1,0.2,0.1,0.3,0.2,0.4h0.5c0.1-0.1,0.1-0.3,0.2-0.4h0.2
						c-0.1,0.1-0.1,0.3-0.2,0.4h0.5V76h-0.8v0.4h0.8v0.2h-0.8v0.7H160v-0.7h-0.8v-0.2h0.8V76h-0.8v-0.2H159.6z M160.2,74.2v0.3h1.5
						v0.2h-1.5v0.4h1.3v2c0,0.1-0.1,0.3-0.2,0.3c0,0,0,0-0.1,0h-0.5v-0.2h0.5c0.1,0,0.1,0,0.1-0.1v-1.8H159v2.1h-0.2v-2.3h1.2v-0.3
						h-1.5v-0.2h1.5v-0.3L160.2,74.2"/>
					<path class="st7" d="M139,75.8c0-0.1-0.1-0.3-0.2-0.4h0.2c0.1,0.1,0.1,0.3,0.2,0.4h0.5c0.1-0.1,0.1-0.3,0.2-0.4h0.2
						c-0.1,0.1-0.1,0.3-0.2,0.4h0.5V76h-0.8v0.4h0.8v0.2h-0.8v0.7h-0.2v-0.7h-0.8v-0.2h0.8V76h-0.8v-0.2H139z M139.6,74.2v0.3h1.5
						v0.2h-1.5v0.4h1.3v2c0,0.1-0.1,0.3-0.2,0.3c0,0,0,0-0.1,0H140v-0.2h0.5c0.1,0,0.1,0,0.1-0.1v-1.8h-2.3v2.1h-0.2v-2.3h1.3v-0.3
						h-1.5v-0.2h1.5v-0.3L139.6,74.2"/>
					<path class="st7" d="M144.1,76.1h-1.5V77h1.5V76.1z M143.5,75.1h1v0.2h-1V76h0.8v1.4h-0.2v-0.2h-1.5v0.2h-0.2V76h0.8v-0.6h-1
						v-0.2h1v-0.6c-0.3,0-0.6,0-0.9,0v-0.2c0.6,0,1.3,0,1.9-0.2l0.1,0.2c-0.3,0.1-0.6,0.1-0.8,0.2L143.5,75.1 M142.1,74.8
						c-0.2-0.2-0.4-0.3-0.6-0.4l0.1-0.1c0.2,0.1,0.4,0.2,0.6,0.4L142.1,74.8 M141.4,77.2c0.3-0.4,0.5-0.8,0.7-1.2l0.1,0.1
						c-0.2,0.5-0.4,0.9-0.7,1.3L141.4,77.2 M141.9,75.7c-0.2-0.2-0.4-0.3-0.6-0.4l0.1-0.2c0.2,0.1,0.4,0.2,0.6,0.4L141.9,75.7"/>
					<path class="st7" d="M147.8,75c0,0.6-0.5,1.2-1.1,1.4l-0.1-0.2c0.5-0.1,0.8-0.5,0.9-1l-1.6,0.1v1.3c0,0.4,0.2,0.4,0.5,0.4h0.7
						c0.2,0,0.4,0,0.7,0v0.2c-0.2,0-0.4,0-0.7,0h-0.7c-0.5,0-0.8-0.2-0.8-0.7v-1.3l-0.8,0.1v-0.2l0.8-0.1v-0.8h0.2V75L147.8,75z"/>
					<path class="st7" d="M148.5,77c1.3,0,2.3-0.9,2.6-2.1l0.2,0.1c-0.2,0.6-0.6,1.2-1.1,1.6s-1.1,0.6-1.7,0.6V77z M149.5,75.3
						c-0.3-0.2-0.7-0.4-1.1-0.5l0.1-0.2c0.4,0.1,0.8,0.3,1.1,0.5L149.5,75.3"/>
					<path class="st7" d="M152.8,75.4c0.4,0.2,0.7,0.4,1,0.6c0.3-0.3,0.5-0.7,0.5-1.2h-1.5c-0.3,0.4-0.6,0.7-1,0.9l-0.1-0.2
						c0.6-0.3,1-0.8,1.3-1.4h0.2c-0.1,0.1-0.1,0.3-0.2,0.4h1.6c-0.2,1.3-1.2,2.4-2.5,2.6l-0.1-0.2c0.6-0.1,1.2-0.4,1.6-0.9
						c-0.3-0.2-0.6-0.5-1-0.6L152.8,75.4z"/>
					<rect x="155.1" y="75.7" class="st7" width="3.1" height="0.2"/>
					<path class="st7" d="M159.6,75.8c0-0.1-0.1-0.3-0.2-0.4h0.2c0.1,0.2,0.1,0.3,0.2,0.4h0.5c0.1-0.1,0.1-0.3,0.2-0.4h0.2
						c-0.1,0.1-0.1,0.3-0.2,0.4h0.5V76h-0.8v0.4h0.8v0.2h-0.8v0.7H160v-0.7h-0.8v-0.2h0.8V76h-0.8v-0.2H159.6z M160.2,74.2v0.3h1.5
						v0.2h-1.5v0.4h1.3v2c0,0.1-0.1,0.3-0.2,0.3c0,0,0,0-0.1,0h-0.5v-0.2h0.5c0.1,0,0.1,0,0.1-0.1v-1.8H159v2.1h-0.2v-2.3h1.2v-0.3
						h-1.5v-0.2h1.5v-0.3L160.2,74.2"/>
					<polygon class="st7" points="179.9,61.2 183,79.8 178.1,80.2 					"/>
					<rect x="169.6" y="75.6" class="st7" width="48" height="11.4"/>
					<path class="st0" d="M174.4,80.2l-0.1,0.1c-0.1,1.4-0.8,2.7-2.1,3.5c-0.1-0.1-0.3-0.2-0.4-0.3c1.2-0.7,2-1.9,2-3.3L174.4,80.2z
						 M177,79.2L177,79.2c-0.4,0.8-1,1.5-1.6,2c-0.1-0.1-0.3-0.2-0.4-0.2c0.6-0.4,1-0.9,1.3-1.5h-4.7V79h4.9h0.1L177,79.2"/>
					<path class="st0" d="M180.7,81.9l0.2,1.9h-0.5l-0.2-1.8l-2.5,0.3l-0.1-0.4l2.5-0.3l-0.1-1.3l-2.1,0.2v-0.4l2.1-0.2l-0.1-1.2
						h0.6c0,0.1,0,0.1-0.1,0.1l0.1,1l2-0.2l0.1,0.4l-2,0.2l0.2,1.3l2.5-0.3l0.1,0.4L180.7,81.9z"/>
					<path class="st0" d="M189.3,83.6c-0.1-0.2-0.2-0.4-0.4-0.6c-1.4,0.1-3.6,0.2-4.6,0.3c0,0.1-0.1,0.1-0.1,0.1l-0.2-0.5h0.7
						c0.4-1.1,1.1-2.9,1.4-4.1l0.6,0.2c0,0.1-0.1,0.1-0.2,0.1c-0.4,1.1-0.9,2.7-1.4,3.8c1.1,0,2.6-0.1,3.5-0.2
						c-0.3-0.5-0.7-1-1.2-1.5L188,81c0.7,0.7,1.3,1.6,1.8,2.5L189.3,83.6z"/>
					<path class="st0" d="M196.3,81.4h-1.4c0.4,0.7,0.9,1.3,1.6,1.8c-0.1,0.1-0.2,0.2-0.3,0.3c-0.6-0.5-1.1-1.1-1.5-1.8V84h-0.4
						v-2.3c-0.4,0.7-1,1.4-1.6,1.8c-0.1-0.1-0.2-0.2-0.3-0.3c0.7-0.5,1.3-1.1,1.7-1.9h-1.5V81h1.7v-1h-0.9c-0.1,0.3-0.2,0.6-0.4,0.9
						c-0.1-0.1-0.2-0.1-0.4-0.2c0.3-0.6,0.6-1.3,0.7-2l0.5,0.1l-0.1,0.1c0,0.2-0.1,0.4-0.2,0.7h0.8v-1.1h0.6c0,0,0,0.1-0.1,0.1v1
						h1.4V80h-1.4v1h1.6L196.3,81.4z M191.7,80.6c0.2,0.2,0.8,0.9,0.9,1.1l-0.2,0.3c-0.2-0.3-0.4-0.6-0.6-0.9V84h-0.4v-3
						c-0.2,0.6-0.5,1.3-0.9,1.8c-0.1-0.1-0.1-0.2-0.2-0.3c0.5-0.7,0.9-1.5,1.1-2.3h-0.9v-0.4h1v-1.3h0.5c0,0,0,0.1-0.1,0.1v1.2h0.8
						v0.4h-0.8L191.7,80.6"/>
					<path class="st0" d="M201.6,78.5c0.4,0.2,0.7,0.5,1,0.7l-0.3,0.3c-0.3-0.3-0.6-0.6-1-0.8L201.6,78.5z M198.8,81.3v1.8l1.5-0.3
						v0.3c-1.1,0.3-2.3,0.5-3.1,0.7c0,0,0,0.1-0.1,0.1l-0.2-0.5l1.4-0.3v-1.9h-1.2V81h2.9v0.4L198.8,81.3 M202.8,80h-2
						c0.2,1.9,0.7,3.6,1.4,3.6c0.2,0,0.3-0.3,0.3-1.2c0.1,0.1,0.3,0.2,0.4,0.2c-0.1,1-0.3,1.3-0.7,1.3c-1.1,0-1.6-1.8-1.8-4H197
						v-0.4h3.4c0-0.4,0-0.7,0-1.1h0.6c0,0.1,0,0.1-0.1,0.1c0,0.3,0,0.7,0,1h2L202.8,80"/>
					<path class="st0" d="M204.8,80.3h3.2v0.4h-3.2V80.3z M203.7,81.9v-0.4h5.5v0.4H206h0.1c0,0-0.1,0.1-0.2,0.1
						c-0.2,0.4-0.5,0.9-0.8,1.4l2.9-0.1c-0.3-0.3-0.6-0.6-1-0.9l0.4-0.2c0.6,0.5,1.1,1,1.6,1.6l-0.4,0.2c-0.1-0.1-0.2-0.3-0.3-0.4
						c-1.6,0.1-3.3,0.1-4.3,0.2l-0.1,0.1l-0.2-0.5h1c0.3-0.5,0.6-1,0.8-1.5L203.7,81.9 M206.8,78.5l-0.1,0.1c0.8,0.9,1.8,1.6,2.9,2
						c-0.1,0.1-0.2,0.2-0.3,0.4c-1.1-0.5-2.1-1.2-2.9-2.1c-0.8,0.9-1.7,1.6-2.8,2.1c-0.1-0.1-0.2-0.2-0.3-0.3
						c1.1-0.5,2.1-1.2,2.8-2.2H206.8"/>
					<path class="st0" d="M214.5,83.4h1.5v0.4h-3.8v-0.4h1.8v-2.6h-1.4v-0.4h1.4v-1.9h0.6c0,0,0,0.1-0.1,0.1v1.8h1.4v0.4h-1.4V83.4z
						 M212.6,79.7L212.6,79.7c-0.3,0.6-0.6,1-1,1.5c0.3,0.2,1,0.6,1.1,0.7l-0.2,0.3c-0.2-0.2-0.6-0.5-0.9-0.7V84h-0.4v-2.3
						c-0.3,0.3-0.6,0.6-1,0.8c-0.1-0.1-0.1-0.3-0.2-0.4c0.9-0.5,1.6-1.2,2.2-2.1h-2v-0.4h1.1v-1.1h0.6c0,0,0,0.1-0.1,0.1v1
						L212.6,79.7L212.6,79.7L212.6,79.7"/>
					<path class="st7" d="M161.1,143c0.3-0.1,0.6-0.3,0.9-0.6c-0.3-0.3-0.4-0.7-0.5-1.2l0.2-0.1c0.1,0.4,0.2,0.7,0.5,1.1
						c0.3-0.4,0.5-0.8,0.5-1.2h-1.4v0.4c0,0.6-0.2,1.3-0.6,1.7l-0.2-0.1c0.5-0.4,0.7-1,0.6-1.6V140h2v0.2h-1.8v0.7h1.6
						c-0.1,0.6-0.3,1.1-0.6,1.6c0.2,0.2,0.5,0.5,0.8,0.6l-0.1,0.2c-0.3-0.2-0.6-0.4-0.8-0.6c-0.3,0.3-0.6,0.5-0.9,0.6L161.1,143z
						 M160.9,142.4c-0.4,0.2-0.8,0.3-1.2,0.4v-0.2l0.6-0.1V141h-0.5v-0.2h0.5v-0.9h0.2v0.9h0.5v0.2h-0.5v1.4l0.5-0.1L160.9,142.4"/>
					<path class="st7" d="M166,142.2h-0.8v0.4h0.8V142.2z M166.1,141h-1v0.3h1V141z M165.4,140.5c-0.1,0.1-0.2,0.2-0.3,0.3h1
						c-0.1-0.1-0.2-0.2-0.2-0.3H165.4 M166.2,142.8H165v-0.7h1.1L166.2,142.8z M166.7,143c0,0.2-0.1,0.2-0.3,0.2h-0.3V143h0.3
						c0.1,0,0.1,0,0.1-0.1v-1h-1.7v1.4h-0.2v-1.5h2.1L166.7,143 M164.5,141.1c0.3-0.1,0.6-0.4,0.8-0.6h-0.7v-0.2h0.8l0.1-0.3h-0.8
						l-0.1-0.2c0.6,0,1.2,0,1.8-0.1l0.1,0.2c-0.3,0-0.6,0.1-0.9,0.1c0,0.1-0.1,0.1-0.1,0.3h1.3v0.2h-0.7c0.2,0.3,0.5,0.5,0.8,0.6
						l-0.1,0.1c-0.2-0.1-0.4-0.1-0.5-0.3v0.4H165V141c-0.1,0.1-0.3,0.2-0.4,0.3L164.5,141.1 M164.5,141.8c-0.1-0.1-0.2-0.3-0.3-0.4
						v1.8H164v-1.9c-0.1,0.3-0.2,0.6-0.4,0.9l-0.1-0.2c0.3-0.4,0.4-0.8,0.5-1.2h-0.5v-0.2h0.5v-0.8h0.2v0.8h0.4v0.2h-0.4v0.2
						c0.1,0.2,0.2,0.5,0.4,0.6L164.5,141.8"/>
					<path class="st7" d="M161.1,143c0.3-0.1,0.6-0.3,0.9-0.6c-0.3-0.3-0.4-0.7-0.5-1.2l0.2-0.1c0.1,0.4,0.2,0.7,0.5,1.1
						c0.3-0.4,0.5-0.8,0.5-1.2h-1.4v0.4c0,0.6-0.2,1.3-0.6,1.7l-0.2-0.1c0.5-0.4,0.7-1,0.6-1.6V140h2v0.2h-1.8v0.7h1.6
						c-0.1,0.6-0.3,1.1-0.6,1.6c0.2,0.2,0.5,0.5,0.8,0.6l-0.1,0.2c-0.3-0.2-0.6-0.4-0.8-0.6c-0.3,0.3-0.6,0.5-0.9,0.6L161.1,143z
						 M160.9,142.4c-0.4,0.2-0.8,0.3-1.2,0.4v-0.2l0.6-0.1V141h-0.5v-0.2h0.5v-0.9h0.2v0.9h0.5v0.2h-0.5v1.4l0.5-0.1L160.9,142.4"/>
					<path class="st7" d="M166,142.2h-0.8v0.4h0.8V142.2z M166.1,141h-1v0.3h1V141z M165.4,140.5c-0.1,0.1-0.2,0.2-0.3,0.3h1
						c-0.1-0.1-0.2-0.2-0.2-0.3H165.4 M166.2,142.8H165v-0.7h1.1L166.2,142.8z M166.7,143c0,0.2-0.1,0.2-0.3,0.2h-0.3V143h0.3
						c0.1,0,0.1,0,0.1-0.1v-1h-1.7v1.4h-0.2v-1.5h2.1L166.7,143 M164.5,141.1c0.3-0.1,0.6-0.4,0.8-0.6h-0.7v-0.2h0.8l0.1-0.3h-0.8
						l-0.1-0.2c0.6,0,1.2,0,1.8-0.1l0.1,0.2c-0.3,0-0.6,0.1-0.9,0.1c0,0.1-0.1,0.1-0.1,0.3h1.3v0.2h-0.7c0.2,0.3,0.5,0.5,0.8,0.6
						l-0.1,0.1c-0.2-0.1-0.4-0.1-0.5-0.3v0.4H165V141c-0.1,0.1-0.3,0.2-0.4,0.3L164.5,141.1 M164.5,141.8c-0.1-0.1-0.2-0.3-0.3-0.4
						v1.8H164v-1.9c-0.1,0.3-0.2,0.6-0.4,0.9l-0.1-0.2c0.3-0.4,0.4-0.8,0.5-1.2h-0.5v-0.2h0.5v-0.8h0.2v0.8h0.4v0.2h-0.4v0.2
						c0.1,0.2,0.2,0.5,0.4,0.6L164.5,141.8"/>
					<path class="st56" d="M161.1,143c0.3-0.1,0.6-0.3,0.9-0.6c-0.3-0.3-0.4-0.7-0.5-1.2l0.2-0.1c0.1,0.4,0.2,0.7,0.5,1.1
						c0.3-0.4,0.5-0.8,0.5-1.2h-1.4v0.4c0,0.6-0.2,1.3-0.6,1.7l-0.2-0.1c0.5-0.4,0.7-1,0.6-1.6V140h2v0.2h-1.8v0.7h1.6
						c-0.1,0.6-0.3,1.1-0.6,1.6c0.2,0.2,0.5,0.5,0.8,0.6l-0.1,0.2c-0.3-0.2-0.6-0.4-0.8-0.6c-0.3,0.3-0.6,0.5-0.9,0.6L161.1,143z
						 M160.9,142.4c-0.4,0.2-0.8,0.3-1.2,0.4v-0.2l0.6-0.1V141h-0.5v-0.2h0.5v-0.9h0.2v0.9h0.5v0.2h-0.5v1.4l0.5-0.1L160.9,142.4"/>
					<path class="st56" d="M166,142.2h-0.8v0.4h0.8V142.2z M166.1,141h-1v0.3h1V141z M165.4,140.5c-0.1,0.1-0.2,0.2-0.3,0.3h1
						c-0.1-0.1-0.2-0.2-0.2-0.3H165.4 M166.2,142.8H165v-0.7h1.1L166.2,142.8z M166.7,143c0,0.2-0.1,0.2-0.3,0.2h-0.3V143h0.3
						c0.1,0,0.1,0,0.1-0.1v-1h-1.7v1.4h-0.2v-1.5h2.1L166.7,143 M164.5,141.1c0.3-0.1,0.6-0.4,0.8-0.6h-0.7v-0.2h0.8l0.1-0.3h-0.8
						l-0.1-0.2c0.6,0,1.2,0,1.8-0.1l0.1,0.2c-0.3,0-0.6,0.1-0.9,0.1c0,0.1-0.1,0.1-0.1,0.3h1.3v0.2h-0.7c0.2,0.3,0.5,0.5,0.8,0.6
						l-0.1,0.1c-0.2-0.1-0.4-0.1-0.5-0.3v0.4H165V141c-0.1,0.1-0.3,0.2-0.4,0.3L164.5,141.1 M164.5,141.8c-0.1-0.1-0.2-0.3-0.3-0.4
						v1.8H164v-1.9c-0.1,0.3-0.2,0.6-0.4,0.9l-0.1-0.2c0.3-0.4,0.4-0.8,0.5-1.2h-0.5v-0.2h0.5v-0.8h0.2v0.8h0.4v0.2h-0.4v0.2
						c0.1,0.2,0.2,0.5,0.4,0.6L164.5,141.8"/>
					<path class="st56" d="M161.1,143c0.3-0.1,0.6-0.3,0.9-0.6c-0.3-0.3-0.4-0.7-0.5-1.2l0.2-0.1c0.1,0.4,0.2,0.7,0.5,1.1
						c0.3-0.4,0.5-0.8,0.5-1.2h-1.4v0.4c0,0.6-0.2,1.3-0.6,1.7l-0.2-0.1c0.5-0.4,0.7-1,0.6-1.6V140h2v0.2h-1.8v0.7h1.6
						c-0.1,0.6-0.3,1.1-0.6,1.6c0.2,0.2,0.5,0.5,0.8,0.6l-0.1,0.2c-0.3-0.2-0.6-0.4-0.8-0.6c-0.3,0.3-0.6,0.5-0.9,0.6L161.1,143z
						 M160.9,142.4c-0.4,0.2-0.8,0.3-1.2,0.4v-0.2l0.6-0.1V141h-0.5v-0.2h0.5v-0.9h0.2v0.9h0.5v0.2h-0.5v1.4l0.5-0.1L160.9,142.4"/>
					<path class="st56" d="M166,142.2h-0.8v0.4h0.8V142.2z M166.1,141h-1v0.3h1V141z M165.4,140.5c-0.1,0.1-0.2,0.2-0.3,0.3h1
						c-0.1-0.1-0.2-0.2-0.2-0.3H165.4 M166.2,142.8H165v-0.7h1.1L166.2,142.8z M166.7,143c0,0.2-0.1,0.2-0.3,0.2h-0.3V143h0.3
						c0.1,0,0.1,0,0.1-0.1v-1h-1.7v1.4h-0.2v-1.5h2.1L166.7,143 M164.5,141.1c0.3-0.1,0.6-0.4,0.8-0.6h-0.7v-0.2h0.8l0.1-0.3h-0.8
						l-0.1-0.2c0.6,0,1.2,0,1.8-0.1l0.1,0.2c-0.3,0-0.6,0.1-0.9,0.1c0,0.1-0.1,0.1-0.1,0.3h1.3v0.2h-0.7c0.2,0.3,0.5,0.5,0.8,0.6
						l-0.1,0.1c-0.2-0.1-0.4-0.1-0.5-0.3v0.4H165V141c-0.1,0.1-0.3,0.2-0.4,0.3L164.5,141.1 M164.5,141.8c-0.1-0.1-0.2-0.3-0.3-0.4
						v1.8H164v-1.9c-0.1,0.3-0.2,0.6-0.4,0.9l-0.1-0.2c0.3-0.4,0.4-0.8,0.5-1.2h-0.5v-0.2h0.5v-0.8h0.2v0.8h0.4v0.2h-0.4v0.2
						c0.1,0.2,0.2,0.5,0.4,0.6L164.5,141.8"/>
					<path class="st56" d="M161.1,143c0.3-0.1,0.6-0.3,0.9-0.6c-0.3-0.3-0.4-0.7-0.5-1.2l0.2-0.1c0.1,0.4,0.2,0.7,0.5,1.1
						c0.3-0.4,0.5-0.8,0.5-1.2h-1.4v0.4c0,0.6-0.2,1.3-0.6,1.7l-0.2-0.1c0.5-0.4,0.7-1,0.6-1.6V140h2v0.2h-1.8v0.7h1.6
						c-0.1,0.6-0.3,1.1-0.6,1.6c0.2,0.2,0.5,0.5,0.8,0.6l-0.1,0.2c-0.3-0.2-0.6-0.4-0.8-0.6c-0.3,0.3-0.6,0.5-0.9,0.6L161.1,143z
						 M160.9,142.4c-0.4,0.2-0.8,0.3-1.2,0.4v-0.2l0.6-0.1V141h-0.5v-0.2h0.5v-0.9h0.2v0.9h0.5v0.2h-0.5v1.4l0.5-0.1L160.9,142.4"/>
					<path class="st7" d="M192.7,125.8c0.2,0.1,0.3,0.3,0.4,0.5l-0.2,0.1c-0.1-0.2-0.2-0.4-0.4-0.5L192.7,125.8z M191.1,128.4
						l0.3-0.1v-1.8h0.7c0-0.2,0-0.5,0-0.7h0.3c0,0,0,0-0.1,0.1c0,0.2,0,0.4,0,0.6h0.9v0.2h-0.8c0,0.4,0.1,0.8,0.1,1.2
						c0.2-0.3,0.3-0.6,0.4-0.9l0.3,0.1c0,0,0,0-0.1,0c-0.1,0.4-0.3,0.7-0.5,1c0.1,0.3,0.2,0.4,0.3,0.4s0.1-0.2,0.1-0.6
						c0.1,0.1,0.1,0.1,0.2,0.1c0,0.6-0.1,0.7-0.4,0.7s-0.3-0.2-0.5-0.4c-0.1,0.2-0.3,0.3-0.4,0.4l-0.2-0.1c0.2-0.2,0.4-0.3,0.5-0.6
						c-0.1-0.5-0.2-0.9-0.2-1.4h-0.5v1.5l0.5-0.2v0.2c-0.4,0.2-0.7,0.4-0.9,0.5c0,0,0,0,0,0.1L191.1,128.4 M190.6,128v0.8
						c0.3,0.1,0.7,0.2,1,0.2h1.6c0,0.1-0.1,0.2-0.1,0.3h-1.5c-0.9,0-1.4-0.2-1.7-0.8c0,0.3-0.1,0.6-0.3,0.9c0-0.1-0.1-0.1-0.2-0.2
						c0.3-0.5,0.4-1.1,0.3-1.7h0.3c0,0,0,0-0.1,0.1s0,0.3,0,0.5c0.1,0.3,0.2,0.5,0.4,0.7v-1.4h-0.8V127h0.8v-0.5h-0.6v-0.2h0.6v-0.5
						h0.3c0,0,0,0-0.1,0.1v0.4h0.6v0.2h-0.6v0.5h0.7v0.2h-0.6v0.6h0.6v0.2L190.6,128"/>
					<path class="st7" d="M197.2,126L197.2,126c0.1,0.9,0,1.7-0.2,2.5c-0.1,0.1-0.2,0.1-0.4,0.1h-0.4c0-0.1,0-0.2-0.1-0.3h0.5
						c0.1,0,0.1,0,0.1-0.1c0.2-0.7,0.2-1.4,0.2-2.1H196c0.1,0.9-0.3,1.8-1,2.5c-0.1-0.1-0.1-0.1-0.2-0.2c0.7-0.6,1-1.4,0.9-2.3h-0.9
						V126H197.2L197.2,126z M194.1,125.8c0.3,0.2,0.5,0.4,0.7,0.6l-0.2,0.2c-0.2-0.3-0.4-0.5-0.7-0.6L194.1,125.8 M194.7,127.3v1.3
						c0.3,0.5,0.9,0.5,1.6,0.5c0.4,0,0.9,0,1.2,0c0,0.1-0.1,0.2-0.1,0.3h-1.1c-0.8,0-1.4,0-1.8-0.5c-0.2,0.2-0.4,0.3-0.6,0.5
						c0,0,0,0,0,0.1l-0.2-0.3c0.2-0.1,0.4-0.3,0.6-0.5v-1.1h-0.6v-0.2h1"/>
					<path class="st7" d="M201.2,126h0.4c0,0,0,0-0.1,0.1v3.4h-0.3L201.2,126L201.2,126z M199.8,126.1h0.4h-0.1v2.9h-0.3
						L199.8,126.1 M198.5,125.9h0.4c0,0,0,0-0.1,0v1.3c0.1,0.8-0.1,1.5-0.6,2.1c-0.1-0.1-0.1-0.1-0.2-0.2c0.4-0.6,0.6-1.2,0.5-1.9
						L198.5,125.9"/>
					<path class="st57" d="M157.8,142h-1.3v0.4h1.3V142z M158,142.6h-1.6v-0.7h1.6V142.6z M158.1,140.6h-1.8v0.4h1.8V140.6z
						 M158.3,141.2h-2.2v-0.7h2.2V141.2z M158.7,142.9c0,0.1-0.1,0.2-0.2,0.2c0,0,0,0-0.1,0h-0.6v-0.2h0.5c0,0,0.1,0,0.1-0.1v-1.1
						h-2.6v1.5h-0.2v-1.7h3.1V142.9 M158.9,140.2h-3.4V140h1.6v-0.3h0.2v0.3h1.6L158.9,140.2"/>
					<path class="st57" d="M160.6,142.9c0.3-0.1,0.6-0.3,0.9-0.6c-0.3-0.3-0.4-0.7-0.5-1.2l0.2-0.1c0.1,0.4,0.2,0.8,0.5,1.1
						c0.3-0.4,0.5-0.8,0.5-1.2h-1.4v0.4c0,0.6-0.2,1.3-0.6,1.7l-0.2,0c0.5-0.4,0.7-1,0.6-1.6v-1.5h2v0.2h-1.8v0.7h1.6
						c-0.1,0.6-0.3,1.1-0.6,1.6c0.2,0.2,0.5,0.4,0.8,0.6l-0.1,0.2c-0.3-0.2-0.6-0.4-0.8-0.6c-0.3,0.3-0.6,0.5-0.9,0.6L160.6,142.9z
						 M160.4,142.2c-0.4,0.2-0.8,0.3-1.2,0.4v-0.2l0.6-0.1v-1.4h-0.5v-0.2h0.5v-0.9h0.2v0.9h0.5v0.2H160v1.4l0.5-0.2L160.4,142.2"/>
					<path class="st57" d="M165.5,142.1h-0.8v0.4h0.8V142.1z M165.6,140.9h-1v0.3h1V140.9z M164.9,140.4c-0.1,0.1-0.2,0.2-0.3,0.3h1
						c-0.1-0.1-0.2-0.2-0.2-0.3H164.9 M165.7,142.7h-1.1V142h1.1V142.7z M166.2,142.9c0,0.2-0.1,0.2-0.3,0.2h-0.2l-0.1-0.2h0.3
						c0.1,0,0.1,0,0.1-0.1v-1h-1.7v1.4h-0.2v-1.5h2.1L166.2,142.9 M163.9,141c0.3-0.1,0.6-0.4,0.8-0.6H164v-0.2h0.8
						c0.1-0.1,0.1-0.2,0.1-0.3h-0.8l-0.1-0.2c0.6,0,1.2,0,1.8-0.1l0.1,0.2c-0.3,0-0.6,0.1-0.9,0.1c0,0.1-0.1,0.1-0.1,0.3h1.3v0.2
						h-0.7c0.2,0.3,0.5,0.5,0.8,0.6l-0.1,0.1c-0.2-0.1-0.3-0.2-0.5-0.3v0.4h-1.3V141c-0.1,0.1-0.3,0.2-0.4,0.3L163.9,141
						 M163.9,141.7c-0.1-0.1-0.2-0.3-0.3-0.4v1.8h-0.2v-1.9c-0.1,0.3-0.2,0.6-0.4,0.9l-0.1-0.2c0.3-0.4,0.5-0.8,0.5-1.2h-0.5v-0.2
						h0.5v-0.8h0.2v0.8h0.4v0.2h-0.4v0.2c0.1,0.2,0.2,0.5,0.4,0.6L163.9,141.7"/>
				</g>
			</g>
		</g>
	</g>
</g>
<g>
	<path class="st7" d="M51.9,79.5h1.5v-0.6h-1.5V79.5z M51.9,78.6h1.5v-0.6h-1.5V78.6z M51.6,78.9h-1.5v0.6h1.5V78.9z M51.6,78.1
		h-1.5v0.6h1.5V78.1z M51.9,81.7h-0.3v-1.8c-0.7,0.8-1.4,1.3-2.3,1.7c-0.1-0.1-0.2-0.2-0.3-0.3c0.4-0.1,1.4-0.5,2.3-1.5h-1.5v-2h1.8
		v-0.5H49V77h2.6v-0.8l0.3,0c0.1,0,0.2,0,0.2,0.1c0,0,0,0.1-0.2,0.1V77h2.6v0.3h-2.6v0.5h1.8v2h-1.6c0.7,0.7,1.5,1.1,2.4,1.5
		c-0.1,0.1-0.2,0.2-0.2,0.3c-1.3-0.6-1.9-1.2-2.4-1.7V81.7"/>
	<path class="st7" d="M54,83.5c-0.2-0.3-0.5-0.8-0.7-1l0.2-0.2c0.3,0.4,0.7,0.9,0.8,1C54.1,83.3,54,83.4,54,83.5 M49.5,82.8h2.4v0.3
		h-2.4V82.8z M53.9,87.6c-0.4,0-0.7-0.5-1-1.2c-0.4-1-0.5-1.9-0.5-2.4h-3.2v-0.3h3.2c0-0.5,0-0.8,0-1.5l0.4,0c0,0,0.1,0,0.1,0.1
		c0,0.1-0.1,0.1-0.1,0.1c0,0.9,0,1,0,1.3h1.9V84h-1.9c0.2,2,0.9,3.3,1.2,3.3c0.2,0,0.4-0.6,0.4-1.2c0.1,0.1,0.2,0.1,0.3,0.2
		C54.5,87.1,54.2,87.6,53.9,87.6 M52.2,86.7C52.2,86.7,52.2,86.8,52.2,86.7c-0.8,0.3-1.8,0.5-2.8,0.7c0,0.1-0.1,0.2-0.1,0.2
		c0,0-0.1,0-0.1-0.1l-0.1-0.4c0.2,0,0.3,0,0.5-0.1v-2.4l0.3,0c0.1,0,0.2,0,0.2,0.1c0,0.1-0.1,0.1-0.2,0.1V87c0.2,0,0.4-0.1,0.7-0.1
		v-2.6l0.4,0c0,0,0.1,0,0.1,0.1c0,0.1-0.1,0.1-0.2,0.1v0.8h1.1v0.3H51v1.2c0.2,0,1.1-0.3,1.3-0.3C52.2,86.5,52.2,86.6,52.2,86.7"/>
	<path class="st7" d="M51.9,91.4h1.5v-0.6h-1.5V91.4z M51.9,90.6h1.5V90h-1.5V90.6z M51.6,90.8h-1.5v0.6h1.5V90.8z M51.6,90h-1.5
		v0.6h1.5V90z M51.9,93.6h-0.3v-1.8c-0.7,0.8-1.4,1.3-2.3,1.7c-0.1-0.1-0.2-0.2-0.3-0.3c0.4-0.1,1.4-0.5,2.3-1.5h-1.5v-2h1.8v-0.5
		H49v-0.3h2.6v-0.8l0.3,0c0.1,0,0.2,0,0.2,0.1c0,0,0,0.1-0.2,0.1v0.5h2.6v0.3h-2.6v0.5h1.8v2h-1.6c0.7,0.7,1.5,1.1,2.4,1.5
		c-0.1,0.1-0.2,0.2-0.2,0.3c-1.3-0.6-1.9-1.2-2.4-1.7V93.6"/>
	<path class="st7" d="M49,99.2v-0.3h2.4v-4.7l0.4,0c0.1,0,0.2,0,0.2,0.1c0,0.1-0.1,0.1-0.2,0.1v1.8h2.3v0.3h-2.3v2.4h2.7v0.3H49z"/>
	<path class="st7" d="M53.8,101.8h-1.8v0.6h1.8V101.8z M53.8,101h-1.8v0.6h1.8V101z M54.4,105.3c-0.8-0.8-1.2-1.5-1.3-1.8v1.1
		c0,0.4,0,0.5-0.1,0.6c-0.1,0.2-0.5,0.2-0.9,0.2c0-0.1,0-0.2-0.1-0.3c0.2,0,0.3,0,0.4,0c0.3,0,0.3-0.1,0.3-0.3v-2.2h-1v-1.9h0.8
		c0.2-0.3,0.2-0.4,0.3-0.7l0.3,0c0.1,0,0.1,0,0.1,0.1c0,0.1-0.1,0.1-0.1,0.1c-0.1,0.2-0.2,0.4-0.3,0.5h1.4v1.9h-1v0.4
		c0.1,0.2,0.1,0.3,0.3,0.6c0.3-0.3,0.5-0.5,0.8-0.7l0.2,0.2c0.1,0.1,0.1,0.1,0.1,0.1c0,0,0,0.1-0.1,0.1c0,0,0,0-0.1,0
		c-0.2,0.2-0.5,0.5-0.8,0.6c0.4,0.7,0.9,1.1,1.1,1.2C54.5,105.2,54.5,105.2,54.4,105.3 M51.4,105.4c-0.1-0.1-0.1-0.1-0.3-0.2
		c0.5-0.5,0.8-0.9,1-1.6h-0.8v-0.3h0.9l0.2,0.1C52.5,103.5,52.3,104.4,51.4,105.4 M50.9,104.5c-0.1-0.5-0.2-0.8-0.2-1.2l0.3-0.1
		c0.1,0.4,0.2,0.7,0.3,1.1C51.1,104.4,51,104.4,50.9,104.5 M49.7,103.6c-0.1,0.5-0.1,0.9-0.3,1.3c-0.1-0.1-0.3-0.1-0.3-0.1
		c0.2-0.4,0.3-1,0.4-1.5l0.3,0c0,0,0.1,0,0.1,0.1C49.8,103.6,49.7,103.6,49.7,103.6 M51.1,103.2c0-0.1-0.1-0.2-0.1-0.4
		c-0.2,0-0.3,0.1-0.7,0.1v2.6H50V103c-0.4,0-0.5,0.1-0.8,0.1c0,0,0,0.1-0.1,0.1c0,0-0.1,0-0.1-0.2l0-0.3c0.1,0,0.2,0,0.5,0
		c0.1-0.1,0.1-0.2,0.5-0.7c-0.1-0.1-0.5-0.5-1-0.9l0.2-0.3c0.1,0.1,0.2,0.1,0.4,0.3c0.4-0.6,0.4-0.7,0.7-1.2l0.3,0.1
		c0,0,0.1,0,0.1,0.1c0,0.1-0.1,0.1-0.2,0.1c-0.2,0.4-0.4,0.7-0.7,1.1c0.1,0.1,0.2,0.2,0.4,0.4c0.5-0.7,0.5-0.8,0.7-1.1l0.3,0.1
		c0,0,0.1,0,0.1,0.1c0,0,0,0.1-0.1,0.1c0,0,0,0-0.1,0c-0.7,1.1-1.1,1.6-1.1,1.7c0,0,0.5,0,1.1-0.1c-0.1-0.3-0.2-0.5-0.2-0.5l0.3-0.1
		c0.2,0.5,0.3,0.7,0.5,1.1C51.3,103.1,51.2,103.1,51.1,103.2"/>
</g>
</svg>
