<svg xmlns="http://www.w3.org/2000/svg" viewBox="0 0 51.39 274.6"><defs><style>.cls-1{fill:#d70c18;}</style></defs><title>facility-index</title><g id="レイヤー_2" data-name="レイヤー 2"><g id="top"><g id="contents"><g id="sec-facility"><path class="cls-1" d="M50.76,0V30.38h-7.5V9.17H29.4V27H21.91V9.17H.77V0Z"/><path class="cls-1" d="M10.64,41.78.77,38.56v-10l50,18.14v8.89L.77,73.77V63.83l9.87-3.15Zm29.19,9.45L18,44V58.44Z"/><path class="cls-1" d="M13.79,112.31C4.55,111.82,0,106,0,94.81c0-6.93,2-11.48,6.16-14.49C9.38,78,13.3,77.1,20.37,77.1H31c7.77,0,11.83,1.05,15.12,3.92,3.65,3.15,5.26,7.35,5.26,13.79,0,10.78-4.63,16.31-14.15,16.8l-.63-8.4c5-.63,7.35-3.29,7.35-8.26,0-6.44-3.57-8.68-13.58-8.68H21c-10.08,0-13.58,2.24-13.58,8.82,0,5.11,2.38,8,7.35,8.68Z"/><path class="cls-1" d="M50.76,120.52v9.18H.77v-9.18Z"/><path class="cls-1" d="M50.76,139.84V149H8.26v21.85H.77v-31Z"/><path class="cls-1" d="M50.76,177.8V187H.77V177.8Z"/><path class="cls-1" d="M43.26,207.72V194.06h7.5v36.41h-7.5V216.89H.77v-9.17Z"/><path class="cls-1" d="M18.83,249.89l31.93-15.47v9.66l-22.9,10.43,22.9,10.36v9.73L18.83,259.06H.77v-9.17Z"/></g></g></g></g></svg>