<svg xmlns="http://www.w3.org/2000/svg" viewBox="0 0 838.69 141.53"><defs><style>.cls-1{fill:#d70c18;}</style></defs><title>mv-copy</title><g id="レイヤー_2" data-name="レイヤー 2"><g id="top"><g id="contents"><path class="cls-1" d="M0,.77H16.6C29.43.56,35.54,6.93,35.19,20.16v11.2c.35,13.23-5.69,19.53-18.59,19.39H0ZM15,43.4c8.31.14,11.05-3,11.19-12.74v-9.8C26.07,11.13,23.33,8,15,8.12H9V43.4Z"/><path class="cls-1" d="M44.16.77H74.34V8.26H53.08V21.7h18v7.49h-18V43.26H74.55v7.49H44.16Z"/><path class="cls-1" d="M79.82.77h9L100.2,38.36,111.52.77h9L104,50.75H96.29Z"/><path class="cls-1" d="M127.17.77h30.19V8.26H136.09V21.7h18v7.49h-18V43.26h21.47v7.49H127.17Z"/><path class="cls-1" d="M165.59.77h9V43.26H196v7.49H165.59Z"/><path class="cls-1" d="M201.43,19.81c0-7.35,1.1-11.41,4-14.7C208.77,1.54,212.88,0,219.54,0c7.07,0,11.53,1.82,14.75,6,2.47,3.22,3.36,7,3.36,13.86v11.9c0,7.42-1.1,11.41-4.05,14.7-3.29,3.57-7.47,5.12-14.06,5.12-7.07,0-11.53-1.82-14.75-6-2.4-3.15-3.36-7.07-3.36-13.86Zm27.23.77c0-9.52-2.53-13.16-9.12-13.16s-9.12,3.64-9.12,13.16V30.94c0,9.52,2.53,13.16,9.12,13.16s9.12-3.64,9.12-13.16Z"/><path class="cls-1" d="M255.88,50.75h-9V.77h16.46c6.79,0,10.43,1.12,13.17,4,2.54,2.8,3.64,6.37,3.64,11.9,0,6-1.3,9.87-4.32,12.6-2.68,2.45-6.25,3.43-12.49,3.43h-7.48Zm7.48-25.48c5.63,0,7.89-2.52,7.89-8.61S269,8.12,263.36,8.12h-7.61V25.27Z"/><path class="cls-1" d="M287.7.77h9v50h-9Z"/><path class="cls-1" d="M306.67.77h8.72l19.55,34.58V.77h8.71v50h-8.71L315.39,16.17V50.75h-8.72Z"/><path class="cls-1" d="M371.8,23.31H389v8.4c0,7.14-.9,10.78-3.44,14-3.15,4-7.68,5.82-14.47,5.82-7.34,0-11.87-1.9-15-6.17-2.34-3.15-3.23-7.07-3.23-14.21V20.51c0-7.77,1-11.83,3.91-15.12,3.16-3.64,7.41-5.25,13.79-5.25,10.91,0,16.53,4.69,17,14.14l-8.3.63c-.61-5-3.43-7.35-8.5-7.35-6.59,0-8.92,3.5-8.92,13.58v9.38c0,10.08,2.33,13.58,9,13.58,6.31,0,9.2-3.29,9.2-10.43V30.38h-8.3Z"/><path class="cls-1" d="M435.32,8.26H421.94V.77h35.67V8.26H444.3V50.75h-9Z"/><path class="cls-1" d="M464.68.77h30.18V8.26H473.6V21.7h18v7.49h-18V43.26h21.47v7.49H464.68Z"/><path class="cls-1" d="M536.21,37.73c-.48,9.24-6.18,13.8-17.15,13.8-6.8,0-11.25-2-14.2-6.17-2.27-3.22-3.16-7.14-3.16-14.21V20.51c0-7.77,1-11.83,3.84-15.12,3.09-3.64,7.21-5.25,13.52-5.25,10.56,0,16,4.62,16.46,14.14l-8.23.63c-.62-5-3.23-7.35-8.1-7.35-6.31,0-8.5,3.57-8.5,13.58v9.38c0,10.08,2.19,13.58,8.64,13.58,5,0,7.82-2.38,8.51-7.35Z"/><path class="cls-1" d="M544.3.77h9V21.7h16.6V.77h9v50h-9V29.19h-16.6V50.75h-9Z"/><path class="cls-1" d="M589,.77h8.72l19.55,34.58V.77h8.71v50h-8.71L597.68,16.17V50.75H589Z"/><path class="cls-1" d="M635.15,19.81c0-7.35,1.1-11.41,4.05-14.7C642.49,1.54,646.61,0,653.26,0c7.07,0,11.53,1.82,14.75,6,2.47,3.22,3.37,7,3.37,13.86v11.9c0,7.42-1.1,11.41-4,14.7-3.29,3.57-7.48,5.12-14.07,5.12-7.06,0-11.52-1.82-14.75-6-2.4-3.15-3.36-7.07-3.36-13.86Zm27.24.77c0-9.52-2.54-13.16-9.13-13.16s-9.12,3.64-9.12,13.16V30.94c0,9.52,2.54,13.16,9.12,13.16s9.13-3.64,9.13-13.16Z"/><path class="cls-1" d="M680.62.77h9V43.26H711v7.49H680.62Z"/><path class="cls-1" d="M716.46,19.81c0-7.35,1.1-11.41,4-14.7C723.8,1.54,727.92,0,734.58,0c7.06,0,11.52,1.82,14.74,6,2.47,3.22,3.37,7,3.37,13.86v11.9c0,7.42-1.1,11.41-4.05,14.7-3.29,3.57-7.48,5.12-14.06,5.12-7.07,0-11.53-1.82-14.75-6-2.41-3.15-3.37-7.07-3.37-13.86Zm27.24.77c0-9.52-2.54-13.16-9.12-13.16s-9.13,3.64-9.13,13.16V30.94c0,9.52,2.54,13.16,9.13,13.16s9.12-3.64,9.12-13.16Z"/><path class="cls-1" d="M779.87,23.31h17.22v8.4c0,7.14-.89,10.78-3.43,14-3.16,4-7.68,5.82-14.48,5.82-7.34,0-11.86-1.9-15-6.17-2.33-3.15-3.22-7.07-3.22-14.21V20.51c0-7.77,1-11.83,3.91-15.12C768,1.75,772.26.14,778.64.14c10.9,0,16.53,4.69,17,14.14l-8.3.63c-.62-5-3.43-7.35-8.51-7.35-6.58,0-8.92,3.5-8.92,13.58v9.38c0,10.08,2.34,13.58,9.06,13.58,6.31,0,9.19-3.29,9.19-10.43V30.38h-8.3Z"/><path class="cls-1" d="M814.47,32.69,799.31.77h9.47L819,23.66,829.15.77h9.54L823.46,32.69V50.75h-9Z"/><path class="cls-1" d="M0,90.77H9v50H0Z"/><path class="cls-1" d="M19,90.77h8.72l19.55,34.58V90.77H56v50H47.24L27.69,106.17v34.58H19Z"/><path class="cls-1" d="M76.43,98.26H63.05V90.77H98.72v7.49H85.41v42.49h-9Z"/><path class="cls-1" d="M104.36,109.81c0-7.35,1.1-11.41,4-14.7,3.29-3.57,7.41-5.11,14.06-5.11,7.07,0,11.53,1.82,14.75,6,2.47,3.22,3.36,7,3.36,13.86v11.9c0,7.42-1.1,11.41-4,14.7-3.3,3.57-7.48,5.12-14.07,5.12-7.07,0-11.52-1.82-14.75-6-2.4-3.15-3.36-7.07-3.36-13.86Zm27.24.77c0-9.52-2.54-13.16-9.13-13.16s-9.12,3.64-9.12,13.16v10.36c0,9.52,2.53,13.16,9.12,13.16s9.13-3.64,9.13-13.16Z"/><path class="cls-1" d="M187.57,98.26H174.19V90.77h35.68v7.49H196.56v42.49h-9Z"/><path class="cls-1" d="M216.9,90.77h9V111.7h16.61V90.77h9v50h-9V119.19H225.88v21.56h-9Z"/><path class="cls-1" d="M261.59,90.77h30.18v7.49H270.51V111.7h18v7.49h-18v14.07H292v7.49H261.59Z"/><path class="cls-1" d="M328.88,90.77h29.78v7.49H337.87v13.86h17.5v7.49h-17.5v21.14h-9Z"/><path class="cls-1" d="M374.77,90.77v31.36c0,4.41.34,6.51,1.3,8.26,1.44,2.66,3.5,3.64,7.41,3.64,4.12,0,6.31-1.19,7.69-4.27.68-1.61,1-3.71,1-7.63V90.77h9v31.36c0,7.35-.75,10.64-3,13.58-3.16,4-7.55,5.75-14.62,5.75-7.61,0-12.35-2-15.3-6.66-1.78-2.73-2.4-5.88-2.4-12.67V90.77Z"/><path class="cls-1" d="M421.47,98.26H408.09V90.77h35.67v7.49H430.45v42.49h-9Z"/><path class="cls-1" d="M459.69,90.77v31.36c0,4.41.34,6.51,1.3,8.26,1.44,2.66,3.5,3.64,7.41,3.64,4.12,0,6.31-1.19,7.69-4.27.68-1.61,1-3.71,1-7.63V90.77h9v31.36c0,7.35-.75,10.64-3,13.58-3.15,4-7.54,5.75-14.61,5.75-7.61,0-12.35-2-15.3-6.66-1.78-2.73-2.4-5.88-2.4-12.67V90.77Z"/><path class="cls-1" d="M505,140.75h-9v-50H514c6.31,0,9.74,1,12.35,3.64,2.4,2.52,3.49,5.81,3.49,10.85,0,8.4-2.74,12.6-9.26,14.28l10.7,21.21h-9.94l-9.47-20.44H505Zm8.44-27.58c5.35,0,7.55-2.24,7.55-7.49s-2.27-7.56-7.82-7.56h-8.31v15Z"/><path class="cls-1" d="M539.08,90.77h30.18v7.49H548V111.7h18v7.49H548v14.07h21.47v7.49H539.08Z"/></g></g></g></svg>