<svg xmlns="http://www.w3.org/2000/svg" viewBox="0 0 51.53 424.93"><defs><style>.cls-1{fill:#d70c18;}</style></defs><title>technology-index</title><g id="レイヤー_2" data-name="レイヤー 2"><g id="top"><g id="contents"><g id="sec-tech"><path class="cls-1" d="M43.26,13.65V0h7.5V36.4h-7.5V22.82H.77V13.65Z"/><path class="cls-1" d="M50.76,43.57V74.38h-7.5V52.68H29.82V71.09H22.33V52.68H8.26V74.59H.77v-31Z"/><path class="cls-1" d="M13.79,116.53C4.55,116,0,110.23,0,99,0,92.1,2,87.55,6.16,84.54c3.22-2.31,7.14-3.22,14.21-3.22H31c7.77,0,11.83,1.05,15.13,3.92,3.64,3.15,5.25,7.35,5.25,13.79,0,10.78-4.62,16.31-14.15,16.8l-.63-8.4c5-.63,7.35-3.29,7.35-8.26,0-6.44-3.57-8.68-13.58-8.68H21c-10.08,0-13.58,2.24-13.58,8.82,0,5.11,2.38,8,7.35,8.68Z"/><path class="cls-1" d="M50.76,124.75v9.17H29.82v17H50.76V160H.77v-9.17H22.33v-17H.77v-9.17Z"/><path class="cls-1" d="M50.76,170.29v8.89L16.17,199.13H50.76V208H.77v-8.89l34.58-19.95H.77v-8.89Z"/><path class="cls-1" d="M31.71,217.39c7.35,0,11.42,1.12,14.71,4.13,3.57,3.36,5.11,7.56,5.11,14.35,0,7.21-1.82,11.76-6,15-3.23,2.52-7,3.43-13.87,3.43H19.81c-7.42,0-11.41-1.12-14.7-4.13C1.54,246.86,0,242.59,0,235.87c0-7.21,1.82-11.76,6-15.05,3.15-2.45,7.07-3.43,13.86-3.43Zm-.77,27.79c9.52,0,13.17-2.59,13.17-9.31s-3.65-9.31-13.17-9.31H20.58c-9.52,0-13.16,2.59-13.16,9.31s3.64,9.31,13.16,9.31Z"/><path class="cls-1" d="M50.76,263.75v9.17H8.26v21.84H.77v-31Z"/><path class="cls-1" d="M31.71,300.29c7.35,0,11.42,1.12,14.71,4.13,3.57,3.36,5.11,7.56,5.11,14.35,0,7.21-1.82,11.76-6,15.05-3.23,2.52-7,3.43-13.87,3.43H19.81c-7.42,0-11.41-1.12-14.7-4.13C1.54,329.76,0,325.49,0,318.77c0-7.21,1.82-11.76,6-15,3.15-2.45,7.07-3.43,13.86-3.43Zm-.77,27.79c9.52,0,13.17-2.59,13.17-9.31s-3.65-9.31-13.17-9.31H20.58c-9.52,0-13.16,2.59-13.16,9.31s3.64,9.31,13.16,9.31Z"/><path class="cls-1" d="M28.21,365v17.57h-8.4c-7.14,0-10.78-.91-14-3.5C1.82,375.8,0,371.18,0,364.25c0-7.49,1.89-12.11,6.16-15.33,3.15-2.38,7.07-3.29,14.21-3.29H31c7.77,0,11.83,1.05,15.13,4,3.64,3.22,5.25,7.56,5.25,14.07,0,11.13-4.69,16.87-14.15,17.36l-.63-8.47c5-.63,7.35-3.5,7.35-8.68,0-6.72-3.5-9.1-13.58-9.1H21c-10.08,0-13.58,2.38-13.58,9.24,0,6.44,3.29,9.38,10.43,9.38h3.29V365Z"/><path class="cls-1" d="M18.83,400.22l31.93-15.47v9.66l-22.9,10.43,22.9,10.36v9.73L18.83,409.39H.77v-9.17Z"/></g></g></g></g></svg>