<svg xmlns="http://www.w3.org/2000/svg" viewBox="0 0 51.53 312.44"><defs><style>.cls-1{fill:#d70c18;}</style></defs><title>company-index</title><g id="レイヤー_2" data-name="レイヤー 2"><g id="top"><g id="contents"><g id="sec"><path class="cls-1" d="M13.79,35.21C4.55,34.72,0,28.91,0,17.71,0,10.78,2,6.23,6.16,3.22,9.38.91,13.3,0,20.37,0H31c7.77,0,11.83,1.05,15.13,3.92,3.64,3.15,5.25,7.35,5.25,13.79,0,10.78-4.62,16.31-14.15,16.8l-.63-8.4c5-.63,7.35-3.29,7.35-8.26,0-6.44-3.57-8.68-13.58-8.68H21C10.92,9.17,7.42,11.41,7.42,18c0,5.11,2.38,8,7.35,8.68Z"/><path class="cls-1" d="M31.71,42.74c7.35,0,11.42,1.12,14.71,4.13,3.57,3.36,5.11,7.56,5.11,14.35,0,7.21-1.82,11.76-6,15-3.23,2.53-7,3.44-13.87,3.44H19.81c-7.42,0-11.41-1.12-14.7-4.13C1.54,72.21,0,67.94,0,61.22c0-7.21,1.82-11.76,6-15C9.1,43.72,13,42.74,19.81,42.74Zm-.77,27.79c9.52,0,13.17-2.59,13.17-9.31s-3.65-9.31-13.17-9.31H20.58c-9.52,0-13.16,2.59-13.16,9.31s3.64,9.31,13.16,9.31Z"/><path class="cls-1" d="M50.76,89.1v8.61L22,111.5l28.78,13.8v8.61H.77v-8.82H33.53l-22-10.65v-5.88L33.53,97.92H.77V89.1Z"/><path class="cls-1" d="M.77,153.4v-9.17h50V161c0,6.93-1.12,10.64-4,13.44-2.81,2.59-6.38,3.71-11.91,3.71-6,0-9.87-1.33-12.6-4.41C19.81,171,18.83,167.4,18.83,161V153.4ZM26.25,161c0,5.74,2.52,8.05,8.61,8.05s8.55-2.31,8.55-8.05v-7.77H26.25Z"/><path class="cls-1" d="M10.64,190.16.77,186.94V177l50,18.13V204l-50,18.13v-9.94l9.87-3.15Zm29.19,9.45L18,192.33v14.49Z"/><path class="cls-1" d="M50.76,228.29v8.89L16.17,257.13H50.76V266H.77v-8.89l34.58-19.95H.77v-8.89Z"/><path class="cls-1" d="M18.83,287.73l31.93-15.48v9.67l-22.9,10.43,22.9,10.36v9.73L18.83,296.9H.77v-9.17Z"/></g></g></g></g></svg>